<?xml version="1.0" encoding="utf-8" standalone="no"?>
<!DOCTYPE svg PUBLIC "-//W3C//DTD SVG 1.1//EN"
  "http://www.w3.org/Graphics/SVG/1.1/DTD/svg11.dtd">
<svg xmlns:xlink="http://www.w3.org/1999/xlink" width="903.901094pt" height="393.976952pt" viewBox="0 0 903.901094 393.976952" xmlns="http://www.w3.org/2000/svg" version="1.1">
 <metadata>
  <rdf:RDF xmlns:dc="http://purl.org/dc/elements/1.1/" xmlns:cc="http://creativecommons.org/ns#" xmlns:rdf="http://www.w3.org/1999/02/22-rdf-syntax-ns#">
   <cc:Work>
    <dc:type rdf:resource="http://purl.org/dc/dcmitype/StillImage"/>
    <dc:date>2026-07-16T02:53:17.694603</dc:date>
    <dc:format>image/svg+xml</dc:format>
    <dc:creator>
     <cc:Agent>
      <dc:title>Matplotlib v3.11.0, https://matplotlib.org/</dc:title>
     </cc:Agent>
    </dc:creator>
   </cc:Work>
  </rdf:RDF>
 </metadata>
 <defs>
  <style type="text/css">*{stroke-linejoin: round; stroke-linecap: butt}</style>
 </defs>
 <g id="figure_1">
  <g id="patch_1">
   <path d="M 0 393.976952 
L 903.901094 393.976952 
L 903.901094 -0 
L 0 -0 
z
" style="fill: #ffffff"/>
  </g>
  <g id="axes_1">
   <g id="patch_2">
    <path d="M 69.941094 285.658762 
L 889.501094 285.658762 
L 889.501094 44.077187 
L 69.941094 44.077187 
z
" style="fill: #ffffff"/>
   </g>
   <g id="matplotlib.axis_1">
    <g id="xtick_1">
     <g id="line2d_1">
      <path d="M 120.264953 285.658762 
L 120.264953 44.077187 
" clip-path="url(#p4e919d8449)" style="fill: none; stroke-dasharray: 2.96,1.28; stroke-dashoffset: 0; stroke: #b0b0b0; stroke-opacity: 0.25; stroke-width: 0.8"/>
     </g>
     <g id="line2d_2">
      <defs>
       <path id="mb34d23ea73" d="M 0 0 
L 0 3.5 
" style="stroke: #000000; stroke-width: 0.8"/>
      </defs>
      <g>
       <use xlink:href="#mb34d23ea73" x="120.264953" y="285.658762" style="stroke: #000000; stroke-width: 0.8"/>
      </g>
     </g>
     <g id="text_1">
      <!-- bf16_mixed -->
      <g transform="translate(82.418703 303.838001) scale(0.13 -0.13)">
       <defs>
        <path id="DejaVuSans-45" d="M 3116 1747 
Q 3116 2381 2855 2742 
Q 2594 3103 2138 3103 
Q 1681 3103 1420 2742 
Q 1159 2381 1159 1747 
Q 1159 1113 1420 752 
Q 1681 391 2138 391 
Q 2594 391 2855 752 
Q 3116 1113 3116 1747 
z
M 1159 2969 
Q 1341 3281 1617 3432 
Q 1894 3584 2278 3584 
Q 2916 3584 3314 3078 
Q 3713 2572 3713 1747 
Q 3713 922 3314 415 
Q 2916 -91 2278 -91 
Q 1894 -91 1617 61 
Q 1341 213 1159 525 
L 1159 0 
L 581 0 
L 581 4863 
L 1159 4863 
L 1159 2969 
z
" transform="scale(0.015625)"/>
        <path id="DejaVuSans-49" d="M 2375 4863 
L 2375 4384 
L 1825 4384 
Q 1516 4384 1395 4259 
Q 1275 4134 1275 3809 
L 1275 3500 
L 2222 3500 
L 2222 3053 
L 1275 3053 
L 1275 0 
L 697 0 
L 697 3053 
L 147 3053 
L 147 3500 
L 697 3500 
L 697 3744 
Q 697 4328 969 4595 
Q 1241 4863 1831 4863 
L 2375 4863 
z
" transform="scale(0.015625)"/>
        <path id="DejaVuSans-14" d="M 794 531 
L 1825 531 
L 1825 4091 
L 703 3866 
L 703 4441 
L 1819 4666 
L 2450 4666 
L 2450 531 
L 3481 531 
L 3481 0 
L 794 0 
L 794 531 
z
" transform="scale(0.015625)"/>
        <path id="DejaVuSans-19" d="M 2113 2584 
Q 1688 2584 1439 2293 
Q 1191 2003 1191 1497 
Q 1191 994 1439 701 
Q 1688 409 2113 409 
Q 2538 409 2786 701 
Q 3034 994 3034 1497 
Q 3034 2003 2786 2293 
Q 2538 2584 2113 2584 
z
M 3366 4563 
L 3366 3988 
Q 3128 4100 2886 4159 
Q 2644 4219 2406 4219 
Q 1781 4219 1451 3797 
Q 1122 3375 1075 2522 
Q 1259 2794 1537 2939 
Q 1816 3084 2150 3084 
Q 2853 3084 3261 2657 
Q 3669 2231 3669 1497 
Q 3669 778 3244 343 
Q 2819 -91 2113 -91 
Q 1303 -91 875 529 
Q 447 1150 447 2328 
Q 447 3434 972 4092 
Q 1497 4750 2381 4750 
Q 2619 4750 2861 4703 
Q 3103 4656 3366 4563 
z
" transform="scale(0.015625)"/>
        <path id="DejaVuSans-42" d="M 3263 -1063 
L 3263 -1509 
L -63 -1509 
L -63 -1063 
L 3263 -1063 
z
" transform="scale(0.015625)"/>
        <path id="DejaVuSans-50" d="M 3328 2828 
Q 3544 3216 3844 3400 
Q 4144 3584 4550 3584 
Q 5097 3584 5394 3201 
Q 5691 2819 5691 2113 
L 5691 0 
L 5113 0 
L 5113 2094 
Q 5113 2597 4934 2840 
Q 4756 3084 4391 3084 
Q 3944 3084 3684 2787 
Q 3425 2491 3425 1978 
L 3425 0 
L 2847 0 
L 2847 2094 
Q 2847 2600 2669 2842 
Q 2491 3084 2119 3084 
Q 1678 3084 1418 2786 
Q 1159 2488 1159 1978 
L 1159 0 
L 581 0 
L 581 3500 
L 1159 3500 
L 1159 2956 
Q 1356 3278 1631 3431 
Q 1906 3584 2284 3584 
Q 2666 3584 2933 3390 
Q 3200 3197 3328 2828 
z
" transform="scale(0.015625)"/>
        <path id="DejaVuSans-4c" d="M 603 3500 
L 1178 3500 
L 1178 0 
L 603 0 
L 603 3500 
z
M 603 4863 
L 1178 4863 
L 1178 4134 
L 603 4134 
L 603 4863 
z
" transform="scale(0.015625)"/>
        <path id="DejaVuSans-5b" d="M 3513 3500 
L 2247 1797 
L 3578 0 
L 2900 0 
L 1881 1375 
L 863 0 
L 184 0 
L 1544 1831 
L 300 3500 
L 978 3500 
L 1906 2253 
L 2834 3500 
L 3513 3500 
z
" transform="scale(0.015625)"/>
        <path id="DejaVuSans-48" d="M 3597 1894 
L 3597 1613 
L 953 1613 
Q 991 1019 1311 708 
Q 1631 397 2203 397 
Q 2534 397 2845 478 
Q 3156 559 3463 722 
L 3463 178 
Q 3153 47 2828 -22 
Q 2503 -91 2169 -91 
Q 1331 -91 842 396 
Q 353 884 353 1716 
Q 353 2575 817 3079 
Q 1281 3584 2069 3584 
Q 2775 3584 3186 3129 
Q 3597 2675 3597 1894 
z
M 3022 2063 
Q 3016 2534 2758 2815 
Q 2500 3097 2075 3097 
Q 1594 3097 1305 2825 
Q 1016 2553 972 2059 
L 3022 2063 
z
" transform="scale(0.015625)"/>
        <path id="DejaVuSans-47" d="M 2906 2969 
L 2906 4863 
L 3481 4863 
L 3481 0 
L 2906 0 
L 2906 525 
Q 2725 213 2448 61 
Q 2172 -91 1784 -91 
Q 1150 -91 751 415 
Q 353 922 353 1747 
Q 353 2572 751 3078 
Q 1150 3584 1784 3584 
Q 2172 3584 2448 3432 
Q 2725 3281 2906 2969 
z
M 947 1747 
Q 947 1113 1208 752 
Q 1469 391 1925 391 
Q 2381 391 2643 752 
Q 2906 1113 2906 1747 
Q 2906 2381 2643 2742 
Q 2381 3103 1925 3103 
Q 1469 3103 1208 2742 
Q 947 2381 947 1747 
z
" transform="scale(0.015625)"/>
       </defs>
       <use xlink:href="#DejaVuSans-45"/>
       <use xlink:href="#DejaVuSans-49" transform="translate(63.484375 0)"/>
       <use xlink:href="#DejaVuSans-14" transform="translate(98.6875 0)"/>
       <use xlink:href="#DejaVuSans-19" transform="translate(162.3125 0)"/>
       <use xlink:href="#DejaVuSans-42" transform="translate(225.9375 0)"/>
       <use xlink:href="#DejaVuSans-50" transform="translate(275.9375 0)"/>
       <use xlink:href="#DejaVuSans-4c" transform="translate(373.34375 0)"/>
       <use xlink:href="#DejaVuSans-5b" transform="translate(401.125 0)"/>
       <use xlink:href="#DejaVuSans-48" transform="translate(457.234375 0)"/>
       <use xlink:href="#DejaVuSans-47" transform="translate(518.765625 0)"/>
      </g>
      <!-- @fp32 -->
      <g transform="translate(99.079016 319.441555) scale(0.13 -0.13)">
       <defs>
        <path id="DejaVuSans-23" d="M 2381 1678 
Q 2381 1231 2603 976 
Q 2825 722 3213 722 
Q 3597 722 3817 978 
Q 4038 1234 4038 1678 
Q 4038 2116 3813 2373 
Q 3588 2631 3206 2631 
Q 2828 2631 2604 2375 
Q 2381 2119 2381 1678 
z
M 4084 744 
Q 3897 503 3655 389 
Q 3413 275 3091 275 
Q 2553 275 2217 664 
Q 1881 1053 1881 1678 
Q 1881 2303 2218 2693 
Q 2556 3084 3091 3084 
Q 3413 3084 3656 2967 
Q 3900 2850 4084 2613 
L 4084 3022 
L 4531 3022 
L 4531 722 
Q 4988 791 5245 1139 
Q 5503 1488 5503 2041 
Q 5503 2375 5404 2669 
Q 5306 2963 5106 3213 
Q 4781 3622 4314 3839 
Q 3847 4056 3297 4056 
Q 2913 4056 2559 3954 
Q 2206 3853 1906 3653 
Q 1416 3334 1139 2817 
Q 863 2300 863 1697 
Q 863 1200 1042 765 
Q 1222 331 1563 0 
Q 1891 -325 2322 -495 
Q 2753 -666 3244 -666 
Q 3647 -666 4036 -530 
Q 4425 -394 4750 -141 
L 5031 -488 
Q 4641 -791 4180 -952 
Q 3719 -1113 3244 -1113 
Q 2666 -1113 2153 -908 
Q 1641 -703 1241 -313 
Q 841 78 631 592 
Q 422 1106 422 1697 
Q 422 2266 634 2781 
Q 847 3297 1241 3688 
Q 1644 4084 2172 4295 
Q 2700 4506 3291 4506 
Q 3953 4506 4520 4234 
Q 5088 3963 5472 3463 
Q 5706 3156 5829 2797 
Q 5953 2438 5953 2053 
Q 5953 1231 5456 756 
Q 4959 281 4084 263 
L 4084 744 
z
" transform="scale(0.015625)"/>
        <path id="DejaVuSans-53" d="M 1159 525 
L 1159 -1331 
L 581 -1331 
L 581 3500 
L 1159 3500 
L 1159 2969 
Q 1341 3281 1617 3432 
Q 1894 3584 2278 3584 
Q 2916 3584 3314 3078 
Q 3713 2572 3713 1747 
Q 3713 922 3314 415 
Q 2916 -91 2278 -91 
Q 1894 -91 1617 61 
Q 1341 213 1159 525 
z
M 3116 1747 
Q 3116 2381 2855 2742 
Q 2594 3103 2138 3103 
Q 1681 3103 1420 2742 
Q 1159 2381 1159 1747 
Q 1159 1113 1420 752 
Q 1681 391 2138 391 
Q 2594 391 2855 752 
Q 3116 1113 3116 1747 
z
" transform="scale(0.015625)"/>
        <path id="DejaVuSans-16" d="M 2597 2516 
Q 3050 2419 3304 2112 
Q 3559 1806 3559 1356 
Q 3559 666 3084 287 
Q 2609 -91 1734 -91 
Q 1441 -91 1130 -33 
Q 819 25 488 141 
L 488 750 
Q 750 597 1062 519 
Q 1375 441 1716 441 
Q 2309 441 2620 675 
Q 2931 909 2931 1356 
Q 2931 1769 2642 2001 
Q 2353 2234 1838 2234 
L 1294 2234 
L 1294 2753 
L 1863 2753 
Q 2328 2753 2575 2939 
Q 2822 3125 2822 3475 
Q 2822 3834 2567 4026 
Q 2313 4219 1838 4219 
Q 1578 4219 1281 4162 
Q 984 4106 628 3988 
L 628 4550 
Q 988 4650 1302 4700 
Q 1616 4750 1894 4750 
Q 2613 4750 3031 4423 
Q 3450 4097 3450 3541 
Q 3450 3153 3228 2886 
Q 3006 2619 2597 2516 
z
" transform="scale(0.015625)"/>
        <path id="DejaVuSans-15" d="M 1228 531 
L 3431 531 
L 3431 0 
L 469 0 
L 469 531 
Q 828 903 1448 1529 
Q 2069 2156 2228 2338 
Q 2531 2678 2651 2914 
Q 2772 3150 2772 3378 
Q 2772 3750 2511 3984 
Q 2250 4219 1831 4219 
Q 1534 4219 1204 4116 
Q 875 4013 500 3803 
L 500 4441 
Q 881 4594 1212 4672 
Q 1544 4750 1819 4750 
Q 2544 4750 2975 4387 
Q 3406 4025 3406 3419 
Q 3406 3131 3298 2873 
Q 3191 2616 2906 2266 
Q 2828 2175 2409 1742 
Q 1991 1309 1228 531 
z
" transform="scale(0.015625)"/>
       </defs>
       <use xlink:href="#DejaVuSans-23"/>
       <use xlink:href="#DejaVuSans-49" transform="translate(100 0)"/>
       <use xlink:href="#DejaVuSans-53" transform="translate(135.203125 0)"/>
       <use xlink:href="#DejaVuSans-16" transform="translate(198.6875 0)"/>
       <use xlink:href="#DejaVuSans-15" transform="translate(262.3125 0)"/>
      </g>
     </g>
    </g>
    <g id="xtick_2">
     <g id="line2d_3">
      <path d="M 240.083667 285.658762 
L 240.083667 44.077187 
" clip-path="url(#p4e919d8449)" style="fill: none; stroke-dasharray: 2.96,1.28; stroke-dashoffset: 0; stroke: #b0b0b0; stroke-opacity: 0.25; stroke-width: 0.8"/>
     </g>
     <g id="line2d_4">
      <g>
       <use xlink:href="#mb34d23ea73" x="240.083667" y="285.658762" style="stroke: #000000; stroke-width: 0.8"/>
      </g>
     </g>
     <g id="text_2">
      <!-- bf16_mixed -->
      <g transform="translate(202.237417 303.838001) scale(0.13 -0.13)">
       <use xlink:href="#DejaVuSans-45"/>
       <use xlink:href="#DejaVuSans-49" transform="translate(63.484375 0)"/>
       <use xlink:href="#DejaVuSans-14" transform="translate(98.6875 0)"/>
       <use xlink:href="#DejaVuSans-19" transform="translate(162.3125 0)"/>
       <use xlink:href="#DejaVuSans-42" transform="translate(225.9375 0)"/>
       <use xlink:href="#DejaVuSans-50" transform="translate(275.9375 0)"/>
       <use xlink:href="#DejaVuSans-4c" transform="translate(373.34375 0)"/>
       <use xlink:href="#DejaVuSans-5b" transform="translate(401.125 0)"/>
       <use xlink:href="#DejaVuSans-48" transform="translate(457.234375 0)"/>
       <use xlink:href="#DejaVuSans-47" transform="translate(518.765625 0)"/>
      </g>
      <!-- @tf32 -->
      <g transform="translate(220.476011 319.441555) scale(0.13 -0.13)">
       <defs>
        <path id="DejaVuSans-57" d="M 1172 4494 
L 1172 3500 
L 2356 3500 
L 2356 3053 
L 1172 3053 
L 1172 1153 
Q 1172 725 1289 603 
Q 1406 481 1766 481 
L 2356 481 
L 2356 0 
L 1766 0 
Q 1100 0 847 248 
Q 594 497 594 1153 
L 594 3053 
L 172 3053 
L 172 3500 
L 594 3500 
L 594 4494 
L 1172 4494 
z
" transform="scale(0.015625)"/>
       </defs>
       <use xlink:href="#DejaVuSans-23"/>
       <use xlink:href="#DejaVuSans-57" transform="translate(100 0)"/>
       <use xlink:href="#DejaVuSans-49" transform="translate(139.203125 0)"/>
       <use xlink:href="#DejaVuSans-16" transform="translate(174.40625 0)"/>
       <use xlink:href="#DejaVuSans-15" transform="translate(238.03125 0)"/>
      </g>
     </g>
    </g>
    <g id="xtick_3">
     <g id="line2d_5">
      <path d="M 359.90238 285.658762 
L 359.90238 44.077187 
" clip-path="url(#p4e919d8449)" style="fill: none; stroke-dasharray: 2.96,1.28; stroke-dashoffset: 0; stroke: #b0b0b0; stroke-opacity: 0.25; stroke-width: 0.8"/>
     </g>
     <g id="line2d_6">
      <g>
       <use xlink:href="#mb34d23ea73" x="359.90238" y="285.658762" style="stroke: #000000; stroke-width: 0.8"/>
      </g>
     </g>
     <g id="text_3">
      <!-- tf32 -->
      <g transform="translate(346.794724 303.838001) scale(0.13 -0.13)">
       <use xlink:href="#DejaVuSans-57"/>
       <use xlink:href="#DejaVuSans-49" transform="translate(39.203125 0)"/>
       <use xlink:href="#DejaVuSans-16" transform="translate(74.40625 0)"/>
       <use xlink:href="#DejaVuSans-15" transform="translate(138.03125 0)"/>
      </g>
      <!-- @fp32 -->
      <g transform="translate(338.716443 319.441555) scale(0.13 -0.13)">
       <use xlink:href="#DejaVuSans-23"/>
       <use xlink:href="#DejaVuSans-49" transform="translate(100 0)"/>
       <use xlink:href="#DejaVuSans-53" transform="translate(135.203125 0)"/>
       <use xlink:href="#DejaVuSans-16" transform="translate(198.6875 0)"/>
       <use xlink:href="#DejaVuSans-15" transform="translate(262.3125 0)"/>
      </g>
     </g>
    </g>
    <g id="xtick_4">
     <g id="line2d_7">
      <path d="M 479.721094 285.658762 
L 479.721094 44.077187 
" clip-path="url(#p4e919d8449)" style="fill: none; stroke-dasharray: 2.96,1.28; stroke-dashoffset: 0; stroke: #b0b0b0; stroke-opacity: 0.25; stroke-width: 0.8"/>
     </g>
     <g id="line2d_8">
      <g>
       <use xlink:href="#mb34d23ea73" x="479.721094" y="285.658762" style="stroke: #000000; stroke-width: 0.8"/>
      </g>
     </g>
     <g id="text_4">
      <!-- tf32 -->
      <g transform="translate(466.613437 303.838001) scale(0.13 -0.13)">
       <use xlink:href="#DejaVuSans-57"/>
       <use xlink:href="#DejaVuSans-49" transform="translate(39.203125 0)"/>
       <use xlink:href="#DejaVuSans-16" transform="translate(74.40625 0)"/>
       <use xlink:href="#DejaVuSans-15" transform="translate(138.03125 0)"/>
      </g>
      <!-- @tf32 -->
      <g transform="translate(460.113437 319.441555) scale(0.13 -0.13)">
       <use xlink:href="#DejaVuSans-23"/>
       <use xlink:href="#DejaVuSans-57" transform="translate(100 0)"/>
       <use xlink:href="#DejaVuSans-49" transform="translate(139.203125 0)"/>
       <use xlink:href="#DejaVuSans-16" transform="translate(174.40625 0)"/>
       <use xlink:href="#DejaVuSans-15" transform="translate(238.03125 0)"/>
      </g>
     </g>
    </g>
    <g id="xtick_5">
     <g id="line2d_9">
      <path d="M 599.539807 285.658762 
L 599.539807 44.077187 
" clip-path="url(#p4e919d8449)" style="fill: none; stroke-dasharray: 2.96,1.28; stroke-dashoffset: 0; stroke: #b0b0b0; stroke-opacity: 0.25; stroke-width: 0.8"/>
     </g>
     <g id="line2d_10">
      <g>
       <use xlink:href="#mb34d23ea73" x="599.539807" y="285.658762" style="stroke: #000000; stroke-width: 0.8"/>
      </g>
     </g>
     <g id="text_5">
      <!-- fp32 -->
      <g transform="translate(584.85387 303.838001) scale(0.13 -0.13)">
       <use xlink:href="#DejaVuSans-49"/>
       <use xlink:href="#DejaVuSans-53" transform="translate(35.203125 0)"/>
       <use xlink:href="#DejaVuSans-16" transform="translate(98.6875 0)"/>
       <use xlink:href="#DejaVuSans-15" transform="translate(162.3125 0)"/>
      </g>
      <!-- @fp32 -->
      <g transform="translate(578.35387 319.441555) scale(0.13 -0.13)">
       <use xlink:href="#DejaVuSans-23"/>
       <use xlink:href="#DejaVuSans-49" transform="translate(100 0)"/>
       <use xlink:href="#DejaVuSans-53" transform="translate(135.203125 0)"/>
       <use xlink:href="#DejaVuSans-16" transform="translate(198.6875 0)"/>
       <use xlink:href="#DejaVuSans-15" transform="translate(262.3125 0)"/>
      </g>
     </g>
    </g>
    <g id="xtick_6">
     <g id="line2d_11">
      <path d="M 719.358521 285.658762 
L 719.358521 44.077187 
" clip-path="url(#p4e919d8449)" style="fill: none; stroke-dasharray: 2.96,1.28; stroke-dashoffset: 0; stroke: #b0b0b0; stroke-opacity: 0.25; stroke-width: 0.8"/>
     </g>
     <g id="line2d_12">
      <g>
       <use xlink:href="#mb34d23ea73" x="719.358521" y="285.658762" style="stroke: #000000; stroke-width: 0.8"/>
      </g>
     </g>
     <g id="text_6">
      <!-- PyTorch -->
      <g transform="translate(694.526489 303.838001) scale(0.13 -0.13)">
       <defs>
        <path id="DejaVuSans-33" d="M 1259 4147 
L 1259 2394 
L 2053 2394 
Q 2494 2394 2734 2622 
Q 2975 2850 2975 3272 
Q 2975 3691 2734 3919 
Q 2494 4147 2053 4147 
L 1259 4147 
z
M 628 4666 
L 2053 4666 
Q 2838 4666 3239 4311 
Q 3641 3956 3641 3272 
Q 3641 2581 3239 2228 
Q 2838 1875 2053 1875 
L 1259 1875 
L 1259 0 
L 628 0 
L 628 4666 
z
" transform="scale(0.015625)"/>
        <path id="DejaVuSans-5c" d="M 2059 -325 
Q 1816 -950 1584 -1140 
Q 1353 -1331 966 -1331 
L 506 -1331 
L 506 -850 
L 844 -850 
Q 1081 -850 1212 -737 
Q 1344 -625 1503 -206 
L 1606 56 
L 191 3500 
L 800 3500 
L 1894 763 
L 2988 3500 
L 3597 3500 
L 2059 -325 
z
" transform="scale(0.015625)"/>
        <path id="DejaVuSans-37" d="M -19 4666 
L 3928 4666 
L 3928 4134 
L 2272 4134 
L 2272 0 
L 1638 0 
L 1638 4134 
L -19 4134 
L -19 4666 
z
" transform="scale(0.015625)"/>
        <path id="DejaVuSans-52" d="M 1959 3097 
Q 1497 3097 1228 2736 
Q 959 2375 959 1747 
Q 959 1119 1226 758 
Q 1494 397 1959 397 
Q 2419 397 2687 759 
Q 2956 1122 2956 1747 
Q 2956 2369 2687 2733 
Q 2419 3097 1959 3097 
z
M 1959 3584 
Q 2709 3584 3137 3096 
Q 3566 2609 3566 1747 
Q 3566 888 3137 398 
Q 2709 -91 1959 -91 
Q 1206 -91 779 398 
Q 353 888 353 1747 
Q 353 2609 779 3096 
Q 1206 3584 1959 3584 
z
" transform="scale(0.015625)"/>
        <path id="DejaVuSans-55" d="M 2631 2963 
Q 2534 3019 2420 3045 
Q 2306 3072 2169 3072 
Q 1681 3072 1420 2755 
Q 1159 2438 1159 1844 
L 1159 0 
L 581 0 
L 581 3500 
L 1159 3500 
L 1159 2956 
Q 1341 3275 1631 3429 
Q 1922 3584 2338 3584 
Q 2397 3584 2469 3576 
Q 2541 3569 2628 3553 
L 2631 2963 
z
" transform="scale(0.015625)"/>
        <path id="DejaVuSans-46" d="M 3122 3366 
L 3122 2828 
Q 2878 2963 2633 3030 
Q 2388 3097 2138 3097 
Q 1578 3097 1268 2742 
Q 959 2388 959 1747 
Q 959 1106 1268 751 
Q 1578 397 2138 397 
Q 2388 397 2633 464 
Q 2878 531 3122 666 
L 3122 134 
Q 2881 22 2623 -34 
Q 2366 -91 2075 -91 
Q 1284 -91 818 406 
Q 353 903 353 1747 
Q 353 2603 823 3093 
Q 1294 3584 2113 3584 
Q 2378 3584 2631 3529 
Q 2884 3475 3122 3366 
z
" transform="scale(0.015625)"/>
        <path id="DejaVuSans-4b" d="M 3513 2113 
L 3513 0 
L 2938 0 
L 2938 2094 
Q 2938 2591 2744 2837 
Q 2550 3084 2163 3084 
Q 1697 3084 1428 2787 
Q 1159 2491 1159 1978 
L 1159 0 
L 581 0 
L 581 4863 
L 1159 4863 
L 1159 2956 
Q 1366 3272 1645 3428 
Q 1925 3584 2291 3584 
Q 2894 3584 3203 3211 
Q 3513 2838 3513 2113 
z
" transform="scale(0.015625)"/>
       </defs>
       <use xlink:href="#DejaVuSans-33"/>
       <use xlink:href="#DejaVuSans-5c" transform="translate(60.296875 0)"/>
       <use xlink:href="#DejaVuSans-37" transform="translate(119.484375 0)"/>
       <use xlink:href="#DejaVuSans-52" transform="translate(163.578125 0)"/>
       <use xlink:href="#DejaVuSans-55" transform="translate(224.765625 0)"/>
       <use xlink:href="#DejaVuSans-46" transform="translate(263.671875 0)"/>
       <use xlink:href="#DejaVuSans-4b" transform="translate(318.65625 0)"/>
      </g>
      <!-- autocast -->
      <g transform="translate(691.238911 319.44054) scale(0.13 -0.13)">
       <defs>
        <path id="DejaVuSans-44" d="M 2194 1759 
Q 1497 1759 1228 1600 
Q 959 1441 959 1056 
Q 959 750 1161 570 
Q 1363 391 1709 391 
Q 2188 391 2477 730 
Q 2766 1069 2766 1631 
L 2766 1759 
L 2194 1759 
z
M 3341 1997 
L 3341 0 
L 2766 0 
L 2766 531 
Q 2569 213 2275 61 
Q 1981 -91 1556 -91 
Q 1019 -91 701 211 
Q 384 513 384 1019 
Q 384 1609 779 1909 
Q 1175 2209 1959 2209 
L 2766 2209 
L 2766 2266 
Q 2766 2663 2505 2880 
Q 2244 3097 1772 3097 
Q 1472 3097 1187 3025 
Q 903 2953 641 2809 
L 641 3341 
Q 956 3463 1253 3523 
Q 1550 3584 1831 3584 
Q 2591 3584 2966 3190 
Q 3341 2797 3341 1997 
z
" transform="scale(0.015625)"/>
        <path id="DejaVuSans-58" d="M 544 1381 
L 544 3500 
L 1119 3500 
L 1119 1403 
Q 1119 906 1312 657 
Q 1506 409 1894 409 
Q 2359 409 2629 706 
Q 2900 1003 2900 1516 
L 2900 3500 
L 3475 3500 
L 3475 0 
L 2900 0 
L 2900 538 
Q 2691 219 2414 64 
Q 2138 -91 1772 -91 
Q 1169 -91 856 284 
Q 544 659 544 1381 
z
M 1991 3584 
L 1991 3584 
z
" transform="scale(0.015625)"/>
        <path id="DejaVuSans-56" d="M 2834 3397 
L 2834 2853 
Q 2591 2978 2328 3040 
Q 2066 3103 1784 3103 
Q 1356 3103 1142 2972 
Q 928 2841 928 2578 
Q 928 2378 1081 2264 
Q 1234 2150 1697 2047 
L 1894 2003 
Q 2506 1872 2764 1633 
Q 3022 1394 3022 966 
Q 3022 478 2636 193 
Q 2250 -91 1575 -91 
Q 1294 -91 989 -36 
Q 684 19 347 128 
L 347 722 
Q 666 556 975 473 
Q 1284 391 1588 391 
Q 1994 391 2212 530 
Q 2431 669 2431 922 
Q 2431 1156 2273 1281 
Q 2116 1406 1581 1522 
L 1381 1569 
Q 847 1681 609 1914 
Q 372 2147 372 2553 
Q 372 3047 722 3315 
Q 1072 3584 1716 3584 
Q 2034 3584 2315 3537 
Q 2597 3491 2834 3397 
z
" transform="scale(0.015625)"/>
       </defs>
       <use xlink:href="#DejaVuSans-44"/>
       <use xlink:href="#DejaVuSans-58" transform="translate(61.28125 0)"/>
       <use xlink:href="#DejaVuSans-57" transform="translate(124.65625 0)"/>
       <use xlink:href="#DejaVuSans-52" transform="translate(163.859375 0)"/>
       <use xlink:href="#DejaVuSans-46" transform="translate(225.046875 0)"/>
       <use xlink:href="#DejaVuSans-44" transform="translate(280.03125 0)"/>
       <use xlink:href="#DejaVuSans-56" transform="translate(341.3125 0)"/>
       <use xlink:href="#DejaVuSans-57" transform="translate(393.40625 0)"/>
      </g>
     </g>
    </g>
    <g id="xtick_7">
     <g id="line2d_13">
      <path d="M 839.177234 285.658762 
L 839.177234 44.077187 
" clip-path="url(#p4e919d8449)" style="fill: none; stroke-dasharray: 2.96,1.28; stroke-dashoffset: 0; stroke: #b0b0b0; stroke-opacity: 0.25; stroke-width: 0.8"/>
     </g>
     <g id="line2d_14">
      <g>
       <use xlink:href="#mb34d23ea73" x="839.177234" y="285.658762" style="stroke: #000000; stroke-width: 0.8"/>
      </g>
     </g>
     <g id="text_7">
      <!-- PyTorch -->
      <g transform="translate(814.345203 303.838001) scale(0.13 -0.13)">
       <use xlink:href="#DejaVuSans-33"/>
       <use xlink:href="#DejaVuSans-5c" transform="translate(60.296875 0)"/>
       <use xlink:href="#DejaVuSans-37" transform="translate(119.484375 0)"/>
       <use xlink:href="#DejaVuSans-52" transform="translate(163.578125 0)"/>
       <use xlink:href="#DejaVuSans-55" transform="translate(224.765625 0)"/>
       <use xlink:href="#DejaVuSans-46" transform="translate(263.671875 0)"/>
       <use xlink:href="#DejaVuSans-4b" transform="translate(318.65625 0)"/>
      </g>
      <!-- FP32 ref -->
      <g transform="translate(812.36575 319.441555) scale(0.13 -0.13)">
       <defs>
        <path id="DejaVuSans-29" d="M 628 4666 
L 3309 4666 
L 3309 4134 
L 1259 4134 
L 1259 2759 
L 3109 2759 
L 3109 2228 
L 1259 2228 
L 1259 0 
L 628 0 
L 628 4666 
z
" transform="scale(0.015625)"/>
        <path id="DejaVuSans-3" transform="scale(0.015625)"/>
       </defs>
       <use xlink:href="#DejaVuSans-29"/>
       <use xlink:href="#DejaVuSans-33" transform="translate(57.515625 0)"/>
       <use xlink:href="#DejaVuSans-16" transform="translate(117.8125 0)"/>
       <use xlink:href="#DejaVuSans-15" transform="translate(181.4375 0)"/>
       <use xlink:href="#DejaVuSans-3" transform="translate(245.0625 0)"/>
       <use xlink:href="#DejaVuSans-55" transform="translate(276.84375 0)"/>
       <use xlink:href="#DejaVuSans-48" transform="translate(315.75 0)"/>
       <use xlink:href="#DejaVuSans-49" transform="translate(377.28125 0)"/>
      </g>
     </g>
    </g>
   </g>
   <g id="matplotlib.axis_2">
    <g id="ytick_1">
     <g id="line2d_15">
      <path d="M 69.941094 285.658762 
L 889.501094 285.658762 
" clip-path="url(#p4e919d8449)" style="fill: none; stroke-dasharray: 2.96,1.28; stroke-dashoffset: 0; stroke: #b0b0b0; stroke-opacity: 0.25; stroke-width: 0.8"/>
     </g>
     <g id="line2d_16">
      <defs>
       <path id="m9cd9dbeac9" d="M 0 0 
L -3.5 0 
" style="stroke: #000000; stroke-width: 0.8"/>
      </defs>
      <g>
       <use xlink:href="#m9cd9dbeac9" x="69.941094" y="285.658762" style="stroke: #000000; stroke-width: 0.8"/>
      </g>
     </g>
     <g id="text_8">
      <!-- 0 -->
      <g transform="translate(55.306094 290.217356) scale(0.12 -0.12)">
       <defs>
        <path id="DejaVuSans-13" d="M 2034 4250 
Q 1547 4250 1301 3770 
Q 1056 3291 1056 2328 
Q 1056 1369 1301 889 
Q 1547 409 2034 409 
Q 2525 409 2770 889 
Q 3016 1369 3016 2328 
Q 3016 3291 2770 3770 
Q 2525 4250 2034 4250 
z
M 2034 4750 
Q 2819 4750 3233 4129 
Q 3647 3509 3647 2328 
Q 3647 1150 3233 529 
Q 2819 -91 2034 -91 
Q 1250 -91 836 529 
Q 422 1150 422 2328 
Q 422 3509 836 4129 
Q 1250 4750 2034 4750 
z
" transform="scale(0.015625)"/>
       </defs>
       <use xlink:href="#DejaVuSans-13"/>
      </g>
     </g>
    </g>
    <g id="ytick_2">
     <g id="line2d_17">
      <path d="M 69.941094 236.318055 
L 889.501094 236.318055 
" clip-path="url(#p4e919d8449)" style="fill: none; stroke-dasharray: 2.96,1.28; stroke-dashoffset: 0; stroke: #b0b0b0; stroke-opacity: 0.25; stroke-width: 0.8"/>
     </g>
     <g id="line2d_18">
      <g>
       <use xlink:href="#m9cd9dbeac9" x="69.941094" y="236.318055" style="stroke: #000000; stroke-width: 0.8"/>
      </g>
     </g>
     <g id="text_9">
      <!-- 500 -->
      <g transform="translate(40.036094 240.876649) scale(0.12 -0.12)">
       <defs>
        <path id="DejaVuSans-18" d="M 691 4666 
L 3169 4666 
L 3169 4134 
L 1269 4134 
L 1269 2991 
Q 1406 3038 1543 3061 
Q 1681 3084 1819 3084 
Q 2600 3084 3056 2656 
Q 3513 2228 3513 1497 
Q 3513 744 3044 326 
Q 2575 -91 1722 -91 
Q 1428 -91 1123 -41 
Q 819 9 494 109 
L 494 744 
Q 775 591 1075 516 
Q 1375 441 1709 441 
Q 2250 441 2565 725 
Q 2881 1009 2881 1497 
Q 2881 1984 2565 2268 
Q 2250 2553 1709 2553 
Q 1456 2553 1204 2497 
Q 953 2441 691 2322 
L 691 4666 
z
" transform="scale(0.015625)"/>
       </defs>
       <use xlink:href="#DejaVuSans-18"/>
       <use xlink:href="#DejaVuSans-13" transform="translate(63.625 0)"/>
       <use xlink:href="#DejaVuSans-13" transform="translate(127.25 0)"/>
      </g>
     </g>
    </g>
    <g id="ytick_3">
     <g id="line2d_19">
      <path d="M 69.941094 186.977348 
L 889.501094 186.977348 
" clip-path="url(#p4e919d8449)" style="fill: none; stroke-dasharray: 2.96,1.28; stroke-dashoffset: 0; stroke: #b0b0b0; stroke-opacity: 0.25; stroke-width: 0.8"/>
     </g>
     <g id="line2d_20">
      <g>
       <use xlink:href="#m9cd9dbeac9" x="69.941094" y="186.977348" style="stroke: #000000; stroke-width: 0.8"/>
      </g>
     </g>
     <g id="text_10">
      <!-- 1000 -->
      <g transform="translate(32.401094 191.535942) scale(0.12 -0.12)">
       <use xlink:href="#DejaVuSans-14"/>
       <use xlink:href="#DejaVuSans-13" transform="translate(63.625 0)"/>
       <use xlink:href="#DejaVuSans-13" transform="translate(127.25 0)"/>
       <use xlink:href="#DejaVuSans-13" transform="translate(190.875 0)"/>
      </g>
     </g>
    </g>
    <g id="ytick_4">
     <g id="line2d_21">
      <path d="M 69.941094 137.636641 
L 889.501094 137.636641 
" clip-path="url(#p4e919d8449)" style="fill: none; stroke-dasharray: 2.96,1.28; stroke-dashoffset: 0; stroke: #b0b0b0; stroke-opacity: 0.25; stroke-width: 0.8"/>
     </g>
     <g id="line2d_22">
      <g>
       <use xlink:href="#m9cd9dbeac9" x="69.941094" y="137.636641" style="stroke: #000000; stroke-width: 0.8"/>
      </g>
     </g>
     <g id="text_11">
      <!-- 1500 -->
      <g transform="translate(32.401094 142.195235) scale(0.12 -0.12)">
       <use xlink:href="#DejaVuSans-14"/>
       <use xlink:href="#DejaVuSans-18" transform="translate(63.625 0)"/>
       <use xlink:href="#DejaVuSans-13" transform="translate(127.25 0)"/>
       <use xlink:href="#DejaVuSans-13" transform="translate(190.875 0)"/>
      </g>
     </g>
    </g>
    <g id="ytick_5">
     <g id="line2d_23">
      <path d="M 69.941094 88.295934 
L 889.501094 88.295934 
" clip-path="url(#p4e919d8449)" style="fill: none; stroke-dasharray: 2.96,1.28; stroke-dashoffset: 0; stroke: #b0b0b0; stroke-opacity: 0.25; stroke-width: 0.8"/>
     </g>
     <g id="line2d_24">
      <g>
       <use xlink:href="#m9cd9dbeac9" x="69.941094" y="88.295934" style="stroke: #000000; stroke-width: 0.8"/>
      </g>
     </g>
     <g id="text_12">
      <!-- 2000 -->
      <g transform="translate(32.401094 92.854528) scale(0.12 -0.12)">
       <use xlink:href="#DejaVuSans-15"/>
       <use xlink:href="#DejaVuSans-13" transform="translate(63.625 0)"/>
       <use xlink:href="#DejaVuSans-13" transform="translate(127.25 0)"/>
       <use xlink:href="#DejaVuSans-13" transform="translate(190.875 0)"/>
      </g>
     </g>
    </g>
    <g id="text_13">
     <!-- One-step forward latency (ms) -->
     <g transform="translate(25.037813 271.942819) rotate(-90) scale(0.14 -0.14)">
      <defs>
       <path id="DejaVuSans-32" d="M 2522 4238 
Q 1834 4238 1429 3725 
Q 1025 3213 1025 2328 
Q 1025 1447 1429 934 
Q 1834 422 2522 422 
Q 3209 422 3611 934 
Q 4013 1447 4013 2328 
Q 4013 3213 3611 3725 
Q 3209 4238 2522 4238 
z
M 2522 4750 
Q 3503 4750 4090 4092 
Q 4678 3434 4678 2328 
Q 4678 1225 4090 567 
Q 3503 -91 2522 -91 
Q 1538 -91 948 565 
Q 359 1222 359 2328 
Q 359 3434 948 4092 
Q 1538 4750 2522 4750 
z
" transform="scale(0.015625)"/>
       <path id="DejaVuSans-51" d="M 3513 2113 
L 3513 0 
L 2938 0 
L 2938 2094 
Q 2938 2591 2744 2837 
Q 2550 3084 2163 3084 
Q 1697 3084 1428 2787 
Q 1159 2491 1159 1978 
L 1159 0 
L 581 0 
L 581 3500 
L 1159 3500 
L 1159 2956 
Q 1366 3272 1645 3428 
Q 1925 3584 2291 3584 
Q 2894 3584 3203 3211 
Q 3513 2838 3513 2113 
z
" transform="scale(0.015625)"/>
       <path id="DejaVuSans-10" d="M 313 2009 
L 1997 2009 
L 1997 1497 
L 313 1497 
L 313 2009 
z
" transform="scale(0.015625)"/>
       <path id="DejaVuSans-5a" d="M 269 3500 
L 844 3500 
L 1563 769 
L 2278 3500 
L 2956 3500 
L 3675 769 
L 4391 3500 
L 4966 3500 
L 4050 0 
L 3372 0 
L 2619 2869 
L 1863 0 
L 1184 0 
L 269 3500 
z
" transform="scale(0.015625)"/>
       <path id="DejaVuSans-4f" d="M 603 4863 
L 1178 4863 
L 1178 0 
L 603 0 
L 603 4863 
z
" transform="scale(0.015625)"/>
       <path id="DejaVuSans-b" d="M 1984 4856 
Q 1566 4138 1362 3434 
Q 1159 2731 1159 2009 
Q 1159 1288 1364 580 
Q 1569 -128 1984 -844 
L 1484 -844 
Q 1016 -109 783 600 
Q 550 1309 550 2009 
Q 550 2706 781 3412 
Q 1013 4119 1484 4856 
L 1984 4856 
z
" transform="scale(0.015625)"/>
       <path id="DejaVuSans-c" d="M 513 4856 
L 1013 4856 
Q 1481 4119 1714 3412 
Q 1947 2706 1947 2009 
Q 1947 1309 1714 600 
Q 1481 -109 1013 -844 
L 513 -844 
Q 928 -128 1133 580 
Q 1338 1288 1338 2009 
Q 1338 2731 1133 3434 
Q 928 4138 513 4856 
z
" transform="scale(0.015625)"/>
      </defs>
      <use xlink:href="#DejaVuSans-32"/>
      <use xlink:href="#DejaVuSans-51" transform="translate(78.71875 0)"/>
      <use xlink:href="#DejaVuSans-48" transform="translate(142.09375 0)"/>
      <use xlink:href="#DejaVuSans-10" transform="translate(203.625 0)"/>
      <use xlink:href="#DejaVuSans-56" transform="translate(239.703125 0)"/>
      <use xlink:href="#DejaVuSans-57" transform="translate(291.796875 0)"/>
      <use xlink:href="#DejaVuSans-48" transform="translate(331 0)"/>
      <use xlink:href="#DejaVuSans-53" transform="translate(392.53125 0)"/>
      <use xlink:href="#DejaVuSans-3" transform="translate(456.015625 0)"/>
      <use xlink:href="#DejaVuSans-49" transform="translate(487.796875 0)"/>
      <use xlink:href="#DejaVuSans-52" transform="translate(523 0)"/>
      <use xlink:href="#DejaVuSans-55" transform="translate(584.1875 0)"/>
      <use xlink:href="#DejaVuSans-5a" transform="translate(625.296875 0)"/>
      <use xlink:href="#DejaVuSans-44" transform="translate(707.078125 0)"/>
      <use xlink:href="#DejaVuSans-55" transform="translate(768.359375 0)"/>
      <use xlink:href="#DejaVuSans-47" transform="translate(807.71875 0)"/>
      <use xlink:href="#DejaVuSans-3" transform="translate(871.203125 0)"/>
      <use xlink:href="#DejaVuSans-4f" transform="translate(902.984375 0)"/>
      <use xlink:href="#DejaVuSans-44" transform="translate(930.765625 0)"/>
      <use xlink:href="#DejaVuSans-57" transform="translate(992.046875 0)"/>
      <use xlink:href="#DejaVuSans-48" transform="translate(1031.25 0)"/>
      <use xlink:href="#DejaVuSans-51" transform="translate(1092.78125 0)"/>
      <use xlink:href="#DejaVuSans-46" transform="translate(1156.15625 0)"/>
      <use xlink:href="#DejaVuSans-5c" transform="translate(1211.140625 0)"/>
      <use xlink:href="#DejaVuSans-3" transform="translate(1270.328125 0)"/>
      <use xlink:href="#DejaVuSans-b" transform="translate(1302.109375 0)"/>
      <use xlink:href="#DejaVuSans-50" transform="translate(1341.125 0)"/>
      <use xlink:href="#DejaVuSans-56" transform="translate(1438.53125 0)"/>
      <use xlink:href="#DejaVuSans-c" transform="translate(1490.625 0)"/>
     </g>
    </g>
   </g>
   <g id="LineCollection_1">
    <path d="M 69.941094 75.644977 
L 793.070993 75.644977 
" clip-path="url(#p4e919d8449)" style="fill: none; stroke-dasharray: 4.81,2.08; stroke-dashoffset: 0; stroke: #0d7377; stroke-opacity: 0.75; stroke-width: 1.3"/>
   </g>
   <g id="LineCollection_2">
    <path d="M 69.941094 69.960928 
L 808.647426 69.960928 
" clip-path="url(#p4e919d8449)" style="fill: none; stroke-dasharray: 4.81,2.08; stroke-dashoffset: 0; stroke: #14919b; stroke-opacity: 0.75; stroke-width: 1.3"/>
   </g>
   <g id="LineCollection_3">
    <path d="M 69.941094 82.187555 
L 824.223859 82.187555 
" clip-path="url(#p4e919d8449)" style="fill: none; stroke-dasharray: 4.81,2.08; stroke-dashoffset: 0; stroke: #c45c26; stroke-opacity: 0.75; stroke-width: 1.3"/>
   </g>
   <g id="LineCollection_4">
    <path d="M 69.941094 88.828814 
L 839.800291 88.828814 
" clip-path="url(#p4e919d8449)" style="fill: none; stroke-dasharray: 4.81,2.08; stroke-dashoffset: 0; stroke: #90a4ae; stroke-opacity: 0.75; stroke-width: 1.3"/>
   </g>
   <g id="LineCollection_5">
    <path d="M 69.941094 118.729283 
L 855.376724 118.729283 
" clip-path="url(#p4e919d8449)" style="fill: none; stroke-dasharray: 4.81,2.08; stroke-dashoffset: 0; stroke: #78909c; stroke-opacity: 0.75; stroke-width: 1.3"/>
   </g>
   <g id="LineCollection_6">
    <path d="M 69.941094 82.384918 
L 870.953157 82.384918 
" clip-path="url(#p4e919d8449)" style="fill: none; stroke-dasharray: 4.81,2.08; stroke-dashoffset: 0; stroke: #5c7a86; stroke-opacity: 0.75; stroke-width: 1.3"/>
   </g>
   <g id="patch_3">
    <path d="M 69.941094 285.658762 
L 69.941094 44.077187 
" style="fill: none; stroke: #000000; stroke-width: 0.8; stroke-linejoin: miter; stroke-linecap: square"/>
   </g>
   <g id="patch_4">
    <path d="M 69.941094 285.658762 
L 889.501094 285.658762 
" style="fill: none; stroke: #000000; stroke-width: 0.8; stroke-linejoin: miter; stroke-linecap: square"/>
   </g>
   <g id="patch_5">
    <path d="M 74.158712 285.658762 
L 88.489031 285.658762 
L 88.489031 218.910654 
L 74.158712 218.910654 
z
" clip-path="url(#p4e919d8449)" style="fill: #0d7377; stroke: #ffffff; stroke-width: 0.4; stroke-linejoin: miter"/>
   </g>
   <g id="patch_6">
    <path d="M 193.977426 285.658762 
L 208.307744 285.658762 
L 208.307744 218.871181 
L 193.977426 218.871181 
z
" clip-path="url(#p4e919d8449)" style="fill: #0d7377; stroke: #ffffff; stroke-width: 0.4; stroke-linejoin: miter"/>
   </g>
   <g id="patch_7">
    <path d="M 313.796139 285.658762 
L 328.126457 285.658762 
L 328.126457 179.329539 
L 313.796139 179.329539 
z
" clip-path="url(#p4e919d8449)" style="fill: #0d7377; stroke: #ffffff; stroke-width: 0.4; stroke-linejoin: miter"/>
   </g>
   <g id="patch_8">
    <path d="M 433.614853 285.658762 
L 447.945171 285.658762 
L 447.945171 194.950807 
L 433.614853 194.950807 
z
" clip-path="url(#p4e919d8449)" style="fill: #0d7377; stroke: #ffffff; stroke-width: 0.4; stroke-linejoin: miter"/>
   </g>
   <g id="patch_9">
    <path d="M 553.433566 285.658762 
L 567.763884 285.658762 
L 567.763884 93.723412 
L 553.433566 93.723412 
z
" clip-path="url(#p4e919d8449)" style="fill: #0d7377; stroke: #ffffff; stroke-width: 0.4; stroke-linejoin: miter"/>
   </g>
   <g id="patch_10">
    <path d="M 673.25228 285.658762 
L 687.582598 285.658762 
L 687.582598 186.54315 
L 673.25228 186.54315 
z
" clip-path="url(#p4e919d8449)" style="fill: #0d7377; stroke: #ffffff; stroke-width: 0.4; stroke-linejoin: miter"/>
   </g>
   <g id="patch_11">
    <path d="M 793.070993 285.658762 
L 807.401311 285.658762 
L 807.401311 75.644977 
L 793.070993 75.644977 
z
" clip-path="url(#p4e919d8449)" style="fill: #0d7377; stroke: #ffffff; stroke-width: 0.4; stroke-linejoin: miter"/>
   </g>
   <g id="patch_12">
    <path d="M 89.735145 285.658762 
L 104.065463 285.658762 
L 104.065463 216.502828 
L 89.735145 216.502828 
z
" clip-path="url(#p4e919d8449)" style="fill: #14919b; stroke: #ffffff; stroke-width: 0.4; stroke-linejoin: miter"/>
   </g>
   <g id="patch_13">
    <path d="M 209.553859 285.658762 
L 223.884177 285.658762 
L 223.884177 216.344937 
L 209.553859 216.344937 
z
" clip-path="url(#p4e919d8449)" style="fill: #14919b; stroke: #ffffff; stroke-width: 0.4; stroke-linejoin: miter"/>
   </g>
   <g id="patch_14">
    <path d="M 329.372572 285.658762 
L 343.70289 285.658762 
L 343.70289 176.19147 
L 329.372572 176.19147 
z
" clip-path="url(#p4e919d8449)" style="fill: #14919b; stroke: #ffffff; stroke-width: 0.4; stroke-linejoin: miter"/>
   </g>
   <g id="patch_15">
    <path d="M 449.191286 285.658762 
L 463.521604 285.658762 
L 463.521604 192.306145 
L 449.191286 192.306145 
z
" clip-path="url(#p4e919d8449)" style="fill: #14919b; stroke: #ffffff; stroke-width: 0.4; stroke-linejoin: miter"/>
   </g>
   <g id="patch_16">
    <path d="M 569.009999 285.658762 
L 583.340317 285.658762 
L 583.340317 87.743318 
L 569.009999 87.743318 
z
" clip-path="url(#p4e919d8449)" style="fill: #14919b; stroke: #ffffff; stroke-width: 0.4; stroke-linejoin: miter"/>
   </g>
   <g id="patch_17">
    <path d="M 688.828712 285.658762 
L 703.159031 285.658762 
L 703.159031 183.57284 
L 688.828712 183.57284 
z
" clip-path="url(#p4e919d8449)" style="fill: #14919b; stroke: #ffffff; stroke-width: 0.4; stroke-linejoin: miter"/>
   </g>
   <g id="patch_18">
    <path d="M 808.647426 285.658762 
L 822.977744 285.658762 
L 822.977744 69.960928 
L 808.647426 69.960928 
z
" clip-path="url(#p4e919d8449)" style="fill: #14919b; stroke: #ffffff; stroke-width: 0.4; stroke-linejoin: miter"/>
   </g>
   <g id="patch_19">
    <path d="M 105.311578 285.658762 
L 119.641896 285.658762 
L 119.641896 222.630943 
L 105.311578 222.630943 
z
" clip-path="url(#p4e919d8449)" style="fill: #c45c26; stroke: #ffffff; stroke-width: 0.4; stroke-linejoin: miter"/>
   </g>
   <g id="patch_20">
    <path d="M 225.130291 285.658762 
L 239.46061 285.658762 
L 239.46061 222.660548 
L 225.130291 222.660548 
z
" clip-path="url(#p4e919d8449)" style="fill: #c45c26; stroke: #ffffff; stroke-width: 0.4; stroke-linejoin: miter"/>
   </g>
   <g id="patch_21">
    <path d="M 344.949005 285.658762 
L 359.279323 285.658762 
L 359.279323 186.355656 
L 344.949005 186.355656 
z
" clip-path="url(#p4e919d8449)" style="fill: #c45c26; stroke: #ffffff; stroke-width: 0.4; stroke-linejoin: miter"/>
   </g>
   <g id="patch_22">
    <path d="M 464.767718 285.658762 
L 479.098036 285.658762 
L 479.098036 202.124946 
L 464.767718 202.124946 
z
" clip-path="url(#p4e919d8449)" style="fill: #c45c26; stroke: #ffffff; stroke-width: 0.4; stroke-linejoin: miter"/>
   </g>
   <g id="patch_23">
    <path d="M 584.586432 285.658762 
L 598.91675 285.658762 
L 598.91675 99.111417 
L 584.586432 99.111417 
z
" clip-path="url(#p4e919d8449)" style="fill: #c45c26; stroke: #ffffff; stroke-width: 0.4; stroke-linejoin: miter"/>
   </g>
   <g id="patch_24">
    <path d="M 704.405145 285.658762 
L 718.735463 285.658762 
L 718.735463 190.164758 
L 704.405145 190.164758 
z
" clip-path="url(#p4e919d8449)" style="fill: #c45c26; stroke: #ffffff; stroke-width: 0.4; stroke-linejoin: miter"/>
   </g>
   <g id="patch_25">
    <path d="M 824.223859 285.658762 
L 838.554177 285.658762 
L 838.554177 82.187555 
L 824.223859 82.187555 
z
" clip-path="url(#p4e919d8449)" style="fill: #c45c26; stroke: #ffffff; stroke-width: 0.4; stroke-linejoin: miter"/>
   </g>
   <g id="patch_26">
    <path d="M 120.888011 285.658762 
L 135.218329 285.658762 
L 135.218329 219.344852 
L 120.888011 219.344852 
z
" clip-path="url(#p4e919d8449)" style="fill: #90a4ae; stroke: #ffffff; stroke-width: 0.4; stroke-linejoin: miter"/>
   </g>
   <g id="patch_27">
    <path d="M 240.706724 285.658762 
L 255.037042 285.658762 
L 255.037042 219.30538 
L 240.706724 219.30538 
z
" clip-path="url(#p4e919d8449)" style="fill: #90a4ae; stroke: #ffffff; stroke-width: 0.4; stroke-linejoin: miter"/>
   </g>
   <g id="patch_28">
    <path d="M 360.525438 285.658762 
L 374.855756 285.658762 
L 374.855756 185.013588 
L 360.525438 185.013588 
z
" clip-path="url(#p4e919d8449)" style="fill: #90a4ae; stroke: #ffffff; stroke-width: 0.4; stroke-linejoin: miter"/>
   </g>
   <g id="patch_29">
    <path d="M 480.344151 285.658762 
L 494.674469 285.658762 
L 494.674469 200.664461 
L 480.344151 200.664461 
z
" clip-path="url(#p4e919d8449)" style="fill: #90a4ae; stroke: #ffffff; stroke-width: 0.4; stroke-linejoin: miter"/>
   </g>
   <g id="patch_30">
    <path d="M 600.162865 285.658762 
L 614.493183 285.658762 
L 614.493183 104.282323 
L 600.162865 104.282323 
z
" clip-path="url(#p4e919d8449)" style="fill: #90a4ae; stroke: #ffffff; stroke-width: 0.4; stroke-linejoin: miter"/>
   </g>
   <g id="patch_31">
    <path d="M 719.981578 285.658762 
L 734.311896 285.658762 
L 734.311896 188.339152 
L 719.981578 188.339152 
z
" clip-path="url(#p4e919d8449)" style="fill: #90a4ae; stroke: #ffffff; stroke-width: 0.4; stroke-linejoin: miter"/>
   </g>
   <g id="patch_32">
    <path d="M 839.800291 285.658762 
L 854.13061 285.658762 
L 854.13061 88.828814 
L 839.800291 88.828814 
z
" clip-path="url(#p4e919d8449)" style="fill: #90a4ae; stroke: #ffffff; stroke-width: 0.4; stroke-linejoin: miter"/>
   </g>
   <g id="patch_33">
    <path d="M 136.464443 285.658762 
L 150.794762 285.658762 
L 150.794762 229.311675 
L 136.464443 229.311675 
z
" clip-path="url(#p4e919d8449)" style="fill: #78909c; stroke: #ffffff; stroke-width: 0.4; stroke-linejoin: miter"/>
   </g>
   <g id="patch_34">
    <path d="M 256.283157 285.658762 
L 270.613475 285.658762 
L 270.613475 229.222862 
L 256.283157 229.222862 
z
" clip-path="url(#p4e919d8449)" style="fill: #78909c; stroke: #ffffff; stroke-width: 0.4; stroke-linejoin: miter"/>
   </g>
   <g id="patch_35">
    <path d="M 376.10187 285.658762 
L 390.432188 285.658762 
L 390.432188 195.217247 
L 376.10187 195.217247 
z
" clip-path="url(#p4e919d8449)" style="fill: #78909c; stroke: #ffffff; stroke-width: 0.4; stroke-linejoin: miter"/>
   </g>
   <g id="patch_36">
    <path d="M 495.920584 285.658762 
L 510.250902 285.658762 
L 510.250902 214.775903 
L 495.920584 214.775903 
z
" clip-path="url(#p4e919d8449)" style="fill: #78909c; stroke: #ffffff; stroke-width: 0.4; stroke-linejoin: miter"/>
   </g>
   <g id="patch_37">
    <path d="M 615.739297 285.658762 
L 630.069615 285.658762 
L 630.069615 131.488789 
L 615.739297 131.488789 
z
" clip-path="url(#p4e919d8449)" style="fill: #78909c; stroke: #ffffff; stroke-width: 0.4; stroke-linejoin: miter"/>
   </g>
   <g id="patch_38">
    <path d="M 735.558011 285.658762 
L 749.888329 285.658762 
L 749.888329 197.970458 
L 735.558011 197.970458 
z
" clip-path="url(#p4e919d8449)" style="fill: #78909c; stroke: #ffffff; stroke-width: 0.4; stroke-linejoin: miter"/>
   </g>
   <g id="patch_39">
    <path d="M 855.376724 285.658762 
L 869.707042 285.658762 
L 869.707042 118.729283 
L 855.376724 118.729283 
z
" clip-path="url(#p4e919d8449)" style="fill: #78909c; stroke: #ffffff; stroke-width: 0.4; stroke-linejoin: miter"/>
   </g>
   <g id="patch_40">
    <path d="M 152.040876 285.658762 
L 166.371194 285.658762 
L 166.371194 222.65068 
L 152.040876 222.65068 
z
" clip-path="url(#p4e919d8449)" style="fill: #5c7a86; stroke: #ffffff; stroke-width: 0.4; stroke-linejoin: miter"/>
   </g>
   <g id="patch_41">
    <path d="M 271.85959 285.658762 
L 286.189908 285.658762 
L 286.189908 222.670416 
L 271.85959 222.670416 
z
" clip-path="url(#p4e919d8449)" style="fill: #5c7a86; stroke: #ffffff; stroke-width: 0.4; stroke-linejoin: miter"/>
   </g>
   <g id="patch_42">
    <path d="M 391.678303 285.658762 
L 406.008621 285.658762 
L 406.008621 186.375392 
L 391.678303 186.375392 
z
" clip-path="url(#p4e919d8449)" style="fill: #5c7a86; stroke: #ffffff; stroke-width: 0.4; stroke-linejoin: miter"/>
   </g>
   <g id="patch_43">
    <path d="M 511.497017 285.658762 
L 525.827335 285.658762 
L 525.827335 202.075605 
L 511.497017 202.075605 
z
" clip-path="url(#p4e919d8449)" style="fill: #5c7a86; stroke: #ffffff; stroke-width: 0.4; stroke-linejoin: miter"/>
   </g>
   <g id="patch_44">
    <path d="M 631.31573 285.658762 
L 645.646048 285.658762 
L 645.646048 99.062077 
L 631.31573 99.062077 
z
" clip-path="url(#p4e919d8449)" style="fill: #5c7a86; stroke: #ffffff; stroke-width: 0.4; stroke-linejoin: miter"/>
   </g>
   <g id="patch_45">
    <path d="M 751.134443 285.658762 
L 765.464762 285.658762 
L 765.464762 190.194363 
L 751.134443 190.194363 
z
" clip-path="url(#p4e919d8449)" style="fill: #5c7a86; stroke: #ffffff; stroke-width: 0.4; stroke-linejoin: miter"/>
   </g>
   <g id="patch_46">
    <path d="M 870.953157 285.658762 
L 885.283475 285.658762 
L 885.283475 82.384918 
L 870.953157 82.384918 
z
" clip-path="url(#p4e919d8449)" style="fill: #5c7a86; stroke: #ffffff; stroke-width: 0.4; stroke-linejoin: miter"/>
   </g>
   <g id="text_14">
    <!-- dashed = each model's PyTorch FP32 ref baseline -->
    <g style="fill: #555555" transform="translate(69.941094 56.369504) scale(0.105 -0.105)">
     <defs>
      <path id="DejaVuSans-Oblique-47" d="M 2675 525 
Q 2444 222 2128 65 
Q 1813 -91 1428 -91 
Q 903 -91 598 267 
Q 294 625 294 1247 
Q 294 1766 478 2236 
Q 663 2706 1013 3078 
Q 1244 3325 1534 3454 
Q 1825 3584 2144 3584 
Q 2481 3584 2739 3421 
Q 2997 3259 3138 2956 
L 3513 4863 
L 4091 4863 
L 3144 0 
L 2566 0 
L 2675 525 
z
M 891 1350 
Q 891 897 1095 644 
Q 1300 391 1663 391 
Q 1931 391 2161 520 
Q 2391 650 2566 903 
Q 2750 1166 2856 1509 
Q 2963 1853 2963 2188 
Q 2963 2622 2758 2865 
Q 2553 3109 2194 3109 
Q 1922 3109 1687 2981 
Q 1453 2853 1288 2613 
Q 1106 2353 998 2009 
Q 891 1666 891 1350 
z
" transform="scale(0.015625)"/>
      <path id="DejaVuSans-Oblique-44" d="M 3438 1997 
L 3047 0 
L 2472 0 
L 2578 531 
Q 2325 219 2001 64 
Q 1678 -91 1281 -91 
Q 834 -91 548 182 
Q 263 456 263 884 
Q 263 1497 752 1853 
Q 1241 2209 2100 2209 
L 2900 2209 
L 2931 2363 
Q 2938 2388 2941 2417 
Q 2944 2447 2944 2509 
Q 2944 2788 2717 2942 
Q 2491 3097 2081 3097 
Q 1800 3097 1504 3025 
Q 1209 2953 897 2809 
L 997 3341 
Q 1322 3463 1633 3523 
Q 1944 3584 2234 3584 
Q 2853 3584 3176 3315 
Q 3500 3047 3500 2534 
Q 3500 2431 3484 2292 
Q 3469 2153 3438 1997 
z
M 2816 1759 
L 2241 1759 
Q 1534 1759 1195 1570 
Q 856 1381 856 984 
Q 856 709 1029 553 
Q 1203 397 1509 397 
Q 1978 397 2328 733 
Q 2678 1069 2791 1631 
L 2816 1759 
z
" transform="scale(0.015625)"/>
      <path id="DejaVuSans-Oblique-56" d="M 3200 3397 
L 3091 2853 
Q 2863 2978 2609 3040 
Q 2356 3103 2088 3103 
Q 1634 3103 1373 2948 
Q 1113 2794 1113 2528 
Q 1113 2219 1719 2053 
Q 1766 2041 1788 2034 
L 1972 1978 
Q 2547 1819 2739 1644 
Q 2931 1469 2931 1166 
Q 2931 609 2489 259 
Q 2047 -91 1331 -91 
Q 1053 -91 747 -37 
Q 441 16 72 128 
L 184 722 
Q 500 559 806 475 
Q 1113 391 1394 391 
Q 1816 391 2080 572 
Q 2344 753 2344 1031 
Q 2344 1331 1650 1516 
L 1591 1531 
L 1394 1581 
Q 956 1697 753 1886 
Q 550 2075 550 2369 
Q 550 2928 970 3256 
Q 1391 3584 2113 3584 
Q 2397 3584 2667 3537 
Q 2938 3491 3200 3397 
z
" transform="scale(0.015625)"/>
      <path id="DejaVuSans-Oblique-4b" d="M 3566 2113 
L 3156 0 
L 2578 0 
L 2988 2091 
Q 3016 2238 3031 2350 
Q 3047 2463 3047 2528 
Q 3047 2791 2881 2937 
Q 2716 3084 2419 3084 
Q 1956 3084 1617 2771 
Q 1278 2459 1178 1941 
L 800 0 
L 225 0 
L 1172 4863 
L 1747 4863 
L 1375 2950 
Q 1594 3244 1934 3414 
Q 2275 3584 2650 3584 
Q 3113 3584 3367 3334 
Q 3622 3084 3622 2631 
Q 3622 2519 3608 2391 
Q 3594 2263 3566 2113 
z
" transform="scale(0.015625)"/>
      <path id="DejaVuSans-Oblique-48" d="M 3078 2063 
Q 3088 2113 3092 2166 
Q 3097 2219 3097 2272 
Q 3097 2653 2873 2875 
Q 2650 3097 2266 3097 
Q 1838 3097 1509 2826 
Q 1181 2556 1013 2059 
L 3078 2063 
z
M 3578 1613 
L 903 1613 
Q 884 1494 878 1425 
Q 872 1356 872 1306 
Q 872 872 1139 634 
Q 1406 397 1894 397 
Q 2269 397 2603 481 
Q 2938 566 3225 728 
L 3116 159 
Q 2806 34 2476 -28 
Q 2147 -91 1806 -91 
Q 1078 -91 686 257 
Q 294 606 294 1247 
Q 294 1794 489 2264 
Q 684 2734 1063 3103 
Q 1306 3334 1642 3459 
Q 1978 3584 2356 3584 
Q 2950 3584 3301 3228 
Q 3653 2872 3653 2272 
Q 3653 2128 3634 1964 
Q 3616 1800 3578 1613 
z
" transform="scale(0.015625)"/>
      <path id="DejaVuSans-Oblique-3" transform="scale(0.015625)"/>
      <path id="DejaVuSans-Oblique-20" d="M 678 2906 
L 4684 2906 
L 4684 2381 
L 678 2381 
L 678 2906 
z
M 678 1631 
L 4684 1631 
L 4684 1100 
L 678 1100 
L 678 1631 
z
" transform="scale(0.015625)"/>
      <path id="DejaVuSans-Oblique-46" d="M 3431 3366 
L 3316 2797 
Q 3109 2947 2876 3022 
Q 2644 3097 2394 3097 
Q 2119 3097 1870 3000 
Q 1622 2903 1453 2725 
Q 1184 2453 1037 2087 
Q 891 1722 891 1331 
Q 891 859 1127 628 
Q 1363 397 1844 397 
Q 2081 397 2348 469 
Q 2616 541 2906 684 
L 2797 116 
Q 2547 13 2283 -39 
Q 2019 -91 1741 -91 
Q 1044 -91 669 257 
Q 294 606 294 1253 
Q 294 1797 489 2255 
Q 684 2713 1069 3078 
Q 1331 3328 1684 3456 
Q 2038 3584 2456 3584 
Q 2700 3584 2940 3529 
Q 3181 3475 3431 3366 
z
" transform="scale(0.015625)"/>
      <path id="DejaVuSans-Oblique-50" d="M 5747 2113 
L 5338 0 
L 4763 0 
L 5166 2094 
Q 5191 2228 5203 2325 
Q 5216 2422 5216 2491 
Q 5216 2772 5059 2928 
Q 4903 3084 4622 3084 
Q 4203 3084 3875 2770 
Q 3547 2456 3450 1953 
L 3066 0 
L 2491 0 
L 2900 2094 
Q 2925 2209 2937 2307 
Q 2950 2406 2950 2484 
Q 2950 2769 2794 2926 
Q 2638 3084 2363 3084 
Q 1938 3084 1609 2770 
Q 1281 2456 1184 1953 
L 800 0 
L 225 0 
L 909 3500 
L 1484 3500 
L 1375 2956 
Q 1609 3263 1923 3423 
Q 2238 3584 2597 3584 
Q 2978 3584 3223 3384 
Q 3469 3184 3519 2828 
Q 3781 3197 4126 3390 
Q 4472 3584 4856 3584 
Q 5306 3584 5551 3325 
Q 5797 3066 5797 2591 
Q 5797 2488 5784 2364 
Q 5772 2241 5747 2113 
z
" transform="scale(0.015625)"/>
      <path id="DejaVuSans-Oblique-52" d="M 1625 -91 
Q 1009 -91 651 289 
Q 294 669 294 1325 
Q 294 1706 417 2101 
Q 541 2497 738 2766 
Q 1047 3184 1428 3384 
Q 1809 3584 2291 3584 
Q 2888 3584 3255 3212 
Q 3622 2841 3622 2241 
Q 3622 1825 3500 1412 
Q 3378 1000 3181 728 
Q 2875 309 2494 109 
Q 2113 -91 1625 -91 
z
M 891 1344 
Q 891 869 1089 633 
Q 1288 397 1691 397 
Q 2269 397 2648 901 
Q 3028 1406 3028 2181 
Q 3028 2634 2825 2865 
Q 2622 3097 2228 3097 
Q 1903 3097 1650 2945 
Q 1397 2794 1197 2484 
Q 1050 2253 970 1956 
Q 891 1659 891 1344 
z
" transform="scale(0.015625)"/>
      <path id="DejaVuSans-Oblique-4f" d="M 1172 4863 
L 1747 4863 
L 800 0 
L 225 0 
L 1172 4863 
z
" transform="scale(0.015625)"/>
      <path id="DejaVuSans-Oblique-a" d="M 1147 4666 
L 1147 2931 
L 616 2931 
L 616 4666 
L 1147 4666 
z
" transform="scale(0.015625)"/>
      <path id="DejaVuSans-Oblique-33" d="M 1081 4666 
L 2541 4666 
Q 3178 4666 3512 4369 
Q 3847 4072 3847 3500 
Q 3847 2731 3353 2303 
Q 2859 1875 1966 1875 
L 1172 1875 
L 806 0 
L 172 0 
L 1081 4666 
z
M 1613 4147 
L 1275 2394 
L 2069 2394 
Q 2606 2394 2893 2669 
Q 3181 2944 3181 3456 
Q 3181 3784 2986 3965 
Q 2791 4147 2438 4147 
L 1613 4147 
z
" transform="scale(0.015625)"/>
      <path id="DejaVuSans-Oblique-5c" d="M 1588 -325 
Q 1188 -997 936 -1164 
Q 684 -1331 294 -1331 
L -159 -1331 
L -63 -850 
L 269 -850 
Q 509 -850 678 -719 
Q 847 -588 1056 -206 
L 1234 128 
L 459 3500 
L 1069 3500 
L 1650 819 
L 3256 3500 
L 3859 3500 
L 1588 -325 
z
" transform="scale(0.015625)"/>
      <path id="DejaVuSans-Oblique-37" d="M 378 4666 
L 4325 4666 
L 4225 4134 
L 2559 4134 
L 1759 0 
L 1125 0 
L 1925 4134 
L 275 4134 
L 378 4666 
z
" transform="scale(0.015625)"/>
      <path id="DejaVuSans-Oblique-55" d="M 2853 2969 
Q 2766 3016 2653 3041 
Q 2541 3066 2413 3066 
Q 1953 3066 1609 2717 
Q 1266 2369 1153 1784 
L 800 0 
L 225 0 
L 909 3500 
L 1484 3500 
L 1375 2956 
Q 1603 3259 1920 3421 
Q 2238 3584 2597 3584 
Q 2691 3584 2781 3573 
Q 2872 3563 2963 3538 
L 2853 2969 
z
" transform="scale(0.015625)"/>
      <path id="DejaVuSans-Oblique-29" d="M 1081 4666 
L 3756 4666 
L 3653 4134 
L 1606 4134 
L 1338 2759 
L 3188 2759 
L 3084 2228 
L 1234 2228 
L 800 0 
L 172 0 
L 1081 4666 
z
" transform="scale(0.015625)"/>
      <path id="DejaVuSans-Oblique-16" d="M 1013 4550 
Q 1356 4650 1679 4700 
Q 2003 4750 2316 4750 
Q 2934 4750 3296 4475 
Q 3659 4200 3659 3738 
Q 3659 3284 3373 2959 
Q 3088 2634 2584 2516 
Q 2978 2403 3162 2165 
Q 3347 1928 3347 1538 
Q 3347 1163 3167 834 
Q 2988 506 2650 269 
Q 2394 88 2037 -1 
Q 1681 -91 1216 -91 
Q 922 -91 622 -33 
Q 322 25 13 141 
L 128 738 
Q 422 575 720 495 
Q 1019 416 1331 416 
Q 1947 416 2330 733 
Q 2713 1050 2713 1556 
Q 2713 1881 2469 2057 
Q 2225 2234 1772 2234 
L 1228 2234 
L 1325 2747 
L 1900 2747 
Q 2419 2747 2717 2984 
Q 3016 3222 3016 3628 
Q 3016 3922 2797 4083 
Q 2578 4244 2181 4244 
Q 1881 4244 1567 4180 
Q 1253 4116 916 3988 
L 1013 4550 
z
" transform="scale(0.015625)"/>
      <path id="DejaVuSans-Oblique-15" d="M 2950 2253 
L 934 525 
L 3163 525 
L 3053 0 
L 25 0 
L 128 531 
L 2234 2338 
Q 2656 2703 2832 2979 
Q 3009 3256 3009 3547 
Q 3009 3850 2796 4040 
Q 2584 4231 2241 4231 
Q 1944 4231 1581 4125 
Q 1219 4019 806 3816 
L 922 4441 
Q 1309 4594 1662 4672 
Q 2016 4750 2316 4750 
Q 2928 4750 3301 4425 
Q 3675 4100 3675 3572 
Q 3675 3216 3497 2892 
Q 3319 2569 2950 2253 
z
" transform="scale(0.015625)"/>
      <path id="DejaVuSans-Oblique-49" d="M 3059 4863 
L 2969 4384 
L 2419 4384 
Q 2106 4384 1964 4261 
Q 1822 4138 1753 3809 
L 1691 3500 
L 2638 3500 
L 2553 3053 
L 1606 3053 
L 1013 0 
L 434 0 
L 1031 3053 
L 481 3053 
L 563 3500 
L 1113 3500 
L 1159 3744 
Q 1278 4363 1576 4613 
Q 1875 4863 2516 4863 
L 3059 4863 
z
" transform="scale(0.015625)"/>
      <path id="DejaVuSans-Oblique-45" d="M 3169 2138 
Q 3169 2591 2961 2847 
Q 2753 3103 2388 3103 
Q 2122 3103 1889 2973 
Q 1656 2844 1484 2597 
Q 1303 2338 1198 1995 
Q 1094 1653 1094 1313 
Q 1094 881 1298 636 
Q 1503 391 1863 391 
Q 2134 391 2365 517 
Q 2597 644 2772 891 
Q 2950 1147 3059 1487 
Q 3169 1828 3169 2138 
z
M 1381 2969 
Q 1594 3256 1914 3420 
Q 2234 3584 2584 3584 
Q 3122 3584 3439 3221 
Q 3756 2859 3756 2241 
Q 3756 1734 3570 1259 
Q 3384 784 3041 416 
Q 2816 172 2522 40 
Q 2228 -91 1906 -91 
Q 1566 -91 1316 65 
Q 1066 222 909 531 
L 806 0 
L 231 0 
L 1178 4863 
L 1753 4863 
L 1381 2969 
z
" transform="scale(0.015625)"/>
      <path id="DejaVuSans-Oblique-4c" d="M 1172 4863 
L 1747 4863 
L 1606 4134 
L 1031 4134 
L 1172 4863 
z
M 909 3500 
L 1484 3500 
L 800 0 
L 225 0 
L 909 3500 
z
" transform="scale(0.015625)"/>
      <path id="DejaVuSans-Oblique-51" d="M 3566 2113 
L 3156 0 
L 2578 0 
L 2988 2091 
Q 3016 2238 3031 2350 
Q 3047 2463 3047 2528 
Q 3047 2791 2881 2937 
Q 2716 3084 2419 3084 
Q 1956 3084 1622 2776 
Q 1288 2469 1184 1941 
L 800 0 
L 225 0 
L 903 3500 
L 1478 3500 
L 1363 2950 
Q 1603 3253 1940 3418 
Q 2278 3584 2650 3584 
Q 3113 3584 3367 3334 
Q 3622 3084 3622 2631 
Q 3622 2519 3608 2391 
Q 3594 2263 3566 2113 
z
" transform="scale(0.015625)"/>
     </defs>
     <use xlink:href="#DejaVuSans-Oblique-47"/>
     <use xlink:href="#DejaVuSans-Oblique-44" transform="translate(63.484375 0)"/>
     <use xlink:href="#DejaVuSans-Oblique-56" transform="translate(124.765625 0)"/>
     <use xlink:href="#DejaVuSans-Oblique-4b" transform="translate(176.859375 0)"/>
     <use xlink:href="#DejaVuSans-Oblique-48" transform="translate(240.234375 0)"/>
     <use xlink:href="#DejaVuSans-Oblique-47" transform="translate(301.765625 0)"/>
     <use xlink:href="#DejaVuSans-Oblique-3" transform="translate(365.25 0)"/>
     <use xlink:href="#DejaVuSans-Oblique-20" transform="translate(397.03125 0)"/>
     <use xlink:href="#DejaVuSans-Oblique-3" transform="translate(480.828125 0)"/>
     <use xlink:href="#DejaVuSans-Oblique-48" transform="translate(512.609375 0)"/>
     <use xlink:href="#DejaVuSans-Oblique-44" transform="translate(574.140625 0)"/>
     <use xlink:href="#DejaVuSans-Oblique-46" transform="translate(635.421875 0)"/>
     <use xlink:href="#DejaVuSans-Oblique-4b" transform="translate(690.40625 0)"/>
     <use xlink:href="#DejaVuSans-Oblique-3" transform="translate(753.78125 0)"/>
     <use xlink:href="#DejaVuSans-Oblique-50" transform="translate(785.5625 0)"/>
     <use xlink:href="#DejaVuSans-Oblique-52" transform="translate(882.96875 0)"/>
     <use xlink:href="#DejaVuSans-Oblique-47" transform="translate(944.15625 0)"/>
     <use xlink:href="#DejaVuSans-Oblique-48" transform="translate(1007.640625 0)"/>
     <use xlink:href="#DejaVuSans-Oblique-4f" transform="translate(1069.171875 0)"/>
     <use xlink:href="#DejaVuSans-Oblique-a" transform="translate(1096.953125 0)"/>
     <use xlink:href="#DejaVuSans-Oblique-56" transform="translate(1124.4375 0)"/>
     <use xlink:href="#DejaVuSans-Oblique-3" transform="translate(1176.53125 0)"/>
     <use xlink:href="#DejaVuSans-Oblique-33" transform="translate(1208.3125 0)"/>
     <use xlink:href="#DejaVuSans-Oblique-5c" transform="translate(1268.609375 0)"/>
     <use xlink:href="#DejaVuSans-Oblique-37" transform="translate(1327.796875 0)"/>
     <use xlink:href="#DejaVuSans-Oblique-52" transform="translate(1376.515625 0)"/>
     <use xlink:href="#DejaVuSans-Oblique-55" transform="translate(1437.703125 0)"/>
     <use xlink:href="#DejaVuSans-Oblique-46" transform="translate(1478.8125 0)"/>
     <use xlink:href="#DejaVuSans-Oblique-4b" transform="translate(1533.796875 0)"/>
     <use xlink:href="#DejaVuSans-Oblique-3" transform="translate(1597.171875 0)"/>
     <use xlink:href="#DejaVuSans-Oblique-29" transform="translate(1628.953125 0)"/>
     <use xlink:href="#DejaVuSans-Oblique-33" transform="translate(1686.46875 0)"/>
     <use xlink:href="#DejaVuSans-Oblique-16" transform="translate(1746.765625 0)"/>
     <use xlink:href="#DejaVuSans-Oblique-15" transform="translate(1810.390625 0)"/>
     <use xlink:href="#DejaVuSans-Oblique-3" transform="translate(1874.015625 0)"/>
     <use xlink:href="#DejaVuSans-Oblique-55" transform="translate(1905.796875 0)"/>
     <use xlink:href="#DejaVuSans-Oblique-48" transform="translate(1946.90625 0)"/>
     <use xlink:href="#DejaVuSans-Oblique-49" transform="translate(2008.4375 0)"/>
     <use xlink:href="#DejaVuSans-Oblique-3" transform="translate(2043.640625 0)"/>
     <use xlink:href="#DejaVuSans-Oblique-45" transform="translate(2075.421875 0)"/>
     <use xlink:href="#DejaVuSans-Oblique-44" transform="translate(2138.90625 0)"/>
     <use xlink:href="#DejaVuSans-Oblique-56" transform="translate(2200.1875 0)"/>
     <use xlink:href="#DejaVuSans-Oblique-48" transform="translate(2252.28125 0)"/>
     <use xlink:href="#DejaVuSans-Oblique-4f" transform="translate(2313.8125 0)"/>
     <use xlink:href="#DejaVuSans-Oblique-4c" transform="translate(2341.59375 0)"/>
     <use xlink:href="#DejaVuSans-Oblique-51" transform="translate(2369.375 0)"/>
     <use xlink:href="#DejaVuSans-Oblique-48" transform="translate(2432.75 0)"/>
    </g>
   </g>
   <g id="text_15">
    <!-- End-to-end latency by precision tier (single rollout step / model.forward) -->
    <g transform="translate(153.946406 28.077187) scale(0.18 -0.18)">
     <defs>
      <path id="DejaVuSans-28" d="M 628 4666 
L 3578 4666 
L 3578 4134 
L 1259 4134 
L 1259 2753 
L 3481 2753 
L 3481 2222 
L 1259 2222 
L 1259 531 
L 3634 531 
L 3634 0 
L 628 0 
L 628 4666 
z
" transform="scale(0.015625)"/>
      <path id="DejaVuSans-4a" d="M 2906 1791 
Q 2906 2416 2648 2759 
Q 2391 3103 1925 3103 
Q 1463 3103 1205 2759 
Q 947 2416 947 1791 
Q 947 1169 1205 825 
Q 1463 481 1925 481 
Q 2391 481 2648 825 
Q 2906 1169 2906 1791 
z
M 3481 434 
Q 3481 -459 3084 -895 
Q 2688 -1331 1869 -1331 
Q 1566 -1331 1297 -1286 
Q 1028 -1241 775 -1147 
L 775 -588 
Q 1028 -725 1275 -790 
Q 1522 -856 1778 -856 
Q 2344 -856 2625 -561 
Q 2906 -266 2906 331 
L 2906 616 
Q 2728 306 2450 153 
Q 2172 0 1784 0 
Q 1141 0 747 490 
Q 353 981 353 1791 
Q 353 2603 747 3093 
Q 1141 3584 1784 3584 
Q 2172 3584 2450 3431 
Q 2728 3278 2906 2969 
L 2906 3500 
L 3481 3500 
L 3481 434 
z
" transform="scale(0.015625)"/>
      <path id="DejaVuSans-12" d="M 1625 4666 
L 2156 4666 
L 531 -594 
L 0 -594 
L 1625 4666 
z
" transform="scale(0.015625)"/>
      <path id="DejaVuSans-11" d="M 684 794 
L 1344 794 
L 1344 0 
L 684 0 
L 684 794 
z
" transform="scale(0.015625)"/>
     </defs>
     <use xlink:href="#DejaVuSans-28"/>
     <use xlink:href="#DejaVuSans-51" transform="translate(63.1875 0)"/>
     <use xlink:href="#DejaVuSans-47" transform="translate(126.5625 0)"/>
     <use xlink:href="#DejaVuSans-10" transform="translate(190.046875 0)"/>
     <use xlink:href="#DejaVuSans-57" transform="translate(226.125 0)"/>
     <use xlink:href="#DejaVuSans-52" transform="translate(265.328125 0)"/>
     <use xlink:href="#DejaVuSans-10" transform="translate(328.375 0)"/>
     <use xlink:href="#DejaVuSans-48" transform="translate(364.453125 0)"/>
     <use xlink:href="#DejaVuSans-51" transform="translate(425.984375 0)"/>
     <use xlink:href="#DejaVuSans-47" transform="translate(489.359375 0)"/>
     <use xlink:href="#DejaVuSans-3" transform="translate(552.84375 0)"/>
     <use xlink:href="#DejaVuSans-4f" transform="translate(584.625 0)"/>
     <use xlink:href="#DejaVuSans-44" transform="translate(612.40625 0)"/>
     <use xlink:href="#DejaVuSans-57" transform="translate(673.6875 0)"/>
     <use xlink:href="#DejaVuSans-48" transform="translate(712.890625 0)"/>
     <use xlink:href="#DejaVuSans-51" transform="translate(774.421875 0)"/>
     <use xlink:href="#DejaVuSans-46" transform="translate(837.796875 0)"/>
     <use xlink:href="#DejaVuSans-5c" transform="translate(892.78125 0)"/>
     <use xlink:href="#DejaVuSans-3" transform="translate(951.96875 0)"/>
     <use xlink:href="#DejaVuSans-45" transform="translate(983.75 0)"/>
     <use xlink:href="#DejaVuSans-5c" transform="translate(1047.234375 0)"/>
     <use xlink:href="#DejaVuSans-3" transform="translate(1106.421875 0)"/>
     <use xlink:href="#DejaVuSans-53" transform="translate(1138.203125 0)"/>
     <use xlink:href="#DejaVuSans-55" transform="translate(1201.6875 0)"/>
     <use xlink:href="#DejaVuSans-48" transform="translate(1240.59375 0)"/>
     <use xlink:href="#DejaVuSans-46" transform="translate(1302.125 0)"/>
     <use xlink:href="#DejaVuSans-4c" transform="translate(1357.109375 0)"/>
     <use xlink:href="#DejaVuSans-56" transform="translate(1384.890625 0)"/>
     <use xlink:href="#DejaVuSans-4c" transform="translate(1436.984375 0)"/>
     <use xlink:href="#DejaVuSans-52" transform="translate(1464.765625 0)"/>
     <use xlink:href="#DejaVuSans-51" transform="translate(1525.953125 0)"/>
     <use xlink:href="#DejaVuSans-3" transform="translate(1589.328125 0)"/>
     <use xlink:href="#DejaVuSans-57" transform="translate(1621.109375 0)"/>
     <use xlink:href="#DejaVuSans-4c" transform="translate(1660.3125 0)"/>
     <use xlink:href="#DejaVuSans-48" transform="translate(1688.09375 0)"/>
     <use xlink:href="#DejaVuSans-55" transform="translate(1749.625 0)"/>
     <use xlink:href="#DejaVuSans-3" transform="translate(1790.734375 0)"/>
     <use xlink:href="#DejaVuSans-b" transform="translate(1822.515625 0)"/>
     <use xlink:href="#DejaVuSans-56" transform="translate(1861.53125 0)"/>
     <use xlink:href="#DejaVuSans-4c" transform="translate(1913.625 0)"/>
     <use xlink:href="#DejaVuSans-51" transform="translate(1941.40625 0)"/>
     <use xlink:href="#DejaVuSans-4a" transform="translate(2004.78125 0)"/>
     <use xlink:href="#DejaVuSans-4f" transform="translate(2068.265625 0)"/>
     <use xlink:href="#DejaVuSans-48" transform="translate(2096.046875 0)"/>
     <use xlink:href="#DejaVuSans-3" transform="translate(2157.578125 0)"/>
     <use xlink:href="#DejaVuSans-55" transform="translate(2189.359375 0)"/>
     <use xlink:href="#DejaVuSans-52" transform="translate(2228.265625 0)"/>
     <use xlink:href="#DejaVuSans-4f" transform="translate(2289.453125 0)"/>
     <use xlink:href="#DejaVuSans-4f" transform="translate(2317.234375 0)"/>
     <use xlink:href="#DejaVuSans-52" transform="translate(2345.015625 0)"/>
     <use xlink:href="#DejaVuSans-58" transform="translate(2406.203125 0)"/>
     <use xlink:href="#DejaVuSans-57" transform="translate(2469.578125 0)"/>
     <use xlink:href="#DejaVuSans-3" transform="translate(2508.78125 0)"/>
     <use xlink:href="#DejaVuSans-56" transform="translate(2540.5625 0)"/>
     <use xlink:href="#DejaVuSans-57" transform="translate(2592.65625 0)"/>
     <use xlink:href="#DejaVuSans-48" transform="translate(2631.859375 0)"/>
     <use xlink:href="#DejaVuSans-53" transform="translate(2693.390625 0)"/>
     <use xlink:href="#DejaVuSans-3" transform="translate(2756.875 0)"/>
     <use xlink:href="#DejaVuSans-12" transform="translate(2788.65625 0)"/>
     <use xlink:href="#DejaVuSans-3" transform="translate(2822.34375 0)"/>
     <use xlink:href="#DejaVuSans-50" transform="translate(2854.125 0)"/>
     <use xlink:href="#DejaVuSans-52" transform="translate(2951.53125 0)"/>
     <use xlink:href="#DejaVuSans-47" transform="translate(3012.71875 0)"/>
     <use xlink:href="#DejaVuSans-48" transform="translate(3076.203125 0)"/>
     <use xlink:href="#DejaVuSans-4f" transform="translate(3137.734375 0)"/>
     <use xlink:href="#DejaVuSans-11" transform="translate(3165.515625 0)"/>
     <use xlink:href="#DejaVuSans-49" transform="translate(3197.296875 0)"/>
     <use xlink:href="#DejaVuSans-52" transform="translate(3232.5 0)"/>
     <use xlink:href="#DejaVuSans-55" transform="translate(3293.6875 0)"/>
     <use xlink:href="#DejaVuSans-5a" transform="translate(3334.796875 0)"/>
     <use xlink:href="#DejaVuSans-44" transform="translate(3416.578125 0)"/>
     <use xlink:href="#DejaVuSans-55" transform="translate(3477.859375 0)"/>
     <use xlink:href="#DejaVuSans-47" transform="translate(3517.21875 0)"/>
     <use xlink:href="#DejaVuSans-c" transform="translate(3580.703125 0)"/>
    </g>
   </g>
   <g id="legend_1">
    <g id="patch_47">
     <path d="M 270.312656 353.893202 
L 294.312656 353.893202 
L 294.312656 345.493202 
L 270.312656 345.493202 
z
" style="fill: #0d7377; stroke: #ffffff; stroke-width: 0.4; stroke-linejoin: miter"/>
    </g>
    <g id="text_16">
     <!-- era5_pretrained -->
     <g transform="translate(303.912656 353.893202) scale(0.12 -0.12)">
      <use xlink:href="#DejaVuSans-48"/>
      <use xlink:href="#DejaVuSans-55" transform="translate(61.53125 0)"/>
      <use xlink:href="#DejaVuSans-44" transform="translate(102.640625 0)"/>
      <use xlink:href="#DejaVuSans-18" transform="translate(163.921875 0)"/>
      <use xlink:href="#DejaVuSans-42" transform="translate(227.546875 0)"/>
      <use xlink:href="#DejaVuSans-53" transform="translate(277.546875 0)"/>
      <use xlink:href="#DejaVuSans-55" transform="translate(341.03125 0)"/>
      <use xlink:href="#DejaVuSans-48" transform="translate(379.9375 0)"/>
      <use xlink:href="#DejaVuSans-57" transform="translate(441.46875 0)"/>
      <use xlink:href="#DejaVuSans-55" transform="translate(480.671875 0)"/>
      <use xlink:href="#DejaVuSans-44" transform="translate(521.78125 0)"/>
      <use xlink:href="#DejaVuSans-4c" transform="translate(583.0625 0)"/>
      <use xlink:href="#DejaVuSans-51" transform="translate(610.84375 0)"/>
      <use xlink:href="#DejaVuSans-48" transform="translate(674.21875 0)"/>
      <use xlink:href="#DejaVuSans-47" transform="translate(735.75 0)"/>
     </g>
    </g>
    <g id="patch_48">
     <path d="M 270.312656 371.89414 
L 294.312656 371.89414 
L 294.312656 363.49414 
L 270.312656 363.49414 
z
" style="fill: #14919b; stroke: #ffffff; stroke-width: 0.4; stroke-linejoin: miter"/>
    </g>
    <g id="text_17">
     <!-- aurora_v1p5 -->
     <g transform="translate(303.912656 371.89414) scale(0.12 -0.12)">
      <defs>
       <path id="DejaVuSans-59" d="M 191 3500 
L 800 3500 
L 1894 563 
L 2988 3500 
L 3597 3500 
L 2284 0 
L 1503 0 
L 191 3500 
z
" transform="scale(0.015625)"/>
      </defs>
      <use xlink:href="#DejaVuSans-44"/>
      <use xlink:href="#DejaVuSans-58" transform="translate(61.28125 0)"/>
      <use xlink:href="#DejaVuSans-55" transform="translate(124.65625 0)"/>
      <use xlink:href="#DejaVuSans-52" transform="translate(163.5625 0)"/>
      <use xlink:href="#DejaVuSans-55" transform="translate(224.75 0)"/>
      <use xlink:href="#DejaVuSans-44" transform="translate(265.859375 0)"/>
      <use xlink:href="#DejaVuSans-42" transform="translate(327.140625 0)"/>
      <use xlink:href="#DejaVuSans-59" transform="translate(377.140625 0)"/>
      <use xlink:href="#DejaVuSans-14" transform="translate(436.328125 0)"/>
      <use xlink:href="#DejaVuSans-53" transform="translate(499.953125 0)"/>
      <use xlink:href="#DejaVuSans-18" transform="translate(563.4375 0)"/>
     </g>
    </g>
    <g id="patch_49">
     <path d="M 423.820781 353.893202 
L 447.820781 353.893202 
L 447.820781 345.493202 
L 423.820781 345.493202 
z
" style="fill: #c45c26; stroke: #ffffff; stroke-width: 0.4; stroke-linejoin: miter"/>
    </g>
    <g id="text_18">
     <!-- hres_t0_finetuned -->
     <g transform="translate(457.420781 353.893202) scale(0.12 -0.12)">
      <defs>
       <path id="DejaVuSans-13af" d="M 3431 3500 
L 3431 0 
L 2853 0 
L 2853 3053 
L 1275 3053 
L 1275 0 
L 697 0 
L 697 3053 
L 147 3053 
L 147 3500 
L 697 3500 
L 697 3744 
Q 697 4316 967 4589 
Q 1238 4863 1797 4863 
L 2375 4863 
L 2375 4384 
L 1825 4384 
Q 1516 4384 1395 4259 
Q 1275 4134 1275 3809 
L 1275 3500 
L 3431 3500 
z
M 2853 4856 
L 3431 4856 
L 3431 4128 
L 2853 4128 
L 2853 4856 
z
" transform="scale(0.015625)"/>
      </defs>
      <use xlink:href="#DejaVuSans-4b"/>
      <use xlink:href="#DejaVuSans-55" transform="translate(63.375 0)"/>
      <use xlink:href="#DejaVuSans-48" transform="translate(102.28125 0)"/>
      <use xlink:href="#DejaVuSans-56" transform="translate(163.8125 0)"/>
      <use xlink:href="#DejaVuSans-42" transform="translate(215.90625 0)"/>
      <use xlink:href="#DejaVuSans-57" transform="translate(265.90625 0)"/>
      <use xlink:href="#DejaVuSans-13" transform="translate(305.109375 0)"/>
      <use xlink:href="#DejaVuSans-42" transform="translate(368.734375 0)"/>
      <use xlink:href="#DejaVuSans-13af" transform="translate(418.734375 0)"/>
      <use xlink:href="#DejaVuSans-51" transform="translate(481.71875 0)"/>
      <use xlink:href="#DejaVuSans-48" transform="translate(545.09375 0)"/>
      <use xlink:href="#DejaVuSans-57" transform="translate(606.625 0)"/>
      <use xlink:href="#DejaVuSans-58" transform="translate(645.828125 0)"/>
      <use xlink:href="#DejaVuSans-51" transform="translate(709.203125 0)"/>
      <use xlink:href="#DejaVuSans-48" transform="translate(772.578125 0)"/>
      <use xlink:href="#DejaVuSans-47" transform="translate(834.109375 0)"/>
     </g>
    </g>
    <g id="patch_50">
     <path d="M 423.820781 371.89414 
L 447.820781 371.89414 
L 447.820781 363.49414 
L 423.820781 363.49414 
z
" style="fill: #90a4ae; stroke: #ffffff; stroke-width: 0.4; stroke-linejoin: miter"/>
    </g>
    <g id="text_19">
     <!-- hres_0.1 -->
     <g transform="translate(457.420781 371.89414) scale(0.12 -0.12)">
      <use xlink:href="#DejaVuSans-4b"/>
      <use xlink:href="#DejaVuSans-55" transform="translate(63.375 0)"/>
      <use xlink:href="#DejaVuSans-48" transform="translate(102.28125 0)"/>
      <use xlink:href="#DejaVuSans-56" transform="translate(163.8125 0)"/>
      <use xlink:href="#DejaVuSans-42" transform="translate(215.90625 0)"/>
      <use xlink:href="#DejaVuSans-13" transform="translate(265.90625 0)"/>
      <use xlink:href="#DejaVuSans-11" transform="translate(329.53125 0)"/>
      <use xlink:href="#DejaVuSans-14" transform="translate(361.3125 0)"/>
     </g>
    </g>
    <g id="patch_51">
     <path d="M 589.132031 353.893202 
L 613.132031 353.893202 
L 613.132031 345.493202 
L 589.132031 345.493202 
z
" style="fill: #78909c; stroke: #ffffff; stroke-width: 0.4; stroke-linejoin: miter"/>
    </g>
    <g id="text_20">
     <!-- cams -->
     <g transform="translate(622.732031 353.893202) scale(0.12 -0.12)">
      <use xlink:href="#DejaVuSans-46"/>
      <use xlink:href="#DejaVuSans-44" transform="translate(54.984375 0)"/>
      <use xlink:href="#DejaVuSans-50" transform="translate(116.265625 0)"/>
      <use xlink:href="#DejaVuSans-56" transform="translate(213.671875 0)"/>
     </g>
    </g>
    <g id="patch_52">
     <path d="M 589.132031 371.89414 
L 613.132031 371.89414 
L 613.132031 363.49414 
L 589.132031 363.49414 
z
" style="fill: #5c7a86; stroke: #ffffff; stroke-width: 0.4; stroke-linejoin: miter"/>
    </g>
    <g id="text_21">
     <!-- tc_tracking -->
     <g transform="translate(622.732031 371.89414) scale(0.12 -0.12)">
      <defs>
       <path id="DejaVuSans-4e" d="M 581 4863 
L 1159 4863 
L 1159 1991 
L 2875 3500 
L 3609 3500 
L 1753 1863 
L 3688 0 
L 2938 0 
L 1159 1709 
L 1159 0 
L 581 0 
L 581 4863 
z
" transform="scale(0.015625)"/>
      </defs>
      <use xlink:href="#DejaVuSans-57"/>
      <use xlink:href="#DejaVuSans-46" transform="translate(39.203125 0)"/>
      <use xlink:href="#DejaVuSans-42" transform="translate(94.1875 0)"/>
      <use xlink:href="#DejaVuSans-57" transform="translate(144.1875 0)"/>
      <use xlink:href="#DejaVuSans-55" transform="translate(183.390625 0)"/>
      <use xlink:href="#DejaVuSans-44" transform="translate(224.5 0)"/>
      <use xlink:href="#DejaVuSans-46" transform="translate(285.78125 0)"/>
      <use xlink:href="#DejaVuSans-4e" transform="translate(340.765625 0)"/>
      <use xlink:href="#DejaVuSans-4c" transform="translate(398.671875 0)"/>
      <use xlink:href="#DejaVuSans-51" transform="translate(426.453125 0)"/>
      <use xlink:href="#DejaVuSans-4a" transform="translate(489.828125 0)"/>
     </g>
    </g>
   </g>
  </g>
 </g>
 <defs>
  <clipPath id="p4e919d8449">
   <rect x="69.941094" y="44.077187" width="819.56" height="241.581575"/>
  </clipPath>
 </defs>
</svg>
