<?xml version="1.0" encoding="utf-8" standalone="no"?>
<!DOCTYPE svg PUBLIC "-//W3C//DTD SVG 1.1//EN"
  "http://www.w3.org/Graphics/SVG/1.1/DTD/svg11.dtd">
<svg xmlns:xlink="http://www.w3.org/1999/xlink" width="687.374977pt" height="278.692625pt" viewBox="0 0 687.374977 278.692625" xmlns="http://www.w3.org/2000/svg" version="1.1">
 <metadata>
  <rdf:RDF xmlns:dc="http://purl.org/dc/elements/1.1/" xmlns:cc="http://creativecommons.org/ns#" xmlns:rdf="http://www.w3.org/1999/02/22-rdf-syntax-ns#">
   <cc:Work>
    <dc:type rdf:resource="http://purl.org/dc/dcmitype/StillImage"/>
    <dc:date>2026-08-14T10:43:49.321050</dc:date>
    <dc:format>image/svg+xml</dc:format>
    <dc:creator>
     <cc:Agent>
      <dc:title>Matplotlib v3.10.8, https://matplotlib.org/</dc:title>
     </cc:Agent>
    </dc:creator>
   </cc:Work>
  </rdf:RDF>
 </metadata>
 <defs>
  <style type="text/css">*{stroke-linejoin: round; stroke-linecap: butt}</style>
 </defs>
 <g id="figure_1">
  <g id="patch_1">
   <path d="M -0 278.692625 
L 687.374977 278.692625 
L 687.374977 0 
L -0 0 
z
" style="fill: #ffffff"/>
  </g>
  <g id="axes_1">
   <g id="patch_2">
    <path d="M 48.060312 243.072 
L 332.13304 243.072 
L 332.13304 43.488 
L 48.060312 43.488 
z
" style="fill: #ffffff"/>
   </g>
   <g id="matplotlib.axis_1">
    <g id="xtick_1">
     <g id="line2d_1">
      <path d="M 54.350967 243.072 
L 54.350967 43.488 
" clip-path="url(#p07bfc0fa2e)" style="fill: none; stroke-dasharray: 2.96,1.28; stroke-dashoffset: 0; stroke: #b0b0b0; stroke-opacity: 0.28; stroke-width: 0.8"/>
     </g>
     <g id="line2d_2">
      <defs>
       <path id="me095087bad" d="M 0 0 
L 0 3.5 
" style="stroke: #000000; stroke-width: 0.8"/>
      </defs>
      <g>
       <use xlink:href="#me095087bad" x="54.350967" y="243.072" style="stroke: #000000; stroke-width: 0.8"/>
      </g>
     </g>
     <g id="text_1">
      <!-- 0 -->
      <g transform="translate(51.487842 256.910594) scale(0.09 -0.09)">
       <defs>
        <path id="DejaVuSans-30" d="M 2034 4250 
Q 1547 4250 1301 3770 
Q 1056 3291 1056 2328 
Q 1056 1369 1301 889 
Q 1547 409 2034 409 
Q 2525 409 2770 889 
Q 3016 1369 3016 2328 
Q 3016 3291 2770 3770 
Q 2525 4250 2034 4250 
z
M 2034 4750 
Q 2819 4750 3233 4129 
Q 3647 3509 3647 2328 
Q 3647 1150 3233 529 
Q 2819 -91 2034 -91 
Q 1250 -91 836 529 
Q 422 1150 422 2328 
Q 422 3509 836 4129 
Q 1250 4750 2034 4750 
z
" transform="scale(0.015625)"/>
       </defs>
       <use xlink:href="#DejaVuSans-30"/>
      </g>
     </g>
    </g>
    <g id="xtick_2">
     <g id="line2d_3">
      <path d="M 109.53215 243.072 
L 109.53215 43.488 
" clip-path="url(#p07bfc0fa2e)" style="fill: none; stroke-dasharray: 2.96,1.28; stroke-dashoffset: 0; stroke: #b0b0b0; stroke-opacity: 0.28; stroke-width: 0.8"/>
     </g>
     <g id="line2d_4">
      <g>
       <use xlink:href="#me095087bad" x="109.53215" y="243.072" style="stroke: #000000; stroke-width: 0.8"/>
      </g>
     </g>
     <g id="text_2">
      <!-- 50 -->
      <g transform="translate(103.8059 256.910594) scale(0.09 -0.09)">
       <defs>
        <path id="DejaVuSans-35" d="M 691 4666 
L 3169 4666 
L 3169 4134 
L 1269 4134 
L 1269 2991 
Q 1406 3038 1543 3061 
Q 1681 3084 1819 3084 
Q 2600 3084 3056 2656 
Q 3513 2228 3513 1497 
Q 3513 744 3044 326 
Q 2575 -91 1722 -91 
Q 1428 -91 1123 -41 
Q 819 9 494 109 
L 494 744 
Q 775 591 1075 516 
Q 1375 441 1709 441 
Q 2250 441 2565 725 
Q 2881 1009 2881 1497 
Q 2881 1984 2565 2268 
Q 2250 2553 1709 2553 
Q 1456 2553 1204 2497 
Q 953 2441 691 2322 
L 691 4666 
z
" transform="scale(0.015625)"/>
       </defs>
       <use xlink:href="#DejaVuSans-35"/>
       <use xlink:href="#DejaVuSans-30" transform="translate(63.623047 0)"/>
      </g>
     </g>
    </g>
    <g id="xtick_3">
     <g id="line2d_5">
      <path d="M 164.713332 243.072 
L 164.713332 43.488 
" clip-path="url(#p07bfc0fa2e)" style="fill: none; stroke-dasharray: 2.96,1.28; stroke-dashoffset: 0; stroke: #b0b0b0; stroke-opacity: 0.28; stroke-width: 0.8"/>
     </g>
     <g id="line2d_6">
      <g>
       <use xlink:href="#me095087bad" x="164.713332" y="243.072" style="stroke: #000000; stroke-width: 0.8"/>
      </g>
     </g>
     <g id="text_3">
      <!-- 100 -->
      <g transform="translate(156.123957 256.910594) scale(0.09 -0.09)">
       <defs>
        <path id="DejaVuSans-31" d="M 794 531 
L 1825 531 
L 1825 4091 
L 703 3866 
L 703 4441 
L 1819 4666 
L 2450 4666 
L 2450 531 
L 3481 531 
L 3481 0 
L 794 0 
L 794 531 
z
" transform="scale(0.015625)"/>
       </defs>
       <use xlink:href="#DejaVuSans-31"/>
       <use xlink:href="#DejaVuSans-30" transform="translate(63.623047 0)"/>
       <use xlink:href="#DejaVuSans-30" transform="translate(127.246094 0)"/>
      </g>
     </g>
    </g>
    <g id="xtick_4">
     <g id="line2d_7">
      <path d="M 219.894515 243.072 
L 219.894515 43.488 
" clip-path="url(#p07bfc0fa2e)" style="fill: none; stroke-dasharray: 2.96,1.28; stroke-dashoffset: 0; stroke: #b0b0b0; stroke-opacity: 0.28; stroke-width: 0.8"/>
     </g>
     <g id="line2d_8">
      <g>
       <use xlink:href="#me095087bad" x="219.894515" y="243.072" style="stroke: #000000; stroke-width: 0.8"/>
      </g>
     </g>
     <g id="text_4">
      <!-- 150 -->
      <g transform="translate(211.30514 256.910594) scale(0.09 -0.09)">
       <use xlink:href="#DejaVuSans-31"/>
       <use xlink:href="#DejaVuSans-35" transform="translate(63.623047 0)"/>
       <use xlink:href="#DejaVuSans-30" transform="translate(127.246094 0)"/>
      </g>
     </g>
    </g>
    <g id="xtick_5">
     <g id="line2d_9">
      <path d="M 275.075697 243.072 
L 275.075697 43.488 
" clip-path="url(#p07bfc0fa2e)" style="fill: none; stroke-dasharray: 2.96,1.28; stroke-dashoffset: 0; stroke: #b0b0b0; stroke-opacity: 0.28; stroke-width: 0.8"/>
     </g>
     <g id="line2d_10">
      <g>
       <use xlink:href="#me095087bad" x="275.075697" y="243.072" style="stroke: #000000; stroke-width: 0.8"/>
      </g>
     </g>
     <g id="text_5">
      <!-- 200 -->
      <g transform="translate(266.486322 256.910594) scale(0.09 -0.09)">
       <defs>
        <path id="DejaVuSans-32" d="M 1228 531 
L 3431 531 
L 3431 0 
L 469 0 
L 469 531 
Q 828 903 1448 1529 
Q 2069 2156 2228 2338 
Q 2531 2678 2651 2914 
Q 2772 3150 2772 3378 
Q 2772 3750 2511 3984 
Q 2250 4219 1831 4219 
Q 1534 4219 1204 4116 
Q 875 4013 500 3803 
L 500 4441 
Q 881 4594 1212 4672 
Q 1544 4750 1819 4750 
Q 2544 4750 2975 4387 
Q 3406 4025 3406 3419 
Q 3406 3131 3298 2873 
Q 3191 2616 2906 2266 
Q 2828 2175 2409 1742 
Q 1991 1309 1228 531 
z
" transform="scale(0.015625)"/>
       </defs>
       <use xlink:href="#DejaVuSans-32"/>
       <use xlink:href="#DejaVuSans-30" transform="translate(63.623047 0)"/>
       <use xlink:href="#DejaVuSans-30" transform="translate(127.246094 0)"/>
      </g>
     </g>
    </g>
    <g id="xtick_6">
     <g id="line2d_11">
      <path d="M 330.25688 243.072 
L 330.25688 43.488 
" clip-path="url(#p07bfc0fa2e)" style="fill: none; stroke-dasharray: 2.96,1.28; stroke-dashoffset: 0; stroke: #b0b0b0; stroke-opacity: 0.28; stroke-width: 0.8"/>
     </g>
     <g id="line2d_12">
      <g>
       <use xlink:href="#me095087bad" x="330.25688" y="243.072" style="stroke: #000000; stroke-width: 0.8"/>
      </g>
     </g>
     <g id="text_6">
      <!-- 250 -->
      <g transform="translate(321.667505 256.910594) scale(0.09 -0.09)">
       <use xlink:href="#DejaVuSans-32"/>
       <use xlink:href="#DejaVuSans-35" transform="translate(63.623047 0)"/>
       <use xlink:href="#DejaVuSans-30" transform="translate(127.246094 0)"/>
      </g>
     </g>
    </g>
    <g id="text_7">
     <!-- Lead time (h) -->
     <g transform="translate(159.894645 269.620906) scale(0.09 -0.09)">
      <defs>
       <path id="DejaVuSans-4c" d="M 628 4666 
L 1259 4666 
L 1259 531 
L 3531 531 
L 3531 0 
L 628 0 
L 628 4666 
z
" transform="scale(0.015625)"/>
       <path id="DejaVuSans-65" d="M 3597 1894 
L 3597 1613 
L 953 1613 
Q 991 1019 1311 708 
Q 1631 397 2203 397 
Q 2534 397 2845 478 
Q 3156 559 3463 722 
L 3463 178 
Q 3153 47 2828 -22 
Q 2503 -91 2169 -91 
Q 1331 -91 842 396 
Q 353 884 353 1716 
Q 353 2575 817 3079 
Q 1281 3584 2069 3584 
Q 2775 3584 3186 3129 
Q 3597 2675 3597 1894 
z
M 3022 2063 
Q 3016 2534 2758 2815 
Q 2500 3097 2075 3097 
Q 1594 3097 1305 2825 
Q 1016 2553 972 2059 
L 3022 2063 
z
" transform="scale(0.015625)"/>
       <path id="DejaVuSans-61" d="M 2194 1759 
Q 1497 1759 1228 1600 
Q 959 1441 959 1056 
Q 959 750 1161 570 
Q 1363 391 1709 391 
Q 2188 391 2477 730 
Q 2766 1069 2766 1631 
L 2766 1759 
L 2194 1759 
z
M 3341 1997 
L 3341 0 
L 2766 0 
L 2766 531 
Q 2569 213 2275 61 
Q 1981 -91 1556 -91 
Q 1019 -91 701 211 
Q 384 513 384 1019 
Q 384 1609 779 1909 
Q 1175 2209 1959 2209 
L 2766 2209 
L 2766 2266 
Q 2766 2663 2505 2880 
Q 2244 3097 1772 3097 
Q 1472 3097 1187 3025 
Q 903 2953 641 2809 
L 641 3341 
Q 956 3463 1253 3523 
Q 1550 3584 1831 3584 
Q 2591 3584 2966 3190 
Q 3341 2797 3341 1997 
z
" transform="scale(0.015625)"/>
       <path id="DejaVuSans-64" d="M 2906 2969 
L 2906 4863 
L 3481 4863 
L 3481 0 
L 2906 0 
L 2906 525 
Q 2725 213 2448 61 
Q 2172 -91 1784 -91 
Q 1150 -91 751 415 
Q 353 922 353 1747 
Q 353 2572 751 3078 
Q 1150 3584 1784 3584 
Q 2172 3584 2448 3432 
Q 2725 3281 2906 2969 
z
M 947 1747 
Q 947 1113 1208 752 
Q 1469 391 1925 391 
Q 2381 391 2643 752 
Q 2906 1113 2906 1747 
Q 2906 2381 2643 2742 
Q 2381 3103 1925 3103 
Q 1469 3103 1208 2742 
Q 947 2381 947 1747 
z
" transform="scale(0.015625)"/>
       <path id="DejaVuSans-20" transform="scale(0.015625)"/>
       <path id="DejaVuSans-74" d="M 1172 4494 
L 1172 3500 
L 2356 3500 
L 2356 3053 
L 1172 3053 
L 1172 1153 
Q 1172 725 1289 603 
Q 1406 481 1766 481 
L 2356 481 
L 2356 0 
L 1766 0 
Q 1100 0 847 248 
Q 594 497 594 1153 
L 594 3053 
L 172 3053 
L 172 3500 
L 594 3500 
L 594 4494 
L 1172 4494 
z
" transform="scale(0.015625)"/>
       <path id="DejaVuSans-69" d="M 603 3500 
L 1178 3500 
L 1178 0 
L 603 0 
L 603 3500 
z
M 603 4863 
L 1178 4863 
L 1178 4134 
L 603 4134 
L 603 4863 
z
" transform="scale(0.015625)"/>
       <path id="DejaVuSans-6d" d="M 3328 2828 
Q 3544 3216 3844 3400 
Q 4144 3584 4550 3584 
Q 5097 3584 5394 3201 
Q 5691 2819 5691 2113 
L 5691 0 
L 5113 0 
L 5113 2094 
Q 5113 2597 4934 2840 
Q 4756 3084 4391 3084 
Q 3944 3084 3684 2787 
Q 3425 2491 3425 1978 
L 3425 0 
L 2847 0 
L 2847 2094 
Q 2847 2600 2669 2842 
Q 2491 3084 2119 3084 
Q 1678 3084 1418 2786 
Q 1159 2488 1159 1978 
L 1159 0 
L 581 0 
L 581 3500 
L 1159 3500 
L 1159 2956 
Q 1356 3278 1631 3431 
Q 1906 3584 2284 3584 
Q 2666 3584 2933 3390 
Q 3200 3197 3328 2828 
z
" transform="scale(0.015625)"/>
       <path id="DejaVuSans-28" d="M 1984 4856 
Q 1566 4138 1362 3434 
Q 1159 2731 1159 2009 
Q 1159 1288 1364 580 
Q 1569 -128 1984 -844 
L 1484 -844 
Q 1016 -109 783 600 
Q 550 1309 550 2009 
Q 550 2706 781 3412 
Q 1013 4119 1484 4856 
L 1984 4856 
z
" transform="scale(0.015625)"/>
       <path id="DejaVuSans-68" d="M 3513 2113 
L 3513 0 
L 2938 0 
L 2938 2094 
Q 2938 2591 2744 2837 
Q 2550 3084 2163 3084 
Q 1697 3084 1428 2787 
Q 1159 2491 1159 1978 
L 1159 0 
L 581 0 
L 581 4863 
L 1159 4863 
L 1159 2956 
Q 1366 3272 1645 3428 
Q 1925 3584 2291 3584 
Q 2894 3584 3203 3211 
Q 3513 2838 3513 2113 
z
" transform="scale(0.015625)"/>
       <path id="DejaVuSans-29" d="M 513 4856 
L 1013 4856 
Q 1481 4119 1714 3412 
Q 1947 2706 1947 2009 
Q 1947 1309 1714 600 
Q 1481 -109 1013 -844 
L 513 -844 
Q 928 -128 1133 580 
Q 1338 1288 1338 2009 
Q 1338 2731 1133 3434 
Q 928 4138 513 4856 
z
" transform="scale(0.015625)"/>
      </defs>
      <use xlink:href="#DejaVuSans-4c"/>
      <use xlink:href="#DejaVuSans-65" transform="translate(53.962891 0)"/>
      <use xlink:href="#DejaVuSans-61" transform="translate(115.486328 0)"/>
      <use xlink:href="#DejaVuSans-64" transform="translate(176.765625 0)"/>
      <use xlink:href="#DejaVuSans-20" transform="translate(240.242188 0)"/>
      <use xlink:href="#DejaVuSans-74" transform="translate(272.029297 0)"/>
      <use xlink:href="#DejaVuSans-69" transform="translate(311.238281 0)"/>
      <use xlink:href="#DejaVuSans-6d" transform="translate(339.021484 0)"/>
      <use xlink:href="#DejaVuSans-65" transform="translate(436.433594 0)"/>
      <use xlink:href="#DejaVuSans-20" transform="translate(497.957031 0)"/>
      <use xlink:href="#DejaVuSans-28" transform="translate(529.744141 0)"/>
      <use xlink:href="#DejaVuSans-68" transform="translate(568.757812 0)"/>
      <use xlink:href="#DejaVuSans-29" transform="translate(632.136719 0)"/>
     </g>
    </g>
   </g>
   <g id="matplotlib.axis_2">
    <g id="ytick_1">
     <g id="line2d_13">
      <path d="M 48.060312 216.531794 
L 332.13304 216.531794 
" clip-path="url(#p07bfc0fa2e)" style="fill: none; stroke-dasharray: 2.96,1.28; stroke-dashoffset: 0; stroke: #b0b0b0; stroke-opacity: 0.28; stroke-width: 0.8"/>
     </g>
     <g id="line2d_14">
      <defs>
       <path id="m2b5686d001" d="M 0 0 
L -3.5 0 
" style="stroke: #000000; stroke-width: 0.8"/>
      </defs>
      <g>
       <use xlink:href="#m2b5686d001" x="48.060312" y="216.531794" style="stroke: #000000; stroke-width: 0.8"/>
      </g>
     </g>
     <g id="text_8">
      <!-- $\mathdefault{10^{-3}}$ -->
      <g transform="translate(19.910312 219.951091) scale(0.09 -0.09)">
       <defs>
        <path id="DejaVuSans-2212" d="M 678 2272 
L 4684 2272 
L 4684 1741 
L 678 1741 
L 678 2272 
z
" transform="scale(0.015625)"/>
        <path id="DejaVuSans-33" d="M 2597 2516 
Q 3050 2419 3304 2112 
Q 3559 1806 3559 1356 
Q 3559 666 3084 287 
Q 2609 -91 1734 -91 
Q 1441 -91 1130 -33 
Q 819 25 488 141 
L 488 750 
Q 750 597 1062 519 
Q 1375 441 1716 441 
Q 2309 441 2620 675 
Q 2931 909 2931 1356 
Q 2931 1769 2642 2001 
Q 2353 2234 1838 2234 
L 1294 2234 
L 1294 2753 
L 1863 2753 
Q 2328 2753 2575 2939 
Q 2822 3125 2822 3475 
Q 2822 3834 2567 4026 
Q 2313 4219 1838 4219 
Q 1578 4219 1281 4162 
Q 984 4106 628 3988 
L 628 4550 
Q 988 4650 1302 4700 
Q 1616 4750 1894 4750 
Q 2613 4750 3031 4423 
Q 3450 4097 3450 3541 
Q 3450 3153 3228 2886 
Q 3006 2619 2597 2516 
z
" transform="scale(0.015625)"/>
       </defs>
       <use xlink:href="#DejaVuSans-31" transform="translate(0 0.765625)"/>
       <use xlink:href="#DejaVuSans-30" transform="translate(63.623047 0.765625)"/>
       <use xlink:href="#DejaVuSans-2212" transform="translate(128.203125 39.046875) scale(0.7)"/>
       <use xlink:href="#DejaVuSans-33" transform="translate(186.855469 39.046875) scale(0.7)"/>
      </g>
     </g>
    </g>
    <g id="ytick_2">
     <g id="line2d_15">
      <path d="M 48.060312 140.013822 
L 332.13304 140.013822 
" clip-path="url(#p07bfc0fa2e)" style="fill: none; stroke-dasharray: 2.96,1.28; stroke-dashoffset: 0; stroke: #b0b0b0; stroke-opacity: 0.28; stroke-width: 0.8"/>
     </g>
     <g id="line2d_16">
      <g>
       <use xlink:href="#m2b5686d001" x="48.060312" y="140.013822" style="stroke: #000000; stroke-width: 0.8"/>
      </g>
     </g>
     <g id="text_9">
      <!-- $\mathdefault{10^{-2}}$ -->
      <g transform="translate(19.910312 143.433119) scale(0.09 -0.09)">
       <use xlink:href="#DejaVuSans-31" transform="translate(0 0.765625)"/>
       <use xlink:href="#DejaVuSans-30" transform="translate(63.623047 0.765625)"/>
       <use xlink:href="#DejaVuSans-2212" transform="translate(128.203125 39.046875) scale(0.7)"/>
       <use xlink:href="#DejaVuSans-32" transform="translate(186.855469 39.046875) scale(0.7)"/>
      </g>
     </g>
    </g>
    <g id="ytick_3">
     <g id="line2d_17">
      <path d="M 48.060312 63.49585 
L 332.13304 63.49585 
" clip-path="url(#p07bfc0fa2e)" style="fill: none; stroke-dasharray: 2.96,1.28; stroke-dashoffset: 0; stroke: #b0b0b0; stroke-opacity: 0.28; stroke-width: 0.8"/>
     </g>
     <g id="line2d_18">
      <g>
       <use xlink:href="#m2b5686d001" x="48.060312" y="63.49585" style="stroke: #000000; stroke-width: 0.8"/>
      </g>
     </g>
     <g id="text_10">
      <!-- $\mathdefault{10^{-1}}$ -->
      <g transform="translate(19.910312 66.915147) scale(0.09 -0.09)">
       <use xlink:href="#DejaVuSans-31" transform="translate(0 0.684375)"/>
       <use xlink:href="#DejaVuSans-30" transform="translate(63.623047 0.684375)"/>
       <use xlink:href="#DejaVuSans-2212" transform="translate(128.203125 38.965625) scale(0.7)"/>
       <use xlink:href="#DejaVuSans-31" transform="translate(186.855469 38.965625) scale(0.7)"/>
      </g>
     </g>
    </g>
    <g id="ytick_4">
     <g id="line2d_19">
      <defs>
       <path id="md8639ac159" d="M 0 0 
L -2 0 
" style="stroke: #000000; stroke-width: 0.6"/>
      </defs>
      <g>
       <use xlink:href="#md8639ac159" x="48.060312" y="239.565999" style="stroke: #000000; stroke-width: 0.6"/>
      </g>
     </g>
    </g>
    <g id="ytick_5">
     <g id="line2d_20">
      <g>
       <use xlink:href="#md8639ac159" x="48.060312" y="233.507211" style="stroke: #000000; stroke-width: 0.6"/>
      </g>
     </g>
    </g>
    <g id="ytick_6">
     <g id="line2d_21">
      <g>
       <use xlink:href="#md8639ac159" x="48.060312" y="228.384578" style="stroke: #000000; stroke-width: 0.6"/>
      </g>
     </g>
    </g>
    <g id="ytick_7">
     <g id="line2d_22">
      <g>
       <use xlink:href="#md8639ac159" x="48.060312" y="223.947152" style="stroke: #000000; stroke-width: 0.6"/>
      </g>
     </g>
    </g>
    <g id="ytick_8">
     <g id="line2d_23">
      <g>
       <use xlink:href="#md8639ac159" x="48.060312" y="220.033065" style="stroke: #000000; stroke-width: 0.6"/>
      </g>
     </g>
    </g>
    <g id="ytick_9">
     <g id="line2d_24">
      <g>
       <use xlink:href="#md8639ac159" x="48.060312" y="193.49759" style="stroke: #000000; stroke-width: 0.6"/>
      </g>
     </g>
    </g>
    <g id="ytick_10">
     <g id="line2d_25">
      <g>
       <use xlink:href="#md8639ac159" x="48.060312" y="180.023443" style="stroke: #000000; stroke-width: 0.6"/>
      </g>
     </g>
    </g>
    <g id="ytick_11">
     <g id="line2d_26">
      <g>
       <use xlink:href="#md8639ac159" x="48.060312" y="170.463385" style="stroke: #000000; stroke-width: 0.6"/>
      </g>
     </g>
    </g>
    <g id="ytick_12">
     <g id="line2d_27">
      <g>
       <use xlink:href="#md8639ac159" x="48.060312" y="163.048027" style="stroke: #000000; stroke-width: 0.6"/>
      </g>
     </g>
    </g>
    <g id="ytick_13">
     <g id="line2d_28">
      <g>
       <use xlink:href="#md8639ac159" x="48.060312" y="156.989239" style="stroke: #000000; stroke-width: 0.6"/>
      </g>
     </g>
    </g>
    <g id="ytick_14">
     <g id="line2d_29">
      <g>
       <use xlink:href="#md8639ac159" x="48.060312" y="151.866606" style="stroke: #000000; stroke-width: 0.6"/>
      </g>
     </g>
    </g>
    <g id="ytick_15">
     <g id="line2d_30">
      <g>
       <use xlink:href="#md8639ac159" x="48.060312" y="147.42918" style="stroke: #000000; stroke-width: 0.6"/>
      </g>
     </g>
    </g>
    <g id="ytick_16">
     <g id="line2d_31">
      <g>
       <use xlink:href="#md8639ac159" x="48.060312" y="143.515093" style="stroke: #000000; stroke-width: 0.6"/>
      </g>
     </g>
    </g>
    <g id="ytick_17">
     <g id="line2d_32">
      <g>
       <use xlink:href="#md8639ac159" x="48.060312" y="116.979617" style="stroke: #000000; stroke-width: 0.6"/>
      </g>
     </g>
    </g>
    <g id="ytick_18">
     <g id="line2d_33">
      <g>
       <use xlink:href="#md8639ac159" x="48.060312" y="103.505471" style="stroke: #000000; stroke-width: 0.6"/>
      </g>
     </g>
    </g>
    <g id="ytick_19">
     <g id="line2d_34">
      <g>
       <use xlink:href="#md8639ac159" x="48.060312" y="93.945413" style="stroke: #000000; stroke-width: 0.6"/>
      </g>
     </g>
    </g>
    <g id="ytick_20">
     <g id="line2d_35">
      <g>
       <use xlink:href="#md8639ac159" x="48.060312" y="86.530055" style="stroke: #000000; stroke-width: 0.6"/>
      </g>
     </g>
    </g>
    <g id="ytick_21">
     <g id="line2d_36">
      <g>
       <use xlink:href="#md8639ac159" x="48.060312" y="80.471267" style="stroke: #000000; stroke-width: 0.6"/>
      </g>
     </g>
    </g>
    <g id="ytick_22">
     <g id="line2d_37">
      <g>
       <use xlink:href="#md8639ac159" x="48.060312" y="75.348634" style="stroke: #000000; stroke-width: 0.6"/>
      </g>
     </g>
    </g>
    <g id="ytick_23">
     <g id="line2d_38">
      <g>
       <use xlink:href="#md8639ac159" x="48.060312" y="70.911208" style="stroke: #000000; stroke-width: 0.6"/>
      </g>
     </g>
    </g>
    <g id="ytick_24">
     <g id="line2d_39">
      <g>
       <use xlink:href="#md8639ac159" x="48.060312" y="66.997121" style="stroke: #000000; stroke-width: 0.6"/>
      </g>
     </g>
    </g>
    <g id="text_11">
     <!-- worst-variable $\bar{e}_v$ vs FP32 AR ref -->
     <g transform="translate(14.038594 215.865) rotate(-90) scale(0.09 -0.09)">
      <defs>
       <path id="DejaVuSans-77" d="M 269 3500 
L 844 3500 
L 1563 769 
L 2278 3500 
L 2956 3500 
L 3675 769 
L 4391 3500 
L 4966 3500 
L 4050 0 
L 3372 0 
L 2619 2869 
L 1863 0 
L 1184 0 
L 269 3500 
z
" transform="scale(0.015625)"/>
       <path id="DejaVuSans-6f" d="M 1959 3097 
Q 1497 3097 1228 2736 
Q 959 2375 959 1747 
Q 959 1119 1226 758 
Q 1494 397 1959 397 
Q 2419 397 2687 759 
Q 2956 1122 2956 1747 
Q 2956 2369 2687 2733 
Q 2419 3097 1959 3097 
z
M 1959 3584 
Q 2709 3584 3137 3096 
Q 3566 2609 3566 1747 
Q 3566 888 3137 398 
Q 2709 -91 1959 -91 
Q 1206 -91 779 398 
Q 353 888 353 1747 
Q 353 2609 779 3096 
Q 1206 3584 1959 3584 
z
" transform="scale(0.015625)"/>
       <path id="DejaVuSans-72" d="M 2631 2963 
Q 2534 3019 2420 3045 
Q 2306 3072 2169 3072 
Q 1681 3072 1420 2755 
Q 1159 2438 1159 1844 
L 1159 0 
L 581 0 
L 581 3500 
L 1159 3500 
L 1159 2956 
Q 1341 3275 1631 3429 
Q 1922 3584 2338 3584 
Q 2397 3584 2469 3576 
Q 2541 3569 2628 3553 
L 2631 2963 
z
" transform="scale(0.015625)"/>
       <path id="DejaVuSans-73" d="M 2834 3397 
L 2834 2853 
Q 2591 2978 2328 3040 
Q 2066 3103 1784 3103 
Q 1356 3103 1142 2972 
Q 928 2841 928 2578 
Q 928 2378 1081 2264 
Q 1234 2150 1697 2047 
L 1894 2003 
Q 2506 1872 2764 1633 
Q 3022 1394 3022 966 
Q 3022 478 2636 193 
Q 2250 -91 1575 -91 
Q 1294 -91 989 -36 
Q 684 19 347 128 
L 347 722 
Q 666 556 975 473 
Q 1284 391 1588 391 
Q 1994 391 2212 530 
Q 2431 669 2431 922 
Q 2431 1156 2273 1281 
Q 2116 1406 1581 1522 
L 1381 1569 
Q 847 1681 609 1914 
Q 372 2147 372 2553 
Q 372 3047 722 3315 
Q 1072 3584 1716 3584 
Q 2034 3584 2315 3537 
Q 2597 3491 2834 3397 
z
" transform="scale(0.015625)"/>
       <path id="DejaVuSans-2d" d="M 313 2009 
L 1997 2009 
L 1997 1497 
L 313 1497 
L 313 2009 
z
" transform="scale(0.015625)"/>
       <path id="DejaVuSans-76" d="M 191 3500 
L 800 3500 
L 1894 563 
L 2988 3500 
L 3597 3500 
L 2284 0 
L 1503 0 
L 191 3500 
z
" transform="scale(0.015625)"/>
       <path id="DejaVuSans-62" d="M 3116 1747 
Q 3116 2381 2855 2742 
Q 2594 3103 2138 3103 
Q 1681 3103 1420 2742 
Q 1159 2381 1159 1747 
Q 1159 1113 1420 752 
Q 1681 391 2138 391 
Q 2594 391 2855 752 
Q 3116 1113 3116 1747 
z
M 1159 2969 
Q 1341 3281 1617 3432 
Q 1894 3584 2278 3584 
Q 2916 3584 3314 3078 
Q 3713 2572 3713 1747 
Q 3713 922 3314 415 
Q 2916 -91 2278 -91 
Q 1894 -91 1617 61 
Q 1341 213 1159 525 
L 1159 0 
L 581 0 
L 581 4863 
L 1159 4863 
L 1159 2969 
z
" transform="scale(0.015625)"/>
       <path id="DejaVuSans-6c" d="M 603 4863 
L 1178 4863 
L 1178 0 
L 603 0 
L 603 4863 
z
" transform="scale(0.015625)"/>
       <path id="DejaVuSans-304" d="M -2518 4769 
L -650 4769 
L -650 4306 
L -2518 4306 
L -2518 4769 
z
" transform="scale(0.015625)"/>
       <path id="DejaVuSans-Oblique-65" d="M 3078 2063 
Q 3088 2113 3092 2166 
Q 3097 2219 3097 2272 
Q 3097 2653 2873 2875 
Q 2650 3097 2266 3097 
Q 1838 3097 1509 2826 
Q 1181 2556 1013 2059 
L 3078 2063 
z
M 3578 1613 
L 903 1613 
Q 884 1494 878 1425 
Q 872 1356 872 1306 
Q 872 872 1139 634 
Q 1406 397 1894 397 
Q 2269 397 2603 481 
Q 2938 566 3225 728 
L 3116 159 
Q 2806 34 2476 -28 
Q 2147 -91 1806 -91 
Q 1078 -91 686 257 
Q 294 606 294 1247 
Q 294 1794 489 2264 
Q 684 2734 1063 3103 
Q 1306 3334 1642 3459 
Q 1978 3584 2356 3584 
Q 2950 3584 3301 3228 
Q 3653 2872 3653 2272 
Q 3653 2128 3634 1964 
Q 3616 1800 3578 1613 
z
" transform="scale(0.015625)"/>
       <path id="DejaVuSans-Oblique-76" d="M 459 3500 
L 1069 3500 
L 1581 525 
L 3256 3500 
L 3866 3500 
L 1875 0 
L 1100 0 
L 459 3500 
z
" transform="scale(0.015625)"/>
       <path id="DejaVuSans-46" d="M 628 4666 
L 3309 4666 
L 3309 4134 
L 1259 4134 
L 1259 2759 
L 3109 2759 
L 3109 2228 
L 1259 2228 
L 1259 0 
L 628 0 
L 628 4666 
z
" transform="scale(0.015625)"/>
       <path id="DejaVuSans-50" d="M 1259 4147 
L 1259 2394 
L 2053 2394 
Q 2494 2394 2734 2622 
Q 2975 2850 2975 3272 
Q 2975 3691 2734 3919 
Q 2494 4147 2053 4147 
L 1259 4147 
z
M 628 4666 
L 2053 4666 
Q 2838 4666 3239 4311 
Q 3641 3956 3641 3272 
Q 3641 2581 3239 2228 
Q 2838 1875 2053 1875 
L 1259 1875 
L 1259 0 
L 628 0 
L 628 4666 
z
" transform="scale(0.015625)"/>
       <path id="DejaVuSans-41" d="M 2188 4044 
L 1331 1722 
L 3047 1722 
L 2188 4044 
z
M 1831 4666 
L 2547 4666 
L 4325 0 
L 3669 0 
L 3244 1197 
L 1141 1197 
L 716 0 
L 50 0 
L 1831 4666 
z
" transform="scale(0.015625)"/>
       <path id="DejaVuSans-52" d="M 2841 2188 
Q 3044 2119 3236 1894 
Q 3428 1669 3622 1275 
L 4263 0 
L 3584 0 
L 2988 1197 
Q 2756 1666 2539 1819 
Q 2322 1972 1947 1972 
L 1259 1972 
L 1259 0 
L 628 0 
L 628 4666 
L 2053 4666 
Q 2853 4666 3247 4331 
Q 3641 3997 3641 3322 
Q 3641 2881 3436 2590 
Q 3231 2300 2841 2188 
z
M 1259 4147 
L 1259 2491 
L 2053 2491 
Q 2509 2491 2742 2702 
Q 2975 2913 2975 3322 
Q 2975 3731 2742 3939 
Q 2509 4147 2053 4147 
L 1259 4147 
z
" transform="scale(0.015625)"/>
       <path id="DejaVuSans-66" d="M 2375 4863 
L 2375 4384 
L 1825 4384 
Q 1516 4384 1395 4259 
Q 1275 4134 1275 3809 
L 1275 3500 
L 2222 3500 
L 2222 3053 
L 1275 3053 
L 1275 0 
L 697 0 
L 697 3053 
L 147 3053 
L 147 3500 
L 697 3500 
L 697 3744 
Q 697 4328 969 4595 
Q 1241 4863 1831 4863 
L 2375 4863 
z
" transform="scale(0.015625)"/>
      </defs>
      <use xlink:href="#DejaVuSans-77" transform="translate(0 0.015625)"/>
      <use xlink:href="#DejaVuSans-6f" transform="translate(81.787109 0.015625)"/>
      <use xlink:href="#DejaVuSans-72" transform="translate(142.96875 0.015625)"/>
      <use xlink:href="#DejaVuSans-73" transform="translate(184.082031 0.015625)"/>
      <use xlink:href="#DejaVuSans-74" transform="translate(236.181641 0.015625)"/>
      <use xlink:href="#DejaVuSans-2d" transform="translate(275.390625 0.015625)"/>
      <use xlink:href="#DejaVuSans-76" transform="translate(311.474609 0.015625)"/>
      <use xlink:href="#DejaVuSans-61" transform="translate(370.654297 0.015625)"/>
      <use xlink:href="#DejaVuSans-72" transform="translate(431.933594 0.015625)"/>
      <use xlink:href="#DejaVuSans-69" transform="translate(473.046875 0.015625)"/>
      <use xlink:href="#DejaVuSans-61" transform="translate(500.830078 0.015625)"/>
      <use xlink:href="#DejaVuSans-62" transform="translate(562.109375 0.015625)"/>
      <use xlink:href="#DejaVuSans-6c" transform="translate(625.585938 0.015625)"/>
      <use xlink:href="#DejaVuSans-65" transform="translate(653.369141 0.015625)"/>
      <use xlink:href="#DejaVuSans-20" transform="translate(714.892578 0.015625)"/>
      <use xlink:href="#DejaVuSans-304" transform="translate(809.404297 1.234375)"/>
      <use xlink:href="#DejaVuSans-Oblique-65" transform="translate(746.679688 0.015625)"/>
      <use xlink:href="#DejaVuSans-Oblique-76" transform="translate(809.160156 -16.390625) scale(0.7)"/>
      <use xlink:href="#DejaVuSans-20" transform="translate(853.320312 0.015625)"/>
      <use xlink:href="#DejaVuSans-76" transform="translate(885.107422 0.015625)"/>
      <use xlink:href="#DejaVuSans-73" transform="translate(944.287109 0.015625)"/>
      <use xlink:href="#DejaVuSans-20" transform="translate(996.386719 0.015625)"/>
      <use xlink:href="#DejaVuSans-46" transform="translate(1028.173828 0.015625)"/>
      <use xlink:href="#DejaVuSans-50" transform="translate(1085.693359 0.015625)"/>
      <use xlink:href="#DejaVuSans-33" transform="translate(1145.996094 0.015625)"/>
      <use xlink:href="#DejaVuSans-32" transform="translate(1209.619141 0.015625)"/>
      <use xlink:href="#DejaVuSans-20" transform="translate(1273.242188 0.015625)"/>
      <use xlink:href="#DejaVuSans-41" transform="translate(1305.029297 0.015625)"/>
      <use xlink:href="#DejaVuSans-52" transform="translate(1373.4375 0.015625)"/>
      <use xlink:href="#DejaVuSans-20" transform="translate(1442.919922 0.015625)"/>
      <use xlink:href="#DejaVuSans-72" transform="translate(1474.707031 0.015625)"/>
      <use xlink:href="#DejaVuSans-65" transform="translate(1515.820312 0.015625)"/>
      <use xlink:href="#DejaVuSans-66" transform="translate(1577.34375 0.015625)"/>
     </g>
    </g>
   </g>
   <g id="line2d_40">
    <path d="M 60.972709 216.298593 
L 67.594451 200.535675 
L 74.216193 195.364561 
L 80.837935 190.181193 
L 87.459677 187.037642 
L 94.081419 183.581477 
L 100.703161 181.032149 
L 107.324902 177.57752 
L 113.946644 174.609621 
L 120.568386 170.623302 
L 127.190128 167.899832 
L 133.81187 164.096938 
L 140.433612 160.658559 
L 147.055354 155.799421 
L 153.677096 151.515447 
L 160.298838 145.355077 
L 166.92058 141.048669 
L 173.542321 137.186361 
L 180.164063 133.120286 
L 186.785805 129.585124 
L 193.407547 125.514094 
L 200.029289 122.540616 
L 206.651031 118.726772 
L 213.272773 114.48402 
L 219.894515 111.058894 
L 226.516257 107.805093 
L 233.137998 104.453903 
L 239.75974 100.801874 
L 246.381482 97.831248 
L 253.003224 96.244215 
L 259.624966 93.34577 
L 266.246708 89.694191 
L 272.86845 85.40364 
L 279.490192 82.244084 
L 286.111934 79.235411 
L 292.733676 75.468443 
L 299.355417 71.207568 
L 305.977159 68.094056 
L 312.598901 64.567302 
L 319.220643 60.670525 
" clip-path="url(#p07bfc0fa2e)" style="fill: none; stroke: #0d7377; stroke-width: 1.5; stroke-linecap: square"/>
    <defs>
     <path id="m6729b5914a" d="M 0 1.75 
C 0.464105 1.75 0.909265 1.565609 1.237437 1.237437 
C 1.565609 0.909265 1.75 0.464105 1.75 0 
C 1.75 -0.464105 1.565609 -0.909265 1.237437 -1.237437 
C 0.909265 -1.565609 0.464105 -1.75 0 -1.75 
C -0.464105 -1.75 -0.909265 -1.565609 -1.237437 -1.237437 
C -1.565609 -0.909265 -1.75 -0.464105 -1.75 0 
C -1.75 0.464105 -1.565609 0.909265 -1.237437 1.237437 
C -0.909265 1.565609 -0.464105 1.75 0 1.75 
z
" style="stroke: #0d7377"/>
    </defs>
    <g clip-path="url(#p07bfc0fa2e)">
     <use xlink:href="#m6729b5914a" x="60.972709" y="216.298593" style="fill: #0d7377; stroke: #0d7377"/>
     <use xlink:href="#m6729b5914a" x="67.594451" y="200.535675" style="fill: #0d7377; stroke: #0d7377"/>
     <use xlink:href="#m6729b5914a" x="74.216193" y="195.364561" style="fill: #0d7377; stroke: #0d7377"/>
     <use xlink:href="#m6729b5914a" x="80.837935" y="190.181193" style="fill: #0d7377; stroke: #0d7377"/>
     <use xlink:href="#m6729b5914a" x="87.459677" y="187.037642" style="fill: #0d7377; stroke: #0d7377"/>
     <use xlink:href="#m6729b5914a" x="94.081419" y="183.581477" style="fill: #0d7377; stroke: #0d7377"/>
     <use xlink:href="#m6729b5914a" x="100.703161" y="181.032149" style="fill: #0d7377; stroke: #0d7377"/>
     <use xlink:href="#m6729b5914a" x="107.324902" y="177.57752" style="fill: #0d7377; stroke: #0d7377"/>
     <use xlink:href="#m6729b5914a" x="113.946644" y="174.609621" style="fill: #0d7377; stroke: #0d7377"/>
     <use xlink:href="#m6729b5914a" x="120.568386" y="170.623302" style="fill: #0d7377; stroke: #0d7377"/>
     <use xlink:href="#m6729b5914a" x="127.190128" y="167.899832" style="fill: #0d7377; stroke: #0d7377"/>
     <use xlink:href="#m6729b5914a" x="133.81187" y="164.096938" style="fill: #0d7377; stroke: #0d7377"/>
     <use xlink:href="#m6729b5914a" x="140.433612" y="160.658559" style="fill: #0d7377; stroke: #0d7377"/>
     <use xlink:href="#m6729b5914a" x="147.055354" y="155.799421" style="fill: #0d7377; stroke: #0d7377"/>
     <use xlink:href="#m6729b5914a" x="153.677096" y="151.515447" style="fill: #0d7377; stroke: #0d7377"/>
     <use xlink:href="#m6729b5914a" x="160.298838" y="145.355077" style="fill: #0d7377; stroke: #0d7377"/>
     <use xlink:href="#m6729b5914a" x="166.92058" y="141.048669" style="fill: #0d7377; stroke: #0d7377"/>
     <use xlink:href="#m6729b5914a" x="173.542321" y="137.186361" style="fill: #0d7377; stroke: #0d7377"/>
     <use xlink:href="#m6729b5914a" x="180.164063" y="133.120286" style="fill: #0d7377; stroke: #0d7377"/>
     <use xlink:href="#m6729b5914a" x="186.785805" y="129.585124" style="fill: #0d7377; stroke: #0d7377"/>
     <use xlink:href="#m6729b5914a" x="193.407547" y="125.514094" style="fill: #0d7377; stroke: #0d7377"/>
     <use xlink:href="#m6729b5914a" x="200.029289" y="122.540616" style="fill: #0d7377; stroke: #0d7377"/>
     <use xlink:href="#m6729b5914a" x="206.651031" y="118.726772" style="fill: #0d7377; stroke: #0d7377"/>
     <use xlink:href="#m6729b5914a" x="213.272773" y="114.48402" style="fill: #0d7377; stroke: #0d7377"/>
     <use xlink:href="#m6729b5914a" x="219.894515" y="111.058894" style="fill: #0d7377; stroke: #0d7377"/>
     <use xlink:href="#m6729b5914a" x="226.516257" y="107.805093" style="fill: #0d7377; stroke: #0d7377"/>
     <use xlink:href="#m6729b5914a" x="233.137998" y="104.453903" style="fill: #0d7377; stroke: #0d7377"/>
     <use xlink:href="#m6729b5914a" x="239.75974" y="100.801874" style="fill: #0d7377; stroke: #0d7377"/>
     <use xlink:href="#m6729b5914a" x="246.381482" y="97.831248" style="fill: #0d7377; stroke: #0d7377"/>
     <use xlink:href="#m6729b5914a" x="253.003224" y="96.244215" style="fill: #0d7377; stroke: #0d7377"/>
     <use xlink:href="#m6729b5914a" x="259.624966" y="93.34577" style="fill: #0d7377; stroke: #0d7377"/>
     <use xlink:href="#m6729b5914a" x="266.246708" y="89.694191" style="fill: #0d7377; stroke: #0d7377"/>
     <use xlink:href="#m6729b5914a" x="272.86845" y="85.40364" style="fill: #0d7377; stroke: #0d7377"/>
     <use xlink:href="#m6729b5914a" x="279.490192" y="82.244084" style="fill: #0d7377; stroke: #0d7377"/>
     <use xlink:href="#m6729b5914a" x="286.111934" y="79.235411" style="fill: #0d7377; stroke: #0d7377"/>
     <use xlink:href="#m6729b5914a" x="292.733676" y="75.468443" style="fill: #0d7377; stroke: #0d7377"/>
     <use xlink:href="#m6729b5914a" x="299.355417" y="71.207568" style="fill: #0d7377; stroke: #0d7377"/>
     <use xlink:href="#m6729b5914a" x="305.977159" y="68.094056" style="fill: #0d7377; stroke: #0d7377"/>
     <use xlink:href="#m6729b5914a" x="312.598901" y="64.567302" style="fill: #0d7377; stroke: #0d7377"/>
     <use xlink:href="#m6729b5914a" x="319.220643" y="60.670525" style="fill: #0d7377; stroke: #0d7377"/>
    </g>
   </g>
   <g id="line2d_41">
    <path d="M 60.972709 234 
L 67.594451 213.259551 
L 74.216193 207.737647 
L 80.837935 202.817748 
L 87.459677 200.228399 
L 94.081419 196.66011 
L 100.703161 194.669431 
L 107.324902 191.724656 
L 113.946644 189.631284 
L 120.568386 186.569921 
L 127.190128 184.063258 
L 133.81187 180.478497 
L 140.433612 177.459147 
L 147.055354 173.735591 
L 153.677096 169.816709 
L 160.298838 164.246926 
L 166.92058 159.605243 
L 173.542321 155.954233 
L 180.164063 152.814234 
L 186.785805 148.901193 
L 193.407547 145.583752 
L 200.029289 142.277821 
L 206.651031 139.696455 
L 213.272773 136.430396 
L 219.894515 133.650637 
L 226.516257 129.814924 
L 233.137998 125.957639 
L 239.75974 121.077689 
L 246.381482 117.367893 
L 253.003224 114.526877 
L 259.624966 111.977292 
L 266.246708 107.310688 
L 272.86845 102.922277 
L 279.490192 99.560111 
L 286.111934 96.474451 
L 292.733676 92.016372 
L 299.355417 87.046713 
L 305.977159 82.981811 
L 312.598901 78.782849 
L 319.220643 74.82055 
" clip-path="url(#p07bfc0fa2e)" style="fill: none; stroke: #c45c26; stroke-width: 1.5; stroke-linecap: square"/>
    <defs>
     <path id="m22aa6a8b91" d="M 0 1.75 
C 0.464105 1.75 0.909265 1.565609 1.237437 1.237437 
C 1.565609 0.909265 1.75 0.464105 1.75 0 
C 1.75 -0.464105 1.565609 -0.909265 1.237437 -1.237437 
C 0.909265 -1.565609 0.464105 -1.75 0 -1.75 
C -0.464105 -1.75 -0.909265 -1.565609 -1.237437 -1.237437 
C -1.565609 -0.909265 -1.75 -0.464105 -1.75 0 
C -1.75 0.464105 -1.565609 0.909265 -1.237437 1.237437 
C -0.909265 1.565609 -0.464105 1.75 0 1.75 
z
" style="stroke: #c45c26"/>
    </defs>
    <g clip-path="url(#p07bfc0fa2e)">
     <use xlink:href="#m22aa6a8b91" x="60.972709" y="234" style="fill: #c45c26; stroke: #c45c26"/>
     <use xlink:href="#m22aa6a8b91" x="67.594451" y="213.259551" style="fill: #c45c26; stroke: #c45c26"/>
     <use xlink:href="#m22aa6a8b91" x="74.216193" y="207.737647" style="fill: #c45c26; stroke: #c45c26"/>
     <use xlink:href="#m22aa6a8b91" x="80.837935" y="202.817748" style="fill: #c45c26; stroke: #c45c26"/>
     <use xlink:href="#m22aa6a8b91" x="87.459677" y="200.228399" style="fill: #c45c26; stroke: #c45c26"/>
     <use xlink:href="#m22aa6a8b91" x="94.081419" y="196.66011" style="fill: #c45c26; stroke: #c45c26"/>
     <use xlink:href="#m22aa6a8b91" x="100.703161" y="194.669431" style="fill: #c45c26; stroke: #c45c26"/>
     <use xlink:href="#m22aa6a8b91" x="107.324902" y="191.724656" style="fill: #c45c26; stroke: #c45c26"/>
     <use xlink:href="#m22aa6a8b91" x="113.946644" y="189.631284" style="fill: #c45c26; stroke: #c45c26"/>
     <use xlink:href="#m22aa6a8b91" x="120.568386" y="186.569921" style="fill: #c45c26; stroke: #c45c26"/>
     <use xlink:href="#m22aa6a8b91" x="127.190128" y="184.063258" style="fill: #c45c26; stroke: #c45c26"/>
     <use xlink:href="#m22aa6a8b91" x="133.81187" y="180.478497" style="fill: #c45c26; stroke: #c45c26"/>
     <use xlink:href="#m22aa6a8b91" x="140.433612" y="177.459147" style="fill: #c45c26; stroke: #c45c26"/>
     <use xlink:href="#m22aa6a8b91" x="147.055354" y="173.735591" style="fill: #c45c26; stroke: #c45c26"/>
     <use xlink:href="#m22aa6a8b91" x="153.677096" y="169.816709" style="fill: #c45c26; stroke: #c45c26"/>
     <use xlink:href="#m22aa6a8b91" x="160.298838" y="164.246926" style="fill: #c45c26; stroke: #c45c26"/>
     <use xlink:href="#m22aa6a8b91" x="166.92058" y="159.605243" style="fill: #c45c26; stroke: #c45c26"/>
     <use xlink:href="#m22aa6a8b91" x="173.542321" y="155.954233" style="fill: #c45c26; stroke: #c45c26"/>
     <use xlink:href="#m22aa6a8b91" x="180.164063" y="152.814234" style="fill: #c45c26; stroke: #c45c26"/>
     <use xlink:href="#m22aa6a8b91" x="186.785805" y="148.901193" style="fill: #c45c26; stroke: #c45c26"/>
     <use xlink:href="#m22aa6a8b91" x="193.407547" y="145.583752" style="fill: #c45c26; stroke: #c45c26"/>
     <use xlink:href="#m22aa6a8b91" x="200.029289" y="142.277821" style="fill: #c45c26; stroke: #c45c26"/>
     <use xlink:href="#m22aa6a8b91" x="206.651031" y="139.696455" style="fill: #c45c26; stroke: #c45c26"/>
     <use xlink:href="#m22aa6a8b91" x="213.272773" y="136.430396" style="fill: #c45c26; stroke: #c45c26"/>
     <use xlink:href="#m22aa6a8b91" x="219.894515" y="133.650637" style="fill: #c45c26; stroke: #c45c26"/>
     <use xlink:href="#m22aa6a8b91" x="226.516257" y="129.814924" style="fill: #c45c26; stroke: #c45c26"/>
     <use xlink:href="#m22aa6a8b91" x="233.137998" y="125.957639" style="fill: #c45c26; stroke: #c45c26"/>
     <use xlink:href="#m22aa6a8b91" x="239.75974" y="121.077689" style="fill: #c45c26; stroke: #c45c26"/>
     <use xlink:href="#m22aa6a8b91" x="246.381482" y="117.367893" style="fill: #c45c26; stroke: #c45c26"/>
     <use xlink:href="#m22aa6a8b91" x="253.003224" y="114.526877" style="fill: #c45c26; stroke: #c45c26"/>
     <use xlink:href="#m22aa6a8b91" x="259.624966" y="111.977292" style="fill: #c45c26; stroke: #c45c26"/>
     <use xlink:href="#m22aa6a8b91" x="266.246708" y="107.310688" style="fill: #c45c26; stroke: #c45c26"/>
     <use xlink:href="#m22aa6a8b91" x="272.86845" y="102.922277" style="fill: #c45c26; stroke: #c45c26"/>
     <use xlink:href="#m22aa6a8b91" x="279.490192" y="99.560111" style="fill: #c45c26; stroke: #c45c26"/>
     <use xlink:href="#m22aa6a8b91" x="286.111934" y="96.474451" style="fill: #c45c26; stroke: #c45c26"/>
     <use xlink:href="#m22aa6a8b91" x="292.733676" y="92.016372" style="fill: #c45c26; stroke: #c45c26"/>
     <use xlink:href="#m22aa6a8b91" x="299.355417" y="87.046713" style="fill: #c45c26; stroke: #c45c26"/>
     <use xlink:href="#m22aa6a8b91" x="305.977159" y="82.981811" style="fill: #c45c26; stroke: #c45c26"/>
     <use xlink:href="#m22aa6a8b91" x="312.598901" y="78.782849" style="fill: #c45c26; stroke: #c45c26"/>
     <use xlink:href="#m22aa6a8b91" x="319.220643" y="74.82055" style="fill: #c45c26; stroke: #c45c26"/>
    </g>
   </g>
   <g id="line2d_42">
    <path d="M 60.972709 196.55024 
L 67.594451 184.00689 
L 74.216193 179.400517 
L 80.837935 174.357446 
L 87.459677 171.758581 
L 94.081419 167.499353 
L 100.703161 165.20823 
L 107.324902 161.378258 
L 113.946644 158.843694 
L 120.568386 155.438154 
L 127.190128 152.377086 
L 133.81187 148.3637 
L 140.433612 144.845658 
L 147.055354 139.649096 
L 153.677096 134.905724 
L 160.298838 129.785901 
L 166.92058 125.746809 
L 173.542321 122.64476 
L 180.164063 119.217455 
L 186.785805 116.081118 
L 193.407547 113.271683 
L 200.029289 111.490586 
L 206.651031 110.141855 
L 213.272773 107.677397 
L 219.894515 105.280363 
L 226.516257 102.193565 
L 233.137998 98.404879 
L 239.75974 94.363795 
L 246.381482 91.115763 
L 253.003224 88.0793 
L 259.624966 84.891728 
L 266.246708 80.430261 
L 272.86845 76.983925 
L 279.490192 73.414257 
L 286.111934 69.131039 
L 292.733676 64.568997 
L 299.355417 61.038625 
L 305.977159 58.084708 
L 312.598901 55.43773 
L 319.220643 52.56 
" clip-path="url(#p07bfc0fa2e)" style="fill: none; stroke: #90a4ae; stroke-width: 1.5; stroke-linecap: square"/>
    <defs>
     <path id="m98340084f2" d="M 0 1.75 
C 0.464105 1.75 0.909265 1.565609 1.237437 1.237437 
C 1.565609 0.909265 1.75 0.464105 1.75 0 
C 1.75 -0.464105 1.565609 -0.909265 1.237437 -1.237437 
C 0.909265 -1.565609 0.464105 -1.75 0 -1.75 
C -0.464105 -1.75 -0.909265 -1.565609 -1.237437 -1.237437 
C -1.565609 -0.909265 -1.75 -0.464105 -1.75 0 
C -1.75 0.464105 -1.565609 0.909265 -1.237437 1.237437 
C -0.909265 1.565609 -0.464105 1.75 0 1.75 
z
" style="stroke: #90a4ae"/>
    </defs>
    <g clip-path="url(#p07bfc0fa2e)">
     <use xlink:href="#m98340084f2" x="60.972709" y="196.55024" style="fill: #90a4ae; stroke: #90a4ae"/>
     <use xlink:href="#m98340084f2" x="67.594451" y="184.00689" style="fill: #90a4ae; stroke: #90a4ae"/>
     <use xlink:href="#m98340084f2" x="74.216193" y="179.400517" style="fill: #90a4ae; stroke: #90a4ae"/>
     <use xlink:href="#m98340084f2" x="80.837935" y="174.357446" style="fill: #90a4ae; stroke: #90a4ae"/>
     <use xlink:href="#m98340084f2" x="87.459677" y="171.758581" style="fill: #90a4ae; stroke: #90a4ae"/>
     <use xlink:href="#m98340084f2" x="94.081419" y="167.499353" style="fill: #90a4ae; stroke: #90a4ae"/>
     <use xlink:href="#m98340084f2" x="100.703161" y="165.20823" style="fill: #90a4ae; stroke: #90a4ae"/>
     <use xlink:href="#m98340084f2" x="107.324902" y="161.378258" style="fill: #90a4ae; stroke: #90a4ae"/>
     <use xlink:href="#m98340084f2" x="113.946644" y="158.843694" style="fill: #90a4ae; stroke: #90a4ae"/>
     <use xlink:href="#m98340084f2" x="120.568386" y="155.438154" style="fill: #90a4ae; stroke: #90a4ae"/>
     <use xlink:href="#m98340084f2" x="127.190128" y="152.377086" style="fill: #90a4ae; stroke: #90a4ae"/>
     <use xlink:href="#m98340084f2" x="133.81187" y="148.3637" style="fill: #90a4ae; stroke: #90a4ae"/>
     <use xlink:href="#m98340084f2" x="140.433612" y="144.845658" style="fill: #90a4ae; stroke: #90a4ae"/>
     <use xlink:href="#m98340084f2" x="147.055354" y="139.649096" style="fill: #90a4ae; stroke: #90a4ae"/>
     <use xlink:href="#m98340084f2" x="153.677096" y="134.905724" style="fill: #90a4ae; stroke: #90a4ae"/>
     <use xlink:href="#m98340084f2" x="160.298838" y="129.785901" style="fill: #90a4ae; stroke: #90a4ae"/>
     <use xlink:href="#m98340084f2" x="166.92058" y="125.746809" style="fill: #90a4ae; stroke: #90a4ae"/>
     <use xlink:href="#m98340084f2" x="173.542321" y="122.64476" style="fill: #90a4ae; stroke: #90a4ae"/>
     <use xlink:href="#m98340084f2" x="180.164063" y="119.217455" style="fill: #90a4ae; stroke: #90a4ae"/>
     <use xlink:href="#m98340084f2" x="186.785805" y="116.081118" style="fill: #90a4ae; stroke: #90a4ae"/>
     <use xlink:href="#m98340084f2" x="193.407547" y="113.271683" style="fill: #90a4ae; stroke: #90a4ae"/>
     <use xlink:href="#m98340084f2" x="200.029289" y="111.490586" style="fill: #90a4ae; stroke: #90a4ae"/>
     <use xlink:href="#m98340084f2" x="206.651031" y="110.141855" style="fill: #90a4ae; stroke: #90a4ae"/>
     <use xlink:href="#m98340084f2" x="213.272773" y="107.677397" style="fill: #90a4ae; stroke: #90a4ae"/>
     <use xlink:href="#m98340084f2" x="219.894515" y="105.280363" style="fill: #90a4ae; stroke: #90a4ae"/>
     <use xlink:href="#m98340084f2" x="226.516257" y="102.193565" style="fill: #90a4ae; stroke: #90a4ae"/>
     <use xlink:href="#m98340084f2" x="233.137998" y="98.404879" style="fill: #90a4ae; stroke: #90a4ae"/>
     <use xlink:href="#m98340084f2" x="239.75974" y="94.363795" style="fill: #90a4ae; stroke: #90a4ae"/>
     <use xlink:href="#m98340084f2" x="246.381482" y="91.115763" style="fill: #90a4ae; stroke: #90a4ae"/>
     <use xlink:href="#m98340084f2" x="253.003224" y="88.0793" style="fill: #90a4ae; stroke: #90a4ae"/>
     <use xlink:href="#m98340084f2" x="259.624966" y="84.891728" style="fill: #90a4ae; stroke: #90a4ae"/>
     <use xlink:href="#m98340084f2" x="266.246708" y="80.430261" style="fill: #90a4ae; stroke: #90a4ae"/>
     <use xlink:href="#m98340084f2" x="272.86845" y="76.983925" style="fill: #90a4ae; stroke: #90a4ae"/>
     <use xlink:href="#m98340084f2" x="279.490192" y="73.414257" style="fill: #90a4ae; stroke: #90a4ae"/>
     <use xlink:href="#m98340084f2" x="286.111934" y="69.131039" style="fill: #90a4ae; stroke: #90a4ae"/>
     <use xlink:href="#m98340084f2" x="292.733676" y="64.568997" style="fill: #90a4ae; stroke: #90a4ae"/>
     <use xlink:href="#m98340084f2" x="299.355417" y="61.038625" style="fill: #90a4ae; stroke: #90a4ae"/>
     <use xlink:href="#m98340084f2" x="305.977159" y="58.084708" style="fill: #90a4ae; stroke: #90a4ae"/>
     <use xlink:href="#m98340084f2" x="312.598901" y="55.43773" style="fill: #90a4ae; stroke: #90a4ae"/>
     <use xlink:href="#m98340084f2" x="319.220643" y="52.56" style="fill: #90a4ae; stroke: #90a4ae"/>
    </g>
   </g>
   <g id="patch_3">
    <path d="M 48.060312 243.072 
L 48.060312 43.488 
" style="fill: none; stroke: #000000; stroke-width: 0.8; stroke-linejoin: miter; stroke-linecap: square"/>
   </g>
   <g id="patch_4">
    <path d="M 48.060312 243.072 
L 332.13304 243.072 
" style="fill: none; stroke: #000000; stroke-width: 0.8; stroke-linejoin: miter; stroke-linecap: square"/>
   </g>
   <g id="text_12">
    <!-- era5_pretrained -->
    <g transform="translate(146.940551 37.488) scale(0.108 -0.108)">
     <defs>
      <path id="DejaVuSans-5f" d="M 3263 -1063 
L 3263 -1509 
L -63 -1509 
L -63 -1063 
L 3263 -1063 
z
" transform="scale(0.015625)"/>
      <path id="DejaVuSans-70" d="M 1159 525 
L 1159 -1331 
L 581 -1331 
L 581 3500 
L 1159 3500 
L 1159 2969 
Q 1341 3281 1617 3432 
Q 1894 3584 2278 3584 
Q 2916 3584 3314 3078 
Q 3713 2572 3713 1747 
Q 3713 922 3314 415 
Q 2916 -91 2278 -91 
Q 1894 -91 1617 61 
Q 1341 213 1159 525 
z
M 3116 1747 
Q 3116 2381 2855 2742 
Q 2594 3103 2138 3103 
Q 1681 3103 1420 2742 
Q 1159 2381 1159 1747 
Q 1159 1113 1420 752 
Q 1681 391 2138 391 
Q 2594 391 2855 752 
Q 3116 1113 3116 1747 
z
" transform="scale(0.015625)"/>
      <path id="DejaVuSans-6e" d="M 3513 2113 
L 3513 0 
L 2938 0 
L 2938 2094 
Q 2938 2591 2744 2837 
Q 2550 3084 2163 3084 
Q 1697 3084 1428 2787 
Q 1159 2491 1159 1978 
L 1159 0 
L 581 0 
L 581 3500 
L 1159 3500 
L 1159 2956 
Q 1366 3272 1645 3428 
Q 1925 3584 2291 3584 
Q 2894 3584 3203 3211 
Q 3513 2838 3513 2113 
z
" transform="scale(0.015625)"/>
     </defs>
     <use xlink:href="#DejaVuSans-65"/>
     <use xlink:href="#DejaVuSans-72" transform="translate(61.523438 0)"/>
     <use xlink:href="#DejaVuSans-61" transform="translate(102.636719 0)"/>
     <use xlink:href="#DejaVuSans-35" transform="translate(163.916016 0)"/>
     <use xlink:href="#DejaVuSans-5f" transform="translate(227.539062 0)"/>
     <use xlink:href="#DejaVuSans-70" transform="translate(277.539062 0)"/>
     <use xlink:href="#DejaVuSans-72" transform="translate(341.015625 0)"/>
     <use xlink:href="#DejaVuSans-65" transform="translate(379.878906 0)"/>
     <use xlink:href="#DejaVuSans-74" transform="translate(441.402344 0)"/>
     <use xlink:href="#DejaVuSans-72" transform="translate(480.611328 0)"/>
     <use xlink:href="#DejaVuSans-61" transform="translate(521.724609 0)"/>
     <use xlink:href="#DejaVuSans-69" transform="translate(583.003906 0)"/>
     <use xlink:href="#DejaVuSans-6e" transform="translate(610.787109 0)"/>
     <use xlink:href="#DejaVuSans-65" transform="translate(674.166016 0)"/>
     <use xlink:href="#DejaVuSans-64" transform="translate(735.689453 0)"/>
    </g>
   </g>
   <g id="legend_1">
    <g id="line2d_43">
     <path d="M 55.260312 53.96675 
L 63.260312 53.96675 
L 71.260312 53.96675 
" style="fill: none; stroke: #0d7377; stroke-width: 1.5; stroke-linecap: square"/>
     <g>
      <use xlink:href="#m6729b5914a" x="63.260312" y="53.96675" style="fill: #0d7377; stroke: #0d7377"/>
     </g>
    </g>
    <g id="text_13">
     <!-- bf16_mixed@fp32 -->
     <g transform="translate(77.660312 56.76675) scale(0.08 -0.08)">
      <defs>
       <path id="DejaVuSans-36" d="M 2113 2584 
Q 1688 2584 1439 2293 
Q 1191 2003 1191 1497 
Q 1191 994 1439 701 
Q 1688 409 2113 409 
Q 2538 409 2786 701 
Q 3034 994 3034 1497 
Q 3034 2003 2786 2293 
Q 2538 2584 2113 2584 
z
M 3366 4563 
L 3366 3988 
Q 3128 4100 2886 4159 
Q 2644 4219 2406 4219 
Q 1781 4219 1451 3797 
Q 1122 3375 1075 2522 
Q 1259 2794 1537 2939 
Q 1816 3084 2150 3084 
Q 2853 3084 3261 2657 
Q 3669 2231 3669 1497 
Q 3669 778 3244 343 
Q 2819 -91 2113 -91 
Q 1303 -91 875 529 
Q 447 1150 447 2328 
Q 447 3434 972 4092 
Q 1497 4750 2381 4750 
Q 2619 4750 2861 4703 
Q 3103 4656 3366 4563 
z
" transform="scale(0.015625)"/>
       <path id="DejaVuSans-78" d="M 3513 3500 
L 2247 1797 
L 3578 0 
L 2900 0 
L 1881 1375 
L 863 0 
L 184 0 
L 1544 1831 
L 300 3500 
L 978 3500 
L 1906 2253 
L 2834 3500 
L 3513 3500 
z
" transform="scale(0.015625)"/>
       <path id="DejaVuSans-40" d="M 2381 1678 
Q 2381 1231 2603 976 
Q 2825 722 3213 722 
Q 3597 722 3817 978 
Q 4038 1234 4038 1678 
Q 4038 2116 3813 2373 
Q 3588 2631 3206 2631 
Q 2828 2631 2604 2375 
Q 2381 2119 2381 1678 
z
M 4084 744 
Q 3897 503 3655 389 
Q 3413 275 3091 275 
Q 2553 275 2217 664 
Q 1881 1053 1881 1678 
Q 1881 2303 2218 2693 
Q 2556 3084 3091 3084 
Q 3413 3084 3656 2967 
Q 3900 2850 4084 2613 
L 4084 3022 
L 4531 3022 
L 4531 722 
Q 4988 791 5245 1139 
Q 5503 1488 5503 2041 
Q 5503 2375 5404 2669 
Q 5306 2963 5106 3213 
Q 4781 3622 4314 3839 
Q 3847 4056 3297 4056 
Q 2913 4056 2559 3954 
Q 2206 3853 1906 3653 
Q 1416 3334 1139 2817 
Q 863 2300 863 1697 
Q 863 1200 1042 765 
Q 1222 331 1563 0 
Q 1891 -325 2322 -495 
Q 2753 -666 3244 -666 
Q 3647 -666 4036 -530 
Q 4425 -394 4750 -141 
L 5031 -488 
Q 4641 -791 4180 -952 
Q 3719 -1113 3244 -1113 
Q 2666 -1113 2153 -908 
Q 1641 -703 1241 -313 
Q 841 78 631 592 
Q 422 1106 422 1697 
Q 422 2266 634 2781 
Q 847 3297 1241 3688 
Q 1644 4084 2172 4295 
Q 2700 4506 3291 4506 
Q 3953 4506 4520 4234 
Q 5088 3963 5472 3463 
Q 5706 3156 5829 2797 
Q 5953 2438 5953 2053 
Q 5953 1231 5456 756 
Q 4959 281 4084 263 
L 4084 744 
z
" transform="scale(0.015625)"/>
      </defs>
      <use xlink:href="#DejaVuSans-62"/>
      <use xlink:href="#DejaVuSans-66" transform="translate(63.476562 0)"/>
      <use xlink:href="#DejaVuSans-31" transform="translate(98.681641 0)"/>
      <use xlink:href="#DejaVuSans-36" transform="translate(162.304688 0)"/>
      <use xlink:href="#DejaVuSans-5f" transform="translate(225.927734 0)"/>
      <use xlink:href="#DejaVuSans-6d" transform="translate(275.927734 0)"/>
      <use xlink:href="#DejaVuSans-69" transform="translate(373.339844 0)"/>
      <use xlink:href="#DejaVuSans-78" transform="translate(401.123047 0)"/>
      <use xlink:href="#DejaVuSans-65" transform="translate(457.177734 0)"/>
      <use xlink:href="#DejaVuSans-64" transform="translate(518.701172 0)"/>
      <use xlink:href="#DejaVuSans-40" transform="translate(582.177734 0)"/>
      <use xlink:href="#DejaVuSans-66" transform="translate(682.177734 0)"/>
      <use xlink:href="#DejaVuSans-70" transform="translate(717.382812 0)"/>
      <use xlink:href="#DejaVuSans-33" transform="translate(780.859375 0)"/>
      <use xlink:href="#DejaVuSans-32" transform="translate(844.482422 0)"/>
     </g>
    </g>
    <g id="line2d_44">
     <path d="M 55.260312 65.93175 
L 63.260312 65.93175 
L 71.260312 65.93175 
" style="fill: none; stroke: #c45c26; stroke-width: 1.5; stroke-linecap: square"/>
     <g>
      <use xlink:href="#m22aa6a8b91" x="63.260312" y="65.93175" style="fill: #c45c26; stroke: #c45c26"/>
     </g>
    </g>
    <g id="text_14">
     <!-- tf32@fp32 -->
     <g transform="translate(77.660312 68.73175) scale(0.08 -0.08)">
      <use xlink:href="#DejaVuSans-74"/>
      <use xlink:href="#DejaVuSans-66" transform="translate(39.208984 0)"/>
      <use xlink:href="#DejaVuSans-33" transform="translate(74.414062 0)"/>
      <use xlink:href="#DejaVuSans-32" transform="translate(138.037109 0)"/>
      <use xlink:href="#DejaVuSans-40" transform="translate(201.660156 0)"/>
      <use xlink:href="#DejaVuSans-66" transform="translate(301.660156 0)"/>
      <use xlink:href="#DejaVuSans-70" transform="translate(336.865234 0)"/>
      <use xlink:href="#DejaVuSans-33" transform="translate(400.341797 0)"/>
      <use xlink:href="#DejaVuSans-32" transform="translate(463.964844 0)"/>
     </g>
    </g>
    <g id="line2d_45">
     <path d="M 55.260312 77.67425 
L 63.260312 77.67425 
L 71.260312 77.67425 
" style="fill: none; stroke: #90a4ae; stroke-width: 1.5; stroke-linecap: square"/>
     <g>
      <use xlink:href="#m98340084f2" x="63.260312" y="77.67425" style="fill: #90a4ae; stroke: #90a4ae"/>
     </g>
    </g>
    <g id="text_15">
     <!-- PyTorch autocast -->
     <g transform="translate(77.660312 80.47425) scale(0.08 -0.08)">
      <defs>
       <path id="DejaVuSans-79" d="M 2059 -325 
Q 1816 -950 1584 -1140 
Q 1353 -1331 966 -1331 
L 506 -1331 
L 506 -850 
L 844 -850 
Q 1081 -850 1212 -737 
Q 1344 -625 1503 -206 
L 1606 56 
L 191 3500 
L 800 3500 
L 1894 763 
L 2988 3500 
L 3597 3500 
L 2059 -325 
z
" transform="scale(0.015625)"/>
       <path id="DejaVuSans-54" d="M -19 4666 
L 3928 4666 
L 3928 4134 
L 2272 4134 
L 2272 0 
L 1638 0 
L 1638 4134 
L -19 4134 
L -19 4666 
z
" transform="scale(0.015625)"/>
       <path id="DejaVuSans-63" d="M 3122 3366 
L 3122 2828 
Q 2878 2963 2633 3030 
Q 2388 3097 2138 3097 
Q 1578 3097 1268 2742 
Q 959 2388 959 1747 
Q 959 1106 1268 751 
Q 1578 397 2138 397 
Q 2388 397 2633 464 
Q 2878 531 3122 666 
L 3122 134 
Q 2881 22 2623 -34 
Q 2366 -91 2075 -91 
Q 1284 -91 818 406 
Q 353 903 353 1747 
Q 353 2603 823 3093 
Q 1294 3584 2113 3584 
Q 2378 3584 2631 3529 
Q 2884 3475 3122 3366 
z
" transform="scale(0.015625)"/>
       <path id="DejaVuSans-75" d="M 544 1381 
L 544 3500 
L 1119 3500 
L 1119 1403 
Q 1119 906 1312 657 
Q 1506 409 1894 409 
Q 2359 409 2629 706 
Q 2900 1003 2900 1516 
L 2900 3500 
L 3475 3500 
L 3475 0 
L 2900 0 
L 2900 538 
Q 2691 219 2414 64 
Q 2138 -91 1772 -91 
Q 1169 -91 856 284 
Q 544 659 544 1381 
z
M 1991 3584 
L 1991 3584 
z
" transform="scale(0.015625)"/>
      </defs>
      <use xlink:href="#DejaVuSans-50"/>
      <use xlink:href="#DejaVuSans-79" transform="translate(60.302734 0)"/>
      <use xlink:href="#DejaVuSans-54" transform="translate(119.482422 0)"/>
      <use xlink:href="#DejaVuSans-6f" transform="translate(163.566406 0)"/>
      <use xlink:href="#DejaVuSans-72" transform="translate(224.748047 0)"/>
      <use xlink:href="#DejaVuSans-63" transform="translate(263.611328 0)"/>
      <use xlink:href="#DejaVuSans-68" transform="translate(318.591797 0)"/>
      <use xlink:href="#DejaVuSans-20" transform="translate(381.970703 0)"/>
      <use xlink:href="#DejaVuSans-61" transform="translate(413.757812 0)"/>
      <use xlink:href="#DejaVuSans-75" transform="translate(475.037109 0)"/>
      <use xlink:href="#DejaVuSans-74" transform="translate(538.416016 0)"/>
      <use xlink:href="#DejaVuSans-6f" transform="translate(577.625 0)"/>
      <use xlink:href="#DejaVuSans-63" transform="translate(638.806641 0)"/>
      <use xlink:href="#DejaVuSans-61" transform="translate(693.787109 0)"/>
      <use xlink:href="#DejaVuSans-73" transform="translate(755.066406 0)"/>
      <use xlink:href="#DejaVuSans-74" transform="translate(807.166016 0)"/>
     </g>
    </g>
   </g>
  </g>
  <g id="axes_2">
   <g id="patch_5">
    <path d="M 388.947585 243.072 
L 673.020312 243.072 
L 673.020312 43.488 
L 388.947585 43.488 
z
" style="fill: #ffffff"/>
   </g>
   <g id="matplotlib.axis_3">
    <g id="xtick_7">
     <g id="line2d_46">
      <path d="M 442.031883 243.072 
L 442.031883 43.488 
" clip-path="url(#p2cc1bd9788)" style="fill: none; stroke-dasharray: 2.96,1.28; stroke-dashoffset: 0; stroke: #b0b0b0; stroke-opacity: 0.28; stroke-width: 0.8"/>
     </g>
     <g id="line2d_47">
      <g>
       <use xlink:href="#me095087bad" x="442.031883" y="243.072" style="stroke: #000000; stroke-width: 0.8"/>
      </g>
     </g>
     <g id="text_16">
      <!-- 20 -->
      <g transform="translate(436.305633 256.910594) scale(0.09 -0.09)">
       <use xlink:href="#DejaVuSans-32"/>
       <use xlink:href="#DejaVuSans-30" transform="translate(63.623047 0)"/>
      </g>
     </g>
    </g>
    <g id="xtick_8">
     <g id="line2d_48">
      <path d="M 499.420312 243.072 
L 499.420312 43.488 
" clip-path="url(#p2cc1bd9788)" style="fill: none; stroke-dasharray: 2.96,1.28; stroke-dashoffset: 0; stroke: #b0b0b0; stroke-opacity: 0.28; stroke-width: 0.8"/>
     </g>
     <g id="line2d_49">
      <g>
       <use xlink:href="#me095087bad" x="499.420312" y="243.072" style="stroke: #000000; stroke-width: 0.8"/>
      </g>
     </g>
     <g id="text_17">
      <!-- 40 -->
      <g transform="translate(493.694062 256.910594) scale(0.09 -0.09)">
       <defs>
        <path id="DejaVuSans-34" d="M 2419 4116 
L 825 1625 
L 2419 1625 
L 2419 4116 
z
M 2253 4666 
L 3047 4666 
L 3047 1625 
L 3713 1625 
L 3713 1100 
L 3047 1100 
L 3047 0 
L 2419 0 
L 2419 1100 
L 313 1100 
L 313 1709 
L 2253 4666 
z
" transform="scale(0.015625)"/>
       </defs>
       <use xlink:href="#DejaVuSans-34"/>
       <use xlink:href="#DejaVuSans-30" transform="translate(63.623047 0)"/>
      </g>
     </g>
    </g>
    <g id="xtick_9">
     <g id="line2d_50">
      <path d="M 556.808742 243.072 
L 556.808742 43.488 
" clip-path="url(#p2cc1bd9788)" style="fill: none; stroke-dasharray: 2.96,1.28; stroke-dashoffset: 0; stroke: #b0b0b0; stroke-opacity: 0.28; stroke-width: 0.8"/>
     </g>
     <g id="line2d_51">
      <g>
       <use xlink:href="#me095087bad" x="556.808742" y="243.072" style="stroke: #000000; stroke-width: 0.8"/>
      </g>
     </g>
     <g id="text_18">
      <!-- 60 -->
      <g transform="translate(551.082492 256.910594) scale(0.09 -0.09)">
       <use xlink:href="#DejaVuSans-36"/>
       <use xlink:href="#DejaVuSans-30" transform="translate(63.623047 0)"/>
      </g>
     </g>
    </g>
    <g id="xtick_10">
     <g id="line2d_52">
      <path d="M 614.197172 243.072 
L 614.197172 43.488 
" clip-path="url(#p2cc1bd9788)" style="fill: none; stroke-dasharray: 2.96,1.28; stroke-dashoffset: 0; stroke: #b0b0b0; stroke-opacity: 0.28; stroke-width: 0.8"/>
     </g>
     <g id="line2d_53">
      <g>
       <use xlink:href="#me095087bad" x="614.197172" y="243.072" style="stroke: #000000; stroke-width: 0.8"/>
      </g>
     </g>
     <g id="text_19">
      <!-- 80 -->
      <g transform="translate(608.470922 256.910594) scale(0.09 -0.09)">
       <defs>
        <path id="DejaVuSans-38" d="M 2034 2216 
Q 1584 2216 1326 1975 
Q 1069 1734 1069 1313 
Q 1069 891 1326 650 
Q 1584 409 2034 409 
Q 2484 409 2743 651 
Q 3003 894 3003 1313 
Q 3003 1734 2745 1975 
Q 2488 2216 2034 2216 
z
M 1403 2484 
Q 997 2584 770 2862 
Q 544 3141 544 3541 
Q 544 4100 942 4425 
Q 1341 4750 2034 4750 
Q 2731 4750 3128 4425 
Q 3525 4100 3525 3541 
Q 3525 3141 3298 2862 
Q 3072 2584 2669 2484 
Q 3125 2378 3379 2068 
Q 3634 1759 3634 1313 
Q 3634 634 3220 271 
Q 2806 -91 2034 -91 
Q 1263 -91 848 271 
Q 434 634 434 1313 
Q 434 1759 690 2068 
Q 947 2378 1403 2484 
z
M 1172 3481 
Q 1172 3119 1398 2916 
Q 1625 2713 2034 2713 
Q 2441 2713 2670 2916 
Q 2900 3119 2900 3481 
Q 2900 3844 2670 4047 
Q 2441 4250 2034 4250 
Q 1625 4250 1398 4047 
Q 1172 3844 1172 3481 
z
" transform="scale(0.015625)"/>
       </defs>
       <use xlink:href="#DejaVuSans-38"/>
       <use xlink:href="#DejaVuSans-30" transform="translate(63.623047 0)"/>
      </g>
     </g>
    </g>
    <g id="xtick_11">
     <g id="line2d_54">
      <path d="M 671.585602 243.072 
L 671.585602 43.488 
" clip-path="url(#p2cc1bd9788)" style="fill: none; stroke-dasharray: 2.96,1.28; stroke-dashoffset: 0; stroke: #b0b0b0; stroke-opacity: 0.28; stroke-width: 0.8"/>
     </g>
     <g id="line2d_55">
      <g>
       <use xlink:href="#me095087bad" x="671.585602" y="243.072" style="stroke: #000000; stroke-width: 0.8"/>
      </g>
     </g>
     <g id="text_20">
      <!-- 100 -->
      <g transform="translate(662.996227 256.910594) scale(0.09 -0.09)">
       <use xlink:href="#DejaVuSans-31"/>
       <use xlink:href="#DejaVuSans-30" transform="translate(63.623047 0)"/>
       <use xlink:href="#DejaVuSans-30" transform="translate(127.246094 0)"/>
      </g>
     </g>
    </g>
    <g id="text_21">
     <!-- Lead time (h) -->
     <g transform="translate(500.781918 269.620906) scale(0.09 -0.09)">
      <use xlink:href="#DejaVuSans-4c"/>
      <use xlink:href="#DejaVuSans-65" transform="translate(53.962891 0)"/>
      <use xlink:href="#DejaVuSans-61" transform="translate(115.486328 0)"/>
      <use xlink:href="#DejaVuSans-64" transform="translate(176.765625 0)"/>
      <use xlink:href="#DejaVuSans-20" transform="translate(240.242188 0)"/>
      <use xlink:href="#DejaVuSans-74" transform="translate(272.029297 0)"/>
      <use xlink:href="#DejaVuSans-69" transform="translate(311.238281 0)"/>
      <use xlink:href="#DejaVuSans-6d" transform="translate(339.021484 0)"/>
      <use xlink:href="#DejaVuSans-65" transform="translate(436.433594 0)"/>
      <use xlink:href="#DejaVuSans-20" transform="translate(497.957031 0)"/>
      <use xlink:href="#DejaVuSans-28" transform="translate(529.744141 0)"/>
      <use xlink:href="#DejaVuSans-68" transform="translate(568.757812 0)"/>
      <use xlink:href="#DejaVuSans-29" transform="translate(632.136719 0)"/>
     </g>
    </g>
   </g>
   <g id="matplotlib.axis_4">
    <g id="ytick_25">
     <g id="line2d_56">
      <path d="M 388.947585 234.007761 
L 673.020312 234.007761 
" clip-path="url(#p2cc1bd9788)" style="fill: none; stroke-dasharray: 2.96,1.28; stroke-dashoffset: 0; stroke: #b0b0b0; stroke-opacity: 0.28; stroke-width: 0.8"/>
     </g>
     <g id="line2d_57">
      <g>
       <use xlink:href="#m2b5686d001" x="388.947585" y="234.007761" style="stroke: #000000; stroke-width: 0.8"/>
      </g>
     </g>
     <g id="text_22">
      <!-- $\mathdefault{10^{-3}}$ -->
      <g transform="translate(360.797585 237.427058) scale(0.09 -0.09)">
       <use xlink:href="#DejaVuSans-31" transform="translate(0 0.765625)"/>
       <use xlink:href="#DejaVuSans-30" transform="translate(63.623047 0.765625)"/>
       <use xlink:href="#DejaVuSans-2212" transform="translate(128.203125 39.046875) scale(0.7)"/>
       <use xlink:href="#DejaVuSans-33" transform="translate(186.855469 39.046875) scale(0.7)"/>
      </g>
     </g>
    </g>
    <g id="ytick_26">
     <g id="line2d_58">
      <path d="M 388.947585 96.689104 
L 673.020312 96.689104 
" clip-path="url(#p2cc1bd9788)" style="fill: none; stroke-dasharray: 2.96,1.28; stroke-dashoffset: 0; stroke: #b0b0b0; stroke-opacity: 0.28; stroke-width: 0.8"/>
     </g>
     <g id="line2d_59">
      <g>
       <use xlink:href="#m2b5686d001" x="388.947585" y="96.689104" style="stroke: #000000; stroke-width: 0.8"/>
      </g>
     </g>
     <g id="text_23">
      <!-- $\mathdefault{10^{-2}}$ -->
      <g transform="translate(360.797585 100.108401) scale(0.09 -0.09)">
       <use xlink:href="#DejaVuSans-31" transform="translate(0 0.765625)"/>
       <use xlink:href="#DejaVuSans-30" transform="translate(63.623047 0.765625)"/>
       <use xlink:href="#DejaVuSans-2212" transform="translate(128.203125 39.046875) scale(0.7)"/>
       <use xlink:href="#DejaVuSans-32" transform="translate(186.855469 39.046875) scale(0.7)"/>
      </g>
     </g>
    </g>
    <g id="ytick_27">
     <g id="line2d_60">
      <g>
       <use xlink:href="#md8639ac159" x="388.947585" y="240.291118" style="stroke: #000000; stroke-width: 0.6"/>
      </g>
     </g>
    </g>
    <g id="ytick_28">
     <g id="line2d_61">
      <g>
       <use xlink:href="#md8639ac159" x="388.947585" y="192.670727" style="stroke: #000000; stroke-width: 0.6"/>
      </g>
     </g>
    </g>
    <g id="ytick_29">
     <g id="line2d_62">
      <g>
       <use xlink:href="#md8639ac159" x="388.947585" y="168.490111" style="stroke: #000000; stroke-width: 0.6"/>
      </g>
     </g>
    </g>
    <g id="ytick_30">
     <g id="line2d_63">
      <g>
       <use xlink:href="#md8639ac159" x="388.947585" y="151.333692" style="stroke: #000000; stroke-width: 0.6"/>
      </g>
     </g>
    </g>
    <g id="ytick_31">
     <g id="line2d_64">
      <g>
       <use xlink:href="#md8639ac159" x="388.947585" y="138.026139" style="stroke: #000000; stroke-width: 0.6"/>
      </g>
     </g>
    </g>
    <g id="ytick_32">
     <g id="line2d_65">
      <g>
       <use xlink:href="#md8639ac159" x="388.947585" y="127.153077" style="stroke: #000000; stroke-width: 0.6"/>
      </g>
     </g>
    </g>
    <g id="ytick_33">
     <g id="line2d_66">
      <g>
       <use xlink:href="#md8639ac159" x="388.947585" y="117.960033" style="stroke: #000000; stroke-width: 0.6"/>
      </g>
     </g>
    </g>
    <g id="ytick_34">
     <g id="line2d_67">
      <g>
       <use xlink:href="#md8639ac159" x="388.947585" y="109.996657" style="stroke: #000000; stroke-width: 0.6"/>
      </g>
     </g>
    </g>
    <g id="ytick_35">
     <g id="line2d_68">
      <g>
       <use xlink:href="#md8639ac159" x="388.947585" y="102.972462" style="stroke: #000000; stroke-width: 0.6"/>
      </g>
     </g>
    </g>
    <g id="ytick_36">
     <g id="line2d_69">
      <g>
       <use xlink:href="#md8639ac159" x="388.947585" y="55.35207" style="stroke: #000000; stroke-width: 0.6"/>
      </g>
     </g>
    </g>
    <g id="text_24">
     <!-- worst-variable $\bar{e}_v$ vs FP32 AR ref -->
     <g transform="translate(354.925866 215.865) rotate(-90) scale(0.09 -0.09)">
      <use xlink:href="#DejaVuSans-77" transform="translate(0 0.015625)"/>
      <use xlink:href="#DejaVuSans-6f" transform="translate(81.787109 0.015625)"/>
      <use xlink:href="#DejaVuSans-72" transform="translate(142.96875 0.015625)"/>
      <use xlink:href="#DejaVuSans-73" transform="translate(184.082031 0.015625)"/>
      <use xlink:href="#DejaVuSans-74" transform="translate(236.181641 0.015625)"/>
      <use xlink:href="#DejaVuSans-2d" transform="translate(275.390625 0.015625)"/>
      <use xlink:href="#DejaVuSans-76" transform="translate(311.474609 0.015625)"/>
      <use xlink:href="#DejaVuSans-61" transform="translate(370.654297 0.015625)"/>
      <use xlink:href="#DejaVuSans-72" transform="translate(431.933594 0.015625)"/>
      <use xlink:href="#DejaVuSans-69" transform="translate(473.046875 0.015625)"/>
      <use xlink:href="#DejaVuSans-61" transform="translate(500.830078 0.015625)"/>
      <use xlink:href="#DejaVuSans-62" transform="translate(562.109375 0.015625)"/>
      <use xlink:href="#DejaVuSans-6c" transform="translate(625.585938 0.015625)"/>
      <use xlink:href="#DejaVuSans-65" transform="translate(653.369141 0.015625)"/>
      <use xlink:href="#DejaVuSans-20" transform="translate(714.892578 0.015625)"/>
      <use xlink:href="#DejaVuSans-304" transform="translate(809.404297 1.234375)"/>
      <use xlink:href="#DejaVuSans-Oblique-65" transform="translate(746.679688 0.015625)"/>
      <use xlink:href="#DejaVuSans-Oblique-76" transform="translate(809.160156 -16.390625) scale(0.7)"/>
      <use xlink:href="#DejaVuSans-20" transform="translate(853.320312 0.015625)"/>
      <use xlink:href="#DejaVuSans-76" transform="translate(885.107422 0.015625)"/>
      <use xlink:href="#DejaVuSans-73" transform="translate(944.287109 0.015625)"/>
      <use xlink:href="#DejaVuSans-20" transform="translate(996.386719 0.015625)"/>
      <use xlink:href="#DejaVuSans-46" transform="translate(1028.173828 0.015625)"/>
      <use xlink:href="#DejaVuSans-50" transform="translate(1085.693359 0.015625)"/>
      <use xlink:href="#DejaVuSans-33" transform="translate(1145.996094 0.015625)"/>
      <use xlink:href="#DejaVuSans-32" transform="translate(1209.619141 0.015625)"/>
      <use xlink:href="#DejaVuSans-20" transform="translate(1273.242188 0.015625)"/>
      <use xlink:href="#DejaVuSans-41" transform="translate(1305.029297 0.015625)"/>
      <use xlink:href="#DejaVuSans-52" transform="translate(1373.4375 0.015625)"/>
      <use xlink:href="#DejaVuSans-20" transform="translate(1442.919922 0.015625)"/>
      <use xlink:href="#DejaVuSans-72" transform="translate(1474.707031 0.015625)"/>
      <use xlink:href="#DejaVuSans-65" transform="translate(1515.820312 0.015625)"/>
      <use xlink:href="#DejaVuSans-66" transform="translate(1577.34375 0.015625)"/>
     </g>
    </g>
   </g>
   <g id="line2d_70">
    <path d="M 401.859982 135.248875 
L 419.076511 138.30596 
L 436.29304 134.857424 
L 453.509569 133.985297 
L 470.726098 132.933805 
L 487.942627 131.920642 
L 505.159155 129.566296 
L 522.375684 129.779371 
L 539.592213 127.579413 
L 556.808742 126.827854 
L 574.025271 124.650936 
L 591.2418 123.483874 
L 608.458329 112.976097 
L 625.674858 101.836813 
L 642.891387 93.167814 
L 660.107916 85.957081 
" clip-path="url(#p2cc1bd9788)" style="fill: none; stroke: #0d7377; stroke-width: 1.5; stroke-linecap: square"/>
    <g clip-path="url(#p2cc1bd9788)">
     <use xlink:href="#m6729b5914a" x="401.859982" y="135.248875" style="fill: #0d7377; stroke: #0d7377"/>
     <use xlink:href="#m6729b5914a" x="419.076511" y="138.30596" style="fill: #0d7377; stroke: #0d7377"/>
     <use xlink:href="#m6729b5914a" x="436.29304" y="134.857424" style="fill: #0d7377; stroke: #0d7377"/>
     <use xlink:href="#m6729b5914a" x="453.509569" y="133.985297" style="fill: #0d7377; stroke: #0d7377"/>
     <use xlink:href="#m6729b5914a" x="470.726098" y="132.933805" style="fill: #0d7377; stroke: #0d7377"/>
     <use xlink:href="#m6729b5914a" x="487.942627" y="131.920642" style="fill: #0d7377; stroke: #0d7377"/>
     <use xlink:href="#m6729b5914a" x="505.159155" y="129.566296" style="fill: #0d7377; stroke: #0d7377"/>
     <use xlink:href="#m6729b5914a" x="522.375684" y="129.779371" style="fill: #0d7377; stroke: #0d7377"/>
     <use xlink:href="#m6729b5914a" x="539.592213" y="127.579413" style="fill: #0d7377; stroke: #0d7377"/>
     <use xlink:href="#m6729b5914a" x="556.808742" y="126.827854" style="fill: #0d7377; stroke: #0d7377"/>
     <use xlink:href="#m6729b5914a" x="574.025271" y="124.650936" style="fill: #0d7377; stroke: #0d7377"/>
     <use xlink:href="#m6729b5914a" x="591.2418" y="123.483874" style="fill: #0d7377; stroke: #0d7377"/>
     <use xlink:href="#m6729b5914a" x="608.458329" y="112.976097" style="fill: #0d7377; stroke: #0d7377"/>
     <use xlink:href="#m6729b5914a" x="625.674858" y="101.836813" style="fill: #0d7377; stroke: #0d7377"/>
     <use xlink:href="#m6729b5914a" x="642.891387" y="93.167814" style="fill: #0d7377; stroke: #0d7377"/>
     <use xlink:href="#m6729b5914a" x="660.107916" y="85.957081" style="fill: #0d7377; stroke: #0d7377"/>
    </g>
   </g>
   <g id="line2d_71">
    <path d="M 401.859982 234 
L 419.076511 226.286699 
L 436.29304 220.2224 
L 453.509569 218.934797 
L 470.726098 215.286135 
L 487.942627 214.254332 
L 505.159155 210.427817 
L 522.375684 206.688694 
L 539.592213 198.618781 
L 556.808742 189.288667 
L 574.025271 181.068094 
L 591.2418 174.220567 
L 608.458329 167.586089 
L 625.674858 160.512495 
L 642.891387 154.072427 
L 660.107916 148.090264 
" clip-path="url(#p2cc1bd9788)" style="fill: none; stroke: #c45c26; stroke-width: 1.5; stroke-linecap: square"/>
    <g clip-path="url(#p2cc1bd9788)">
     <use xlink:href="#m22aa6a8b91" x="401.859982" y="234" style="fill: #c45c26; stroke: #c45c26"/>
     <use xlink:href="#m22aa6a8b91" x="419.076511" y="226.286699" style="fill: #c45c26; stroke: #c45c26"/>
     <use xlink:href="#m22aa6a8b91" x="436.29304" y="220.2224" style="fill: #c45c26; stroke: #c45c26"/>
     <use xlink:href="#m22aa6a8b91" x="453.509569" y="218.934797" style="fill: #c45c26; stroke: #c45c26"/>
     <use xlink:href="#m22aa6a8b91" x="470.726098" y="215.286135" style="fill: #c45c26; stroke: #c45c26"/>
     <use xlink:href="#m22aa6a8b91" x="487.942627" y="214.254332" style="fill: #c45c26; stroke: #c45c26"/>
     <use xlink:href="#m22aa6a8b91" x="505.159155" y="210.427817" style="fill: #c45c26; stroke: #c45c26"/>
     <use xlink:href="#m22aa6a8b91" x="522.375684" y="206.688694" style="fill: #c45c26; stroke: #c45c26"/>
     <use xlink:href="#m22aa6a8b91" x="539.592213" y="198.618781" style="fill: #c45c26; stroke: #c45c26"/>
     <use xlink:href="#m22aa6a8b91" x="556.808742" y="189.288667" style="fill: #c45c26; stroke: #c45c26"/>
     <use xlink:href="#m22aa6a8b91" x="574.025271" y="181.068094" style="fill: #c45c26; stroke: #c45c26"/>
     <use xlink:href="#m22aa6a8b91" x="591.2418" y="174.220567" style="fill: #c45c26; stroke: #c45c26"/>
     <use xlink:href="#m22aa6a8b91" x="608.458329" y="167.586089" style="fill: #c45c26; stroke: #c45c26"/>
     <use xlink:href="#m22aa6a8b91" x="625.674858" y="160.512495" style="fill: #c45c26; stroke: #c45c26"/>
     <use xlink:href="#m22aa6a8b91" x="642.891387" y="154.072427" style="fill: #c45c26; stroke: #c45c26"/>
     <use xlink:href="#m22aa6a8b91" x="660.107916" y="148.090264" style="fill: #c45c26; stroke: #c45c26"/>
    </g>
   </g>
   <g id="line2d_72">
    <path d="M 401.859982 124.179886 
L 419.076511 124.899325 
L 436.29304 120.164013 
L 453.509569 118.211695 
L 470.726098 116.490539 
L 487.942627 114.768213 
L 505.159155 112.257065 
L 522.375684 111.022785 
L 539.592213 104.44467 
L 556.808742 96.77117 
L 574.025271 92.537558 
L 591.2418 88.903905 
L 608.458329 80.622701 
L 625.674858 68.738593 
L 642.891387 60.499623 
L 660.107916 52.56 
" clip-path="url(#p2cc1bd9788)" style="fill: none; stroke: #90a4ae; stroke-width: 1.5; stroke-linecap: square"/>
    <g clip-path="url(#p2cc1bd9788)">
     <use xlink:href="#m98340084f2" x="401.859982" y="124.179886" style="fill: #90a4ae; stroke: #90a4ae"/>
     <use xlink:href="#m98340084f2" x="419.076511" y="124.899325" style="fill: #90a4ae; stroke: #90a4ae"/>
     <use xlink:href="#m98340084f2" x="436.29304" y="120.164013" style="fill: #90a4ae; stroke: #90a4ae"/>
     <use xlink:href="#m98340084f2" x="453.509569" y="118.211695" style="fill: #90a4ae; stroke: #90a4ae"/>
     <use xlink:href="#m98340084f2" x="470.726098" y="116.490539" style="fill: #90a4ae; stroke: #90a4ae"/>
     <use xlink:href="#m98340084f2" x="487.942627" y="114.768213" style="fill: #90a4ae; stroke: #90a4ae"/>
     <use xlink:href="#m98340084f2" x="505.159155" y="112.257065" style="fill: #90a4ae; stroke: #90a4ae"/>
     <use xlink:href="#m98340084f2" x="522.375684" y="111.022785" style="fill: #90a4ae; stroke: #90a4ae"/>
     <use xlink:href="#m98340084f2" x="539.592213" y="104.44467" style="fill: #90a4ae; stroke: #90a4ae"/>
     <use xlink:href="#m98340084f2" x="556.808742" y="96.77117" style="fill: #90a4ae; stroke: #90a4ae"/>
     <use xlink:href="#m98340084f2" x="574.025271" y="92.537558" style="fill: #90a4ae; stroke: #90a4ae"/>
     <use xlink:href="#m98340084f2" x="591.2418" y="88.903905" style="fill: #90a4ae; stroke: #90a4ae"/>
     <use xlink:href="#m98340084f2" x="608.458329" y="80.622701" style="fill: #90a4ae; stroke: #90a4ae"/>
     <use xlink:href="#m98340084f2" x="625.674858" y="68.738593" style="fill: #90a4ae; stroke: #90a4ae"/>
     <use xlink:href="#m98340084f2" x="642.891387" y="60.499623" style="fill: #90a4ae; stroke: #90a4ae"/>
     <use xlink:href="#m98340084f2" x="660.107916" y="52.56" style="fill: #90a4ae; stroke: #90a4ae"/>
    </g>
   </g>
   <g id="patch_6">
    <path d="M 388.947585 243.072 
L 388.947585 43.488 
" style="fill: none; stroke: #000000; stroke-width: 0.8; stroke-linejoin: miter; stroke-linecap: square"/>
   </g>
   <g id="patch_7">
    <path d="M 388.947585 243.072 
L 673.020312 243.072 
" style="fill: none; stroke: #000000; stroke-width: 0.8; stroke-linejoin: miter; stroke-linecap: square"/>
   </g>
   <g id="text_25">
    <!-- cams -->
    <g transform="translate(516.632605 37.488) scale(0.108 -0.108)">
     <use xlink:href="#DejaVuSans-63"/>
     <use xlink:href="#DejaVuSans-61" transform="translate(54.980469 0)"/>
     <use xlink:href="#DejaVuSans-6d" transform="translate(116.259766 0)"/>
     <use xlink:href="#DejaVuSans-73" transform="translate(213.671875 0)"/>
    </g>
   </g>
   <g id="legend_2">
    <g id="line2d_73">
     <path d="M 396.147585 53.96675 
L 404.147585 53.96675 
L 412.147585 53.96675 
" style="fill: none; stroke: #0d7377; stroke-width: 1.5; stroke-linecap: square"/>
     <g>
      <use xlink:href="#m6729b5914a" x="404.147585" y="53.96675" style="fill: #0d7377; stroke: #0d7377"/>
     </g>
    </g>
    <g id="text_26">
     <!-- bf16_mixed@fp32 -->
     <g transform="translate(418.547585 56.76675) scale(0.08 -0.08)">
      <use xlink:href="#DejaVuSans-62"/>
      <use xlink:href="#DejaVuSans-66" transform="translate(63.476562 0)"/>
      <use xlink:href="#DejaVuSans-31" transform="translate(98.681641 0)"/>
      <use xlink:href="#DejaVuSans-36" transform="translate(162.304688 0)"/>
      <use xlink:href="#DejaVuSans-5f" transform="translate(225.927734 0)"/>
      <use xlink:href="#DejaVuSans-6d" transform="translate(275.927734 0)"/>
      <use xlink:href="#DejaVuSans-69" transform="translate(373.339844 0)"/>
      <use xlink:href="#DejaVuSans-78" transform="translate(401.123047 0)"/>
      <use xlink:href="#DejaVuSans-65" transform="translate(457.177734 0)"/>
      <use xlink:href="#DejaVuSans-64" transform="translate(518.701172 0)"/>
      <use xlink:href="#DejaVuSans-40" transform="translate(582.177734 0)"/>
      <use xlink:href="#DejaVuSans-66" transform="translate(682.177734 0)"/>
      <use xlink:href="#DejaVuSans-70" transform="translate(717.382812 0)"/>
      <use xlink:href="#DejaVuSans-33" transform="translate(780.859375 0)"/>
      <use xlink:href="#DejaVuSans-32" transform="translate(844.482422 0)"/>
     </g>
    </g>
    <g id="line2d_74">
     <path d="M 396.147585 65.93175 
L 404.147585 65.93175 
L 412.147585 65.93175 
" style="fill: none; stroke: #c45c26; stroke-width: 1.5; stroke-linecap: square"/>
     <g>
      <use xlink:href="#m22aa6a8b91" x="404.147585" y="65.93175" style="fill: #c45c26; stroke: #c45c26"/>
     </g>
    </g>
    <g id="text_27">
     <!-- tf32@fp32 -->
     <g transform="translate(418.547585 68.73175) scale(0.08 -0.08)">
      <use xlink:href="#DejaVuSans-74"/>
      <use xlink:href="#DejaVuSans-66" transform="translate(39.208984 0)"/>
      <use xlink:href="#DejaVuSans-33" transform="translate(74.414062 0)"/>
      <use xlink:href="#DejaVuSans-32" transform="translate(138.037109 0)"/>
      <use xlink:href="#DejaVuSans-40" transform="translate(201.660156 0)"/>
      <use xlink:href="#DejaVuSans-66" transform="translate(301.660156 0)"/>
      <use xlink:href="#DejaVuSans-70" transform="translate(336.865234 0)"/>
      <use xlink:href="#DejaVuSans-33" transform="translate(400.341797 0)"/>
      <use xlink:href="#DejaVuSans-32" transform="translate(463.964844 0)"/>
     </g>
    </g>
    <g id="line2d_75">
     <path d="M 396.147585 77.67425 
L 404.147585 77.67425 
L 412.147585 77.67425 
" style="fill: none; stroke: #90a4ae; stroke-width: 1.5; stroke-linecap: square"/>
     <g>
      <use xlink:href="#m98340084f2" x="404.147585" y="77.67425" style="fill: #90a4ae; stroke: #90a4ae"/>
     </g>
    </g>
    <g id="text_28">
     <!-- PyTorch autocast -->
     <g transform="translate(418.547585 80.47425) scale(0.08 -0.08)">
      <use xlink:href="#DejaVuSans-50"/>
      <use xlink:href="#DejaVuSans-79" transform="translate(60.302734 0)"/>
      <use xlink:href="#DejaVuSans-54" transform="translate(119.482422 0)"/>
      <use xlink:href="#DejaVuSans-6f" transform="translate(163.566406 0)"/>
      <use xlink:href="#DejaVuSans-72" transform="translate(224.748047 0)"/>
      <use xlink:href="#DejaVuSans-63" transform="translate(263.611328 0)"/>
      <use xlink:href="#DejaVuSans-68" transform="translate(318.591797 0)"/>
      <use xlink:href="#DejaVuSans-20" transform="translate(381.970703 0)"/>
      <use xlink:href="#DejaVuSans-61" transform="translate(413.757812 0)"/>
      <use xlink:href="#DejaVuSans-75" transform="translate(475.037109 0)"/>
      <use xlink:href="#DejaVuSans-74" transform="translate(538.416016 0)"/>
      <use xlink:href="#DejaVuSans-6f" transform="translate(577.625 0)"/>
      <use xlink:href="#DejaVuSans-63" transform="translate(638.806641 0)"/>
      <use xlink:href="#DejaVuSans-61" transform="translate(693.787109 0)"/>
      <use xlink:href="#DejaVuSans-73" transform="translate(755.066406 0)"/>
      <use xlink:href="#DejaVuSans-74" transform="translate(807.166016 0)"/>
     </g>
    </g>
   </g>
  </g>
  <g id="text_29">
   <!-- Autoregressive drift vs unfused PyTorch FP32 (same IC, seed 42) -->
   <g transform="translate(172.904844 15.558281) scale(0.11 -0.11)">
    <defs>
     <path id="DejaVuSans-67" d="M 2906 1791 
Q 2906 2416 2648 2759 
Q 2391 3103 1925 3103 
Q 1463 3103 1205 2759 
Q 947 2416 947 1791 
Q 947 1169 1205 825 
Q 1463 481 1925 481 
Q 2391 481 2648 825 
Q 2906 1169 2906 1791 
z
M 3481 434 
Q 3481 -459 3084 -895 
Q 2688 -1331 1869 -1331 
Q 1566 -1331 1297 -1286 
Q 1028 -1241 775 -1147 
L 775 -588 
Q 1028 -725 1275 -790 
Q 1522 -856 1778 -856 
Q 2344 -856 2625 -561 
Q 2906 -266 2906 331 
L 2906 616 
Q 2728 306 2450 153 
Q 2172 0 1784 0 
Q 1141 0 747 490 
Q 353 981 353 1791 
Q 353 2603 747 3093 
Q 1141 3584 1784 3584 
Q 2172 3584 2450 3431 
Q 2728 3278 2906 2969 
L 2906 3500 
L 3481 3500 
L 3481 434 
z
" transform="scale(0.015625)"/>
     <path id="DejaVuSans-49" d="M 628 4666 
L 1259 4666 
L 1259 0 
L 628 0 
L 628 4666 
z
" transform="scale(0.015625)"/>
     <path id="DejaVuSans-43" d="M 4122 4306 
L 4122 3641 
Q 3803 3938 3442 4084 
Q 3081 4231 2675 4231 
Q 1875 4231 1450 3742 
Q 1025 3253 1025 2328 
Q 1025 1406 1450 917 
Q 1875 428 2675 428 
Q 3081 428 3442 575 
Q 3803 722 4122 1019 
L 4122 359 
Q 3791 134 3420 21 
Q 3050 -91 2638 -91 
Q 1578 -91 968 557 
Q 359 1206 359 2328 
Q 359 3453 968 4101 
Q 1578 4750 2638 4750 
Q 3056 4750 3426 4639 
Q 3797 4528 4122 4306 
z
" transform="scale(0.015625)"/>
     <path id="DejaVuSans-2c" d="M 750 794 
L 1409 794 
L 1409 256 
L 897 -744 
L 494 -744 
L 750 256 
L 750 794 
z
" transform="scale(0.015625)"/>
    </defs>
    <use xlink:href="#DejaVuSans-41"/>
    <use xlink:href="#DejaVuSans-75" transform="translate(68.408203 0)"/>
    <use xlink:href="#DejaVuSans-74" transform="translate(131.787109 0)"/>
    <use xlink:href="#DejaVuSans-6f" transform="translate(170.996094 0)"/>
    <use xlink:href="#DejaVuSans-72" transform="translate(232.177734 0)"/>
    <use xlink:href="#DejaVuSans-65" transform="translate(271.041016 0)"/>
    <use xlink:href="#DejaVuSans-67" transform="translate(332.564453 0)"/>
    <use xlink:href="#DejaVuSans-72" transform="translate(396.041016 0)"/>
    <use xlink:href="#DejaVuSans-65" transform="translate(434.904297 0)"/>
    <use xlink:href="#DejaVuSans-73" transform="translate(496.427734 0)"/>
    <use xlink:href="#DejaVuSans-73" transform="translate(548.527344 0)"/>
    <use xlink:href="#DejaVuSans-69" transform="translate(600.626953 0)"/>
    <use xlink:href="#DejaVuSans-76" transform="translate(628.410156 0)"/>
    <use xlink:href="#DejaVuSans-65" transform="translate(687.589844 0)"/>
    <use xlink:href="#DejaVuSans-20" transform="translate(749.113281 0)"/>
    <use xlink:href="#DejaVuSans-64" transform="translate(780.900391 0)"/>
    <use xlink:href="#DejaVuSans-72" transform="translate(844.376953 0)"/>
    <use xlink:href="#DejaVuSans-69" transform="translate(885.490234 0)"/>
    <use xlink:href="#DejaVuSans-66" transform="translate(913.273438 0)"/>
    <use xlink:href="#DejaVuSans-74" transform="translate(946.728516 0)"/>
    <use xlink:href="#DejaVuSans-20" transform="translate(985.9375 0)"/>
    <use xlink:href="#DejaVuSans-76" transform="translate(1017.724609 0)"/>
    <use xlink:href="#DejaVuSans-73" transform="translate(1076.904297 0)"/>
    <use xlink:href="#DejaVuSans-20" transform="translate(1129.003906 0)"/>
    <use xlink:href="#DejaVuSans-75" transform="translate(1160.791016 0)"/>
    <use xlink:href="#DejaVuSans-6e" transform="translate(1224.169922 0)"/>
    <use xlink:href="#DejaVuSans-66" transform="translate(1287.548828 0)"/>
    <use xlink:href="#DejaVuSans-75" transform="translate(1322.753906 0)"/>
    <use xlink:href="#DejaVuSans-73" transform="translate(1386.132812 0)"/>
    <use xlink:href="#DejaVuSans-65" transform="translate(1438.232422 0)"/>
    <use xlink:href="#DejaVuSans-64" transform="translate(1499.755859 0)"/>
    <use xlink:href="#DejaVuSans-20" transform="translate(1563.232422 0)"/>
    <use xlink:href="#DejaVuSans-50" transform="translate(1595.019531 0)"/>
    <use xlink:href="#DejaVuSans-79" transform="translate(1655.322266 0)"/>
    <use xlink:href="#DejaVuSans-54" transform="translate(1714.501953 0)"/>
    <use xlink:href="#DejaVuSans-6f" transform="translate(1758.585938 0)"/>
    <use xlink:href="#DejaVuSans-72" transform="translate(1819.767578 0)"/>
    <use xlink:href="#DejaVuSans-63" transform="translate(1858.630859 0)"/>
    <use xlink:href="#DejaVuSans-68" transform="translate(1913.611328 0)"/>
    <use xlink:href="#DejaVuSans-20" transform="translate(1976.990234 0)"/>
    <use xlink:href="#DejaVuSans-46" transform="translate(2008.777344 0)"/>
    <use xlink:href="#DejaVuSans-50" transform="translate(2066.296875 0)"/>
    <use xlink:href="#DejaVuSans-33" transform="translate(2126.599609 0)"/>
    <use xlink:href="#DejaVuSans-32" transform="translate(2190.222656 0)"/>
    <use xlink:href="#DejaVuSans-20" transform="translate(2253.845703 0)"/>
    <use xlink:href="#DejaVuSans-28" transform="translate(2285.632812 0)"/>
    <use xlink:href="#DejaVuSans-73" transform="translate(2324.646484 0)"/>
    <use xlink:href="#DejaVuSans-61" transform="translate(2376.746094 0)"/>
    <use xlink:href="#DejaVuSans-6d" transform="translate(2438.025391 0)"/>
    <use xlink:href="#DejaVuSans-65" transform="translate(2535.4375 0)"/>
    <use xlink:href="#DejaVuSans-20" transform="translate(2596.960938 0)"/>
    <use xlink:href="#DejaVuSans-49" transform="translate(2628.748047 0)"/>
    <use xlink:href="#DejaVuSans-43" transform="translate(2658.240234 0)"/>
    <use xlink:href="#DejaVuSans-2c" transform="translate(2728.064453 0)"/>
    <use xlink:href="#DejaVuSans-20" transform="translate(2759.851562 0)"/>
    <use xlink:href="#DejaVuSans-73" transform="translate(2791.638672 0)"/>
    <use xlink:href="#DejaVuSans-65" transform="translate(2843.738281 0)"/>
    <use xlink:href="#DejaVuSans-65" transform="translate(2905.261719 0)"/>
    <use xlink:href="#DejaVuSans-64" transform="translate(2966.785156 0)"/>
    <use xlink:href="#DejaVuSans-20" transform="translate(3030.261719 0)"/>
    <use xlink:href="#DejaVuSans-34" transform="translate(3062.048828 0)"/>
    <use xlink:href="#DejaVuSans-32" transform="translate(3125.671875 0)"/>
    <use xlink:href="#DejaVuSans-29" transform="translate(3189.294922 0)"/>
   </g>
  </g>
 </g>
 <defs>
  <clipPath id="p07bfc0fa2e">
   <rect x="48.060312" y="43.488" width="284.072727" height="199.584"/>
  </clipPath>
  <clipPath id="p2cc1bd9788">
   <rect x="388.947585" y="43.488" width="284.072727" height="199.584"/>
  </clipPath>
 </defs>
</svg>
